# https://github.com/mikedh/trimesh
v 0.07645148 0.00050216 0.05558718
v 0.04050978 0.00050014 0.03695436
v 0.02343951 0.00040346 -0.00186243
v 0.13823555 0.00050027 0.00308215
v 0.12670285 0.00077567 0.03513693
v 0.07210590 0.00021478 -0.05758441
v 0.11350950 0.00056049 0.04729354
v 0.13663459 0.00067265 -0.01585196
v 0.09287545 0.00051624 -0.05437287
v 0.11817270 0.00051557 -0.04228221
v 0.03022250 0.00034229 -0.02475409
v 0.04750986 0.00028739 -0.04672445
v 0.12730320 0.06237096 -0.02964882
v 0.10565849 0.09650325 -0.03886696
v 0.12916671 0.08326251 -0.01907231
v 0.10986275 0.05788634 -0.04663443
v 0.06958918 0.02199077 -0.05797783
v 0.09313206 0.08067704 -0.04977266
v 0.13330851 0.08111735 0.00331057
v 0.13438073 0.04037076 0.01747623
v 0.12747039 0.08305203 0.02233054
v 0.11450385 0.08315814 0.03833437
v 0.09880600 0.08290988 0.04732707
v 0.09462189 0.04001827 0.05308982
v 0.08003678 0.07873254 0.05135887
v 0.05298494 0.05940707 0.04510769
v 0.04072251 0.08532075 0.02654264
v 0.05908504 0.09487592 0.03951662
v 0.03431210 0.05802748 0.02407552
v 0.12263555 0.09752776 0.01723326
v 0.10317869 0.09993849 0.03602713
v 0.07898231 0.09535088 -0.04534544
v 0.11481907 0.10064112 -0.02482867
v 0.12353127 0.09981045 -0.00749272
v 0.08032979 0.09764934 0.04338463
v 0.04168063 0.09791219 0.01418579
v 0.03329901 0.08436943 0.00542640
v 0.05832666 0.09826563 -0.03533839
v 0.05381446 0.07166839 -0.04644262
v 0.04041589 0.07412573 -0.03310383
v 0.04084321 0.09703595 -0.01485389
v 0.07801396 0.10955750 0.02368857
v 0.10514905 0.11001960 0.00585325
v 0.07557749 0.11338891 -0.00094066
v 0.08264463 0.10922471 -0.02445122
v 0.05276381 0.10722356 0.00660793
v 0.06407560 0.10841309 -0.01897775
v 0.01287350 0.02383840 -0.01115612
v 0.02229761 0.02991572 -0.00508044
v 0.01457794 0.04323076 -0.01832654
v 0.02573161 0.05764486 -0.01547327
v 0.03494621 0.06142270 -0.04044992
v 0.02600732 0.05495735 -0.04727949
v 0.01979404 0.05268878 -0.02691545
v 0.04988784 0.03207482 -0.07134667
v 0.05579683 0.04742622 -0.05591663
v 0.03660353 0.04348571 -0.08066677
v 0.03563182 0.04775538 -0.06600526
v 0.04312353 0.05303000 -0.05466195
v 0.05574309 -0.01103140 -0.08486098
v 0.05419571 0.01417183 -0.08851493
v 0.06058902 -0.00839761 -0.07053803
v 0.05873775 0.02007871 -0.06815868
v 0.05204415 -0.03401683 -0.06474528
v 0.03371848 -0.05008294 -0.05778580
v 0.04369135 -0.03667985 -0.08455208
v 0.00314796 -0.05511275 -0.07563312
v 0.03411252 -0.05390988 -0.02862570
v 0.00496721 -0.05298745 -0.03890834
v 0.04689139 -0.04914512 -0.04452276
v 0.06440022 -0.03016823 -0.05440189
v 0.02060024 -0.05137844 -0.08931464
v 0.03768884 -0.04201328 -0.12291875
v 0.05546244 -0.00168916 -0.12294437
v -0.01804847 -0.03959908 -0.02963177
v -0.03313154 -0.01840447 -0.02604796
v -0.04222156 -0.03098134 -0.05600925
v -0.02042002 -0.04557526 -0.04509254
v -0.03679625 0.00791766 -0.02575234
v -0.04788277 -0.00910709 -0.04573503
v -0.02547482 -0.04877413 -0.07275691
v -0.00395713 -0.05590263 -0.12300169
v -0.03471452 -0.04309326 -0.12299578
v -0.05427833 -0.00633071 -0.07615779
v -0.05172211 -0.02085842 -0.12300232
v 0.01393968 -0.03763767 -0.01544910
v -0.01824012 -0.01834072 -0.01647220
v 0.01728353 -0.02199005 -0.00997967
v 0.02475783 -0.02390486 -0.00417753
v 0.02909878 -0.04912460 -0.01792064
v 0.05005005 0.02167916 -0.12283836
v 0.00454126 0.05569756 -0.07850304
v -0.01488085 0.04057548 -0.02896379
v 0.03092933 0.04678884 -0.12291627
v -0.02117228 0.02379573 -0.01967836
v -0.04022126 0.02440484 -0.04014224
v -0.01687630 0.04892926 -0.04912243
v -0.02462790 0.04973840 -0.08443055
v -0.04053015 0.03532082 -0.06857038
v -0.04324025 0.03440475 -0.12298509
v -0.01396303 0.05474853 -0.12303135
v -0.05050423 0.01944766 -0.07217617
v -0.05436613 0.00976979 -0.12295469
f 1 2 3
f 4 5 6
f 6 5 7
f 8 4 6
f 7 1 3
f 8 6 9
f 9 10 8
f 11 12 7
f 3 11 7
f 7 12 6
f 13 14 15
f 13 10 16
f 9 17 18
f 9 18 16
f 16 18 14
f 13 15 8
f 8 15 19
f 20 19 21
f 20 21 5
f 5 21 22
f 5 22 7
f 7 22 23
f 7 23 24
f 24 23 25
f 10 13 8
f 4 8 19
f 4 19 20
f 4 20 5
f 7 24 1
f 1 24 25
f 16 10 9
f 14 13 16
f 9 6 17
f 1 26 2
f 27 26 28
f 27 29 26
f 28 26 25
f 1 25 26
f 2 26 29
f 19 30 21
f 22 31 23
f 21 30 22
f 22 30 31
f 18 32 14
f 15 33 34
f 33 15 14
f 23 31 35
f 23 35 25
f 34 19 15
f 19 34 30
f 27 36 37
f 25 35 28
f 27 28 36
f 38 32 39
f 38 40 41
f 40 38 39
f 37 36 41
f 42 43 44
f 30 43 31
f 43 30 34
f 32 45 14
f 14 45 33
f 31 42 35
f 33 45 43
f 33 43 34
f 31 43 42
f 45 44 43
f 42 28 35
f 46 28 42
f 46 36 28
f 46 41 36
f 41 46 47
f 32 38 45
f 45 38 47
f 47 46 44
f 44 46 42
f 44 45 47
f 41 47 38
f 48 49 50
f 51 37 41
f 27 37 29
f 29 37 51
f 29 51 49
f 52 53 54
f 50 49 51
f 51 40 52
f 51 52 54
f 50 51 54
f 40 51 41
f 49 3 29
f 29 3 2
f 17 55 56
f 56 18 17
f 18 56 32
f 56 39 32
f 55 57 58
f 59 58 53
f 55 59 56
f 53 52 59
f 55 58 59
f 52 40 39
f 52 39 59
f 59 39 56
f 60 61 62
f 63 55 17
f 55 63 61
f 17 6 62
f 62 61 63
f 62 63 17
f 64 65 66
f 60 62 66
f 66 62 64
f 67 65 68
f 67 68 69
f 70 65 64
f 70 64 71
f 71 64 62
f 71 62 6
f 70 68 65
f 72 65 67
f 66 73 60
f 60 73 74
f 72 73 66
f 65 72 66
f 75 76 77
f 75 77 78
f 79 80 76
f 76 80 77
f 78 77 81
f 69 81 67
f 72 67 82
f 83 82 81
f 80 84 77
f 84 85 77
f 85 83 77
f 77 83 81
f 75 86 87
f 88 48 87
f 86 88 87
f 87 79 76
f 87 76 75
f 75 78 69
f 69 78 81
f 81 82 67
f 48 88 49
f 88 3 49
f 89 3 88
f 89 86 90
f 69 68 90
f 69 90 75
f 75 90 86
f 86 89 88
f 12 71 6
f 68 70 11
f 12 70 71
f 12 11 70
f 90 68 11
f 90 11 89
f 89 11 3
f 57 55 91
f 61 60 74
f 92 53 58
f 50 54 93
f 61 91 55
f 61 74 91
f 58 57 92
f 57 94 92
f 95 93 96
f 95 96 79
f 96 93 97
f 97 92 98
f 97 99 96
f 100 99 98
f 92 101 98
f 97 98 99
f 99 100 102
f 96 80 79
f 96 102 80
f 102 103 84
f 102 84 80
f 99 102 96
f 95 48 50
f 95 50 93
f 95 87 48
f 54 97 93
f 79 87 95
f 97 54 92
f 92 54 53
f 98 101 100
f 103 102 100
f 84 103 85
f 82 74 73
f 101 94 82
f 103 82 85
f 85 82 83
f 82 103 100
f 94 91 82
f 82 91 74
f 82 100 101
f 73 72 82
f 94 57 91
f 101 92 94

