# https://github.com/mikedh/trimesh
v -0.03505854 0.12288423 0.02949044
v -0.02742208 0.12288978 -0.00139535
v -0.13690268 0.12288561 0.00965021
v -0.13421842 0.12289925 -0.02087178
v -0.08646627 0.12290157 -0.05590222
v -0.11721750 0.12289902 -0.04309326
v -0.03318586 0.12286273 -0.02455007
v -0.05141188 0.12277228 -0.04602060
v -0.08224160 0.12278848 0.05568465
v -0.11913700 0.12291364 0.04287580
v -0.05458567 0.12275298 0.04723896
v -0.10758800 0.08481803 0.04946816
v -0.13300928 0.07209289 0.01944618
v -0.06792501 0.01822980 0.04323081
v -0.06274385 0.02684661 0.05265952
v -0.09709169 0.02870442 0.04056156
v -0.02740251 0.08396257 0.01269793
v -0.02671816 0.08600479 -0.00861493
v -0.05909952 0.06047225 0.05265415
v -0.04414321 0.06822886 0.04571712
v -0.03915850 0.09316079 0.03534454
v -0.11103727 0.02323169 0.02231799
v -0.12272423 0.04004545 0.02440483
v -0.10138705 0.04685348 0.04702284
v -0.08591162 0.06026908 0.05405110
v -0.05654711 0.04525846 0.05515048
v -0.12303303 0.06847348 0.03532090
v -0.13038585 0.04563853 -0.00910706
v -0.11886265 0.02511641 0.00151826
v -0.13677841 0.07604315 -0.00632843
v -0.10228727 0.01577501 0.00936767
v -0.06962954 0.01105937 0.02383834
v -0.06190273 0.08921785 -0.05137844
v -0.04878858 0.05765047 -0.05009427
v -0.07940472 0.07584170 -0.05512020
v -0.03881615 0.08407570 -0.03667262
v -0.10047442 0.03095306 -0.04095159
v -0.11613376 0.02637883 -0.01796312
v -0.12472446 0.05591247 -0.03098141
v -0.10293087 0.04501028 -0.04557510
v -0.10797767 0.07265699 -0.04877383
v -0.07731219 0.03873266 -0.05300846
v -0.05613078 0.01161708 -0.04105763
v -0.09936620 0.01775371 -0.02251087
v -0.06498194 0.00971542 -0.02224266
v -0.03045883 0.06464853 -0.03401683
v -0.02151308 0.06958040 0.01008400
v -0.02279614 0.06851413 -0.01508722
v -0.04968448 0.02626889 -0.05386393
v -0.03564481 0.04439836 -0.04917612
v -0.01420876 0.05572243 -0.02396463
v -0.01025067 0.05706687 0.00035679
v -0.03231676 0.06960866 0.03377663
v -0.01307491 0.05794394 0.02183910
v -0.02696579 0.05612271 0.04640358
v 0.01412000 0.04964922 0.07753243
v -0.00952293 0.04857564 0.08490966
v -0.04293270 0.03187407 0.07392713
v -0.02462130 0.03364150 0.10020074
v -0.02990300 0.04570000 0.07057182
v -0.03938933 0.05459776 0.05296719
v -0.04755677 0.04035321 0.06142267
v -0.06042956 0.00512657 0.02965015
v -0.05683269 0.01533974 0.05754331
v -0.04559285 -0.00718404 0.09433857
v -0.04103929 0.01494137 0.09783802
v -0.04186175 -0.02637387 0.08558524
v -0.04834888 -0.02541047 0.05086877
v -0.05906346 0.00176568 0.00040346
v -0.05006957 -0.02338287 0.00050115
v 0.00694961 -0.05569407 0.00072376
v -0.00236728 -0.05186115 0.07763630
v -0.02709252 -0.04961902 0.00050618
v -0.02501667 -0.04563275 0.07756910
v -0.03415343 -0.02769116 0.09708658
v -0.01964217 -0.03680237 0.10036451
v -0.00606116 0.04275660 0.09819727
v 0.01031037 -0.04423670 0.09553586
v 0.00795501 -0.02979649 0.10669852
v -0.02865480 -0.00139424 0.10770968
v 0.00632084 0.02975453 0.10646449
v -0.00385754 -0.01171605 0.11244311
v -0.00520891 0.01010778 0.11285460
v 0.04061128 -0.01726683 0.09709955
v 0.04396727 -0.02362217 0.08404657
v 0.05097007 -0.00853120 0.07889590
v 0.02810553 -0.03626272 0.09430410
v 0.01899848 0.03899084 0.09774709
v 0.03118430 0.04093916 0.07849400
v 0.04458908 0.00918206 0.09494074
v 0.04410882 0.02548862 0.08004202
v 0.03421842 0.02503451 0.09877838
v 0.02712512 -0.00601761 0.10821244
v 0.01498708 0.00445490 0.11212556
v -0.05771619 0.00420773 -0.02450792
v -0.03499408 0.04662689 0.00028751
v -0.05228046 0.02465738 0.00034229
v 0.04720188 0.02965102 0.00053508
v 0.05545279 0.00272750 0.00050493
v 0.04980999 -0.02640988 0.00071820
v 0.03022612 -0.04697706 0.00050014
v 0.01988143 0.05232396 0.00064683
v 0.05292287 0.00831675 0.06361720
v 0.02945376 -0.04521807 0.06327266
f 1 2 3
f 3 2 4
f 5 6 2
f 7 8 5
f 7 5 2
f 9 3 10
f 3 9 11
f 2 6 4
f 11 1 3
f 10 12 9
f 3 13 10
f 14 15 16
f 2 17 18
f 19 20 21
f 17 1 21
f 21 11 19
f 22 16 23
f 23 16 24
f 25 12 24
f 25 26 9
f 9 26 19
f 24 27 23
f 10 27 12
f 25 9 12
f 24 12 27
f 27 10 13
f 23 28 29
f 23 13 28
f 13 3 30
f 13 30 28
f 27 13 23
f 22 23 29
f 31 32 22
f 22 32 14
f 22 14 16
f 15 24 16
f 22 29 31
f 25 24 15
f 25 15 26
f 1 17 2
f 11 21 1
f 9 19 11
f 5 8 33
f 33 34 35
f 36 7 18
f 36 8 7
f 33 8 36
f 34 33 36
f 18 7 2
f 37 38 39
f 37 39 40
f 29 28 38
f 38 28 39
f 40 39 41
f 42 41 35
f 33 35 5
f 6 5 41
f 28 30 39
f 30 4 39
f 4 6 39
f 39 6 41
f 37 43 44
f 45 32 31
f 43 45 44
f 31 44 45
f 31 29 44
f 44 29 38
f 44 38 37
f 37 40 42
f 42 40 41
f 41 5 35
f 46 34 36
f 18 47 48
f 18 48 36
f 36 48 46
f 35 34 49
f 35 49 42
f 50 34 46
f 50 46 51
f 51 46 48
f 51 48 52
f 52 48 47
f 50 49 34
f 18 17 47
f 47 53 54
f 53 47 17
f 54 52 47
f 53 17 21
f 20 53 21
f 54 53 55
f 55 56 54
f 56 55 57
f 58 59 60
f 60 59 57
f 60 57 55
f 61 20 19
f 53 61 55
f 26 62 61
f 53 20 61
f 26 61 19
f 62 58 60
f 62 60 61
f 61 60 55
f 30 3 4
f 32 63 14
f 64 65 66
f 67 65 68
f 68 65 64
f 68 64 63
f 62 26 15
f 14 63 64
f 64 58 62
f 64 62 15
f 14 64 15
f 58 64 66
f 63 69 68
f 68 69 70
f 71 72 73
f 73 68 70
f 67 68 74
f 73 74 68
f 73 72 74
f 67 75 65
f 72 76 74
f 74 76 75
f 74 75 67
f 59 58 66
f 57 59 77
f 72 78 76
f 79 76 78
f 80 75 76
f 80 65 75
f 80 66 65
f 66 80 59
f 77 59 81
f 79 82 76
f 76 82 80
f 80 83 59
f 59 83 81
f 80 82 83
f 84 85 86
f 85 84 87
f 56 57 77
f 56 88 89
f 56 77 88
f 90 91 92
f 89 88 92
f 89 92 91
f 86 90 84
f 87 79 78
f 79 87 84
f 79 84 93
f 90 93 84
f 93 90 92
f 92 88 81
f 77 81 88
f 93 92 94
f 94 92 81
f 82 79 93
f 82 93 94
f 94 83 82
f 94 81 83
f 32 45 63
f 45 69 63
f 95 69 45
f 42 49 37
f 37 49 43
f 43 95 45
f 96 51 52
f 49 50 97
f 96 50 51
f 96 97 50
f 49 97 43
f 43 97 95
f 95 97 69
f 73 69 71
f 73 70 69
f 98 99 52
f 52 99 100
f 101 71 69
f 52 102 98
f 100 101 52
f 52 101 96
f 69 97 101
f 101 97 96
f 102 89 98
f 98 103 99
f 78 72 104
f 104 87 78
f 85 87 104
f 103 90 86
f 90 103 91
f 102 54 56
f 86 85 100
f 100 85 104
f 71 104 72
f 103 98 91
f 91 98 89
f 89 102 56
f 99 103 86
f 99 86 100
f 101 100 104
f 101 104 71
f 102 52 54

