# https://github.com/mikedh/trimesh
v -0.03172345 -0.00048599 -0.04621812
v 0.03759792 -0.00051944 -0.04092757
v 0.00976249 -0.00060490 -0.05490911
v -0.05297196 -0.00050559 -0.01628838
v -0.05491826 -0.00050057 0.01177006
v -0.03078401 -0.00047292 0.04819375
v 0.05440009 -0.00045725 -0.01274968
v 0.00741915 -0.00050004 0.05529462
v 0.05165417 -0.00050222 0.02097462
v 0.03409212 -0.00050124 0.04369027
v 0.01319132 -0.00811706 -0.05702316
v 0.05343360 -0.04293023 -0.02658077
v 0.05394270 -0.03831980 -0.06699083
v 0.04733764 -0.02826498 -0.04732870
v 0.05431878 -0.06365021 0.00917724
v 0.02155831 -0.01070951 -0.06689472
v -0.00728522 -0.00902375 -0.06624512
v 0.03155746 -0.01114281 -0.05055413
v 0.04275578 -0.01859864 -0.06918886
v 0.04223778 -0.01889242 -0.04501738
v -0.00884942 -0.00850006 -0.05823996
v 0.04009791 -0.07018948 0.03778867
v 0.01761235 -0.06514457 0.05192416
v -0.00895019 -0.06393906 0.05455275
v -0.05432843 -0.05353252 -0.04506651
v -0.04548593 -0.02132556 -0.07065756
v -0.05393263 -0.02821783 -0.07861347
v -0.03032974 -0.01298410 -0.06731623
v -0.02817475 -0.01229773 -0.05469753
v -0.05115314 -0.03318876 -0.03453829
v -0.05476941 -0.05950235 0.00515809
v -0.04049516 -0.02040726 -0.05272162
v -0.04249872 -0.01240179 -0.03877394
v -0.04329313 0.01266920 -0.09312816
v -0.05504640 0.00276074 -0.10569818
v -0.03012338 -0.00255872 -0.07769042
v 0.01308735 0.00040319 -0.07570511
v 0.05423891 -0.01283451 -0.09288709
v 0.05397565 0.00754748 -0.10629397
v 0.03732530 0.02056683 -0.09205499
v 0.03990844 -0.00044294 -0.08403125
v 0.02571749 0.04805074 -0.12882656
v -0.00134830 0.05315760 -0.11754065
v 0.01904103 0.04452866 -0.10487304
v 0.00331594 0.04491538 -0.10010710
v 0.04372652 0.03160684 -0.11522799
v 0.00632313 0.02839034 -0.08603033
v -0.04742101 0.02498891 -0.11148137
v -0.01917345 0.03483877 -0.09245578
v -0.03171936 0.04177193 -0.11467610
v -0.01436784 0.05342842 -0.13599436
v 0.05076091 -0.03507191 -0.09528057
v 0.03771466 -0.04147789 -0.14770745
v 0.04643063 -0.03541819 -0.12301278
v 0.02699162 -0.05972771 -0.10724801
v 0.03639932 -0.07284797 -0.07284860
v 0.05365607 -0.01308456 -0.19193323
v 0.04228999 -0.10339958 -0.03074429
v 0.02636869 -0.11782083 -0.03147656
v 0.04979437 -0.10367253 -0.00686012
v 0.04666074 -0.10141718 0.01917340
v 0.02760431 -0.10863772 0.03978642
v 0.00295251 -0.11185501 0.04673465
v -0.03165039 -0.09561068 0.04161245
v -0.04764596 -0.06506818 0.02749459
v -0.01581667 -0.10300354 0.04714105
v -0.04917970 -0.10257681 0.01353542
v -0.03219435 -0.07907110 -0.07000550
v -0.04278797 -0.06097794 -0.07875963
v -0.02305117 -0.06007196 -0.11157382
v -0.05136200 -0.02679780 -0.11199080
v -0.04368366 -0.11263969 -0.01528549
v -0.03210132 -0.10886814 -0.03856419
v -0.04035528 -0.04064740 -0.12964988
v -0.02488605 -0.04992396 -0.14929619
v -0.05353263 -0.01330362 -0.19190566
v -0.02801829 0.04975637 -0.19193366
v -0.05403370 0.01524427 -0.19200902
v 0.01593857 0.05349717 -0.19199902
v -0.03951091 -0.03916835 -0.19199520
v -0.00581863 -0.05596125 -0.19200067
v 0.00641885 -0.05619364 -0.15084361
v 0.01087875 -0.06201208 -0.11957418
v -0.00004257 -0.07663684 -0.09136600
v -0.00155651 -0.10099796 -0.06011721
v -0.04312406 -0.11434069 0.00972929
v -0.00989452 -0.12182441 -0.03387092
v 0.01775604 -0.11244018 -0.04288683
v 0.04308686 -0.11449834 -0.01041843
v 0.03964567 -0.11448688 0.01998871
v -0.02853507 -0.11496227 0.03369897
v -0.00784492 -0.12839092 0.01759375
v 0.01299920 -0.12640694 0.02186254
v 0.02628535 -0.12538618 -0.00378566
v -0.02235732 -0.12701119 0.00089794
v -0.00154357 -0.13027060 -0.00871305
v 0.03727236 -0.04249498 -0.19199666
v 0.05472305 0.00851956 -0.19200610
v 0.04321995 0.03484153 -0.19199812
f 1 2 3
f 2 1 4
f 5 6 7
f 8 9 7
f 4 5 2
f 7 6 8
f 7 2 5
f 9 8 10
f 11 3 2
f 12 13 14
f 7 15 12
f 16 17 11
f 11 18 16
f 14 19 16
f 14 16 20
f 20 16 18
f 19 14 13
f 20 12 14
f 7 20 2
f 17 21 11
f 18 11 2
f 18 2 20
f 12 20 7
f 15 9 22
f 10 23 22
f 15 7 9
f 22 9 10
f 23 10 8
f 23 8 24
f 25 26 27
f 28 29 17
f 11 21 3
f 30 31 5
f 17 29 21
f 28 26 32
f 28 32 29
f 33 29 32
f 26 25 30
f 30 4 33
f 4 30 5
f 30 25 31
f 30 33 32
f 30 32 26
f 21 29 1
f 3 21 1
f 1 33 4
f 1 29 33
f 27 34 35
f 36 26 28
f 27 26 36
f 27 36 34
f 37 28 17
f 36 28 37
f 38 39 40
f 37 16 19
f 40 41 38
f 16 37 17
f 41 37 19
f 41 19 38
f 13 38 19
f 42 43 44
f 44 43 45
f 46 44 40
f 39 46 40
f 44 45 47
f 41 40 37
f 37 40 47
f 46 42 44
f 40 44 47
f 35 34 48
f 49 47 45
f 45 43 49
f 34 49 48
f 48 49 50
f 43 51 50
f 43 50 49
f 47 49 36
f 36 37 47
f 36 49 34
f 38 13 52
f 53 54 55
f 54 52 56
f 54 56 55
f 38 52 54
f 57 54 53
f 38 54 57
f 58 59 56
f 60 12 15
f 60 56 52
f 60 58 56
f 60 52 13
f 60 13 12
f 61 60 15
f 62 61 22
f 63 62 23
f 23 24 63
f 62 22 23
f 61 15 22
f 24 6 64
f 6 65 64
f 5 31 65
f 24 8 6
f 65 6 5
f 63 24 66
f 65 67 64
f 67 65 31
f 66 24 64
f 68 69 70
f 71 25 27
f 72 69 68
f 72 68 73
f 71 69 25
f 25 69 72
f 67 31 25
f 67 25 72
f 74 70 69
f 74 75 70
f 69 71 74
f 74 71 76
f 35 71 27
f 77 48 50
f 78 35 48
f 51 77 50
f 77 51 79
f 78 48 77
f 35 78 71
f 71 78 76
f 74 80 75
f 80 74 76
f 75 80 81
f 81 82 75
f 83 84 70
f 83 70 82
f 75 82 70
f 73 68 85
f 85 68 70
f 85 70 84
f 67 72 86
f 85 87 73
f 88 87 85
f 58 89 59
f 89 58 60
f 89 60 90
f 90 60 61
f 90 61 62
f 64 91 66
f 63 66 91
f 64 67 91
f 91 67 86
f 87 72 73
f 63 91 92
f 93 62 63
f 90 62 93
f 89 90 94
f 92 95 96
f 96 94 93
f 96 93 92
f 95 87 96
f 96 87 59
f 96 59 94
f 93 63 92
f 92 91 95
f 95 91 86
f 95 86 72
f 95 72 87
f 87 88 59
f 59 89 94
f 94 90 93
f 59 88 56
f 56 88 85
f 85 84 55
f 85 55 56
f 82 53 83
f 83 53 55
f 55 84 83
f 97 53 82
f 97 82 81
f 79 81 80
f 79 97 81
f 79 98 57
f 79 80 76
f 76 78 79
f 79 78 77
f 79 99 98
f 57 97 79
f 98 38 57
f 97 57 53
f 43 79 51
f 38 98 39
f 39 98 46
f 46 98 99
f 79 42 99
f 99 42 46
f 79 43 42

