# https://github.com/mikedh/trimesh
v 0.02823869 -0.04796939 0.10481460
v 0.04640186 -0.03161865 0.10415179
v 0.03718559 -0.04677841 0.10597203
v 0.01297478 -0.05772465 0.10511170
v -0.02708138 -0.05685412 0.10582350
v -0.03569115 -0.05178966 0.10493381
v 0.05220630 -0.02964807 0.10597965
v -0.07462392 -0.00852622 0.10728648
v -0.06880374 -0.01701184 0.10502766
v -0.06472986 -0.03076067 0.10717911
v -0.05449111 -0.03854153 0.10436378
v -0.05012479 -0.04678774 0.10729870
v 0.03617311 0.04724556 0.10534063
v 0.04641349 0.03182784 0.10412184
v 0.02978733 0.04733826 0.10479772
v 0.00622026 0.05652562 0.10469982
v -0.07477105 0.00855043 0.10743063
v -0.06658582 0.02080636 0.10489529
v 0.01686979 0.05821462 0.10722149
v -0.02494413 0.05766288 0.10701808
v -0.03645191 0.05189488 0.10474798
v -0.04826091 0.04828273 0.10717808
v -0.06465425 0.02988061 0.10614323
v 0.05232916 0.02943486 0.10584652
v 0.05793614 0.00963056 0.13984247
v 0.05597061 0.01835343 0.08609337
v 0.05486532 -0.01935980 0.08591363
v 0.05813062 -0.00934600 0.13983019
v 0.04771452 -0.03472260 0.13967694
v 0.04598898 0.03693188 0.13934681
v 0.00282612 -0.05901998 0.13916099
v -0.02205878 -0.05459458 0.13954227
v -0.04279642 -0.03924576 0.13976318
v -0.05531134 -0.02066861 0.13921699
v -0.07454271 -0.00850960 0.12965398
v -0.07381249 0.00939192 0.12998381
v 0.00299885 0.05900685 0.13932101
v -0.05636240 0.01875020 0.13960187
v -0.03680326 0.04594379 0.13954443
v 0.05897612 -0.00046224 0.08616056
v 0.05948877 0.00017416 0.13170701
v 0.02897507 0.05155134 0.13893397
v 0.05601191 -0.00011667 0.13447864
v 0.03064778 -0.05072438 0.13910709
v -0.01740501 0.05593234 0.13928919
v -0.10351904 -0.05169450 0.06054068
v -0.00068414 -0.06817912 0.08675024
v 0.00239474 -0.06104486 0.09480462
v -0.04598016 -0.05220844 0.09309353
v 0.04185366 -0.05770201 0.00041804
v 0.05115401 -0.03468914 0.03773428
v 0.03637892 -0.04368012 0.08889320
v 0.06612815 -0.03027692 0.00000877
v 0.01307128 -0.06835967 0.08137842
v 0.02573443 -0.06950455 0.00000270
v 0.05358916 0.03270869 0.03413925
v 0.02676860 0.05489060 0.08571627
v 0.06055539 -0.01338123 0.03839661
v 0.07216854 0.01365075 -0.00001366
v 0.06092608 0.01304713 0.03695228
v 0.05292984 0.04926341 -0.00000108
v 0.02547964 0.06954066 0.00000711
v -0.13412379 -0.06806481 0.00000073
v -0.14748211 -0.04687190 0.00000069
v -0.13410924 0.06812031 0.00000126
v 0.00620376 0.09395614 0.00005237
v 0.00624283 -0.09439344 0.00003826
v -0.15411350 -0.00713931 0.00002593
v -0.14971571 0.04122692 -0.00000065
v 0.02185587 -0.07017899 0.00869082
v -0.01685766 -0.06565960 0.03919807
v 0.01076544 -0.07025784 0.00935331
v -0.01572254 -0.06584262 0.02757376
v -0.02898282 -0.06369577 0.02499329
v -0.12305249 -0.04857457 0.01030828
v -0.03230939 -0.06315699 0.03583923
v -0.05350621 -0.05972385 0.04106648
v -0.07044973 -0.05697960 0.03776920
v -0.07470035 -0.05629115 0.05162791
v -0.06605143 -0.05769197 0.05954767
v -0.03254744 -0.06311844 0.06106077
v -0.01827011 -0.06543204 0.07100669
v -0.02974473 -0.06357238 0.06985693
v -0.05495650 -0.05948896 0.05591977
v -0.02431334 -0.06445207 0.05335287
v -0.01494338 -0.06596965 0.06016077
v -0.02554067 -0.06425329 0.04203731
v -0.11436506 -0.04699476 0.05774216
v -0.12989765 -0.03733245 0.01003468
v -0.12101196 -0.03334707 0.05887987
v -0.13074788 0.00203209 0.04415475
v -0.12017825 0.00934253 0.06474071
v -0.13513735 -0.00291881 0.01090966
v -0.04725830 0.05122298 0.09434111
v 0.03904885 0.05399421 0.02453845
v 0.01460959 0.06022596 0.09090157
v 0.00195983 0.06873051 0.08588026
v 0.00010948 0.05933704 0.09622301
v 0.01256444 0.06843640 0.08096117
v 0.02465044 0.06893452 0.00888895
v 0.00587196 0.09341448 0.00814499
v -0.13321453 0.06729104 0.00867084
v -0.14917286 0.04102657 0.00912679
v -0.15255448 -0.01807111 0.00975388
v -0.13686930 -0.06535559 0.00867793
v 0.00600411 -0.09298902 0.00812393
v 0.00437399 -0.06860561 0.08323581
v -0.03199391 -0.07333840 0.06919809
v -0.02331090 -0.07474475 0.07203730
v -0.01654220 -0.07584103 0.06583924
v -0.01986876 -0.07530225 0.05499329
v -0.03312891 -0.07315457 0.05757377
v -0.07805826 -0.07509619 0.05047791
v -0.07024037 -0.07636241 0.05923953
v -0.05884125 -0.07820867 0.05676163
v -0.05526001 -0.07878870 0.04552209
v -0.06307790 -0.07752249 0.03676047
v -0.07447702 -0.07567623 0.03923838
v -0.03438607 -0.07447051 0.03493924
v -0.02826772 -0.07546146 0.04179616
v -0.01934667 -0.07690635 0.03985692
v -0.01654397 -0.07736029 0.03106077
v -0.02744259 -0.07559220 0.02352075
v -0.11478054 0.03960567 0.06244086
v -0.11109612 0.05013520 0.05694627
v -0.12254889 0.03490089 0.05330870
v -0.12337168 0.04836939 0.01045541
v -0.13017908 0.03647663 0.01004697
v -0.03153010 0.06328321 0.03157377
v -0.01826995 0.06543089 0.02899329
v 0.01090854 0.07033981 0.00928497
v -0.01572255 0.06584261 0.04242625
v -0.02898282 0.06369577 0.04500671
v 0.01966796 0.07027446 0.00868359
v -0.01654397 0.07736029 0.03893923
v -0.02744241 0.07559129 0.04647926
v -0.03438607 0.07447051 0.03506077
v -0.02348642 0.07623202 0.02752073
v 0.00706867 -0.07311858 0.07981803
v 0.00691989 0.07263364 0.07990097
f 1 2 3
f 1 3 4
f 5 6 4
f 3 2 7
f 8 9 10
f 9 11 10
f 10 11 12
f 6 12 11
f 6 5 12
f 13 14 15
f 13 15 16
f 17 9 8
f 18 9 17
f 19 16 20
f 20 16 21
f 21 22 20
f 22 21 23
f 18 17 23
f 24 25 26
f 7 27 28
f 29 3 7
f 24 13 30
f 29 7 28
f 25 24 30
f 4 31 5
f 5 32 12
f 33 34 10
f 10 34 8
f 24 14 13
f 13 16 19
f 35 36 17
f 17 8 35
f 37 19 20
f 23 17 38
f 22 23 39
f 39 20 22
f 39 23 38
f 7 2 27
f 28 27 40
f 28 40 41
f 26 25 41
f 40 26 41
f 42 13 19
f 13 42 30
f 19 37 42
f 43 41 25
f 28 41 43
f 3 44 4
f 4 44 31
f 29 44 3
f 24 26 14
f 12 32 33
f 12 33 10
f 31 32 5
f 34 35 8
f 35 34 38
f 36 35 38
f 36 38 17
f 20 45 37
f 45 20 39
f 46 47 48
f 48 4 6
f 48 6 49
f 48 49 46
f 50 51 52
f 51 50 53
f 54 48 47
f 50 54 55
f 1 48 54
f 54 50 52
f 54 52 1
f 48 1 4
f 49 6 11
f 14 56 57
f 58 59 60
f 61 56 59
f 59 56 60
f 59 58 53
f 53 58 51
f 1 52 2
f 58 27 51
f 51 27 2
f 51 2 52
f 40 27 58
f 60 40 58
f 60 26 40
f 56 14 26
f 14 57 15
f 56 26 60
f 62 55 63
f 64 65 66
f 64 66 62
f 62 63 64
f 55 67 63
f 53 50 59
f 65 64 68
f 69 65 68
f 62 61 55
f 59 50 55
f 55 61 59
f 55 54 70
f 47 71 72
f 71 73 72
f 72 73 74
f 72 74 75
f 75 74 76
f 76 77 78
f 76 78 75
f 79 80 46
f 46 80 81
f 75 78 46
f 82 47 83
f 83 47 46
f 83 46 81
f 80 84 81
f 81 84 77
f 81 77 85
f 82 86 47
f 47 86 71
f 71 86 85
f 71 85 87
f 87 85 77
f 87 77 76
f 46 78 79
f 11 9 88
f 88 46 11
f 11 46 49
f 89 88 90
f 91 90 92
f 91 93 89
f 91 89 90
f 88 9 90
f 92 90 9
f 23 21 94
f 61 62 95
f 96 97 98
f 97 96 99
f 99 96 57
f 100 99 95
f 95 56 61
f 57 95 99
f 95 62 100
f 98 16 96
f 96 16 15
f 96 15 57
f 95 57 56
f 66 101 62
f 62 101 100
f 101 66 65
f 102 101 65
f 69 103 65
f 65 103 102
f 69 68 103
f 68 104 103
f 104 68 64
f 64 105 104
f 105 64 63
f 105 63 67
f 67 106 105
f 55 70 67
f 67 70 106
f 107 54 47
f 107 47 72
f 81 108 83
f 83 108 109
f 83 109 82
f 82 109 110
f 82 110 86
f 86 110 111
f 86 111 85
f 85 111 112
f 85 112 81
f 81 112 108
f 79 113 114
f 79 114 80
f 80 114 115
f 80 115 84
f 84 115 116
f 84 116 77
f 77 116 117
f 77 117 78
f 78 117 118
f 78 118 113
f 78 113 79
f 76 119 120
f 76 120 87
f 87 120 121
f 87 121 71
f 71 121 122
f 71 122 73
f 73 122 123
f 73 123 74
f 74 123 119
f 74 119 76
f 75 88 89
f 88 75 46
f 23 94 124
f 125 124 94
f 125 126 124
f 125 127 126
f 126 127 128
f 126 128 91
f 91 128 93
f 18 92 9
f 18 124 92
f 18 23 124
f 126 91 92
f 92 124 126
f 125 94 97
f 97 94 98
f 21 16 98
f 98 94 21
f 112 111 110
f 110 109 112
f 112 109 108
f 117 116 113
f 113 116 115
f 113 118 117
f 113 115 114
f 123 122 120
f 120 122 121
f 120 119 123
f 104 89 93
f 105 89 104
f 106 72 75
f 106 75 105
f 89 105 75
f 127 125 129
f 127 129 130
f 127 130 131
f 132 97 131
f 132 131 130
f 125 133 129
f 133 125 97
f 133 97 132
f 99 100 134
f 128 103 93
f 101 102 127
f 101 127 131
f 102 103 128
f 102 128 127
f 104 93 103
f 132 135 136
f 132 136 133
f 133 136 137
f 133 137 129
f 129 137 138
f 129 138 130
f 130 138 135
f 130 135 132
f 136 135 137
f 137 135 138
f 28 25 38
f 37 25 30
f 25 37 45
f 30 42 37
f 25 45 39
f 39 38 25
f 38 34 28
f 28 32 31
f 31 44 29
f 28 34 33
f 28 33 32
f 31 29 28
f 43 25 28
f 72 106 70
f 70 54 139
f 72 70 139
f 139 54 107
f 72 139 107
f 131 134 101
f 101 134 100
f 131 140 134
f 99 140 97
f 99 134 140
f 131 97 140

