# https://github.com/mikedh/trimesh
v 0.00750504 0.04358277 0.06081285
v -0.00921624 0.04324012 0.06120439
v -0.00168017 0.04954866 0.06220505
v 0.01134448 0.05755941 0.06649216
v 0.01839619 0.04158026 0.06294538
v -0.01273145 0.04436906 0.06572725
v -0.01339603 0.04186519 0.06813652
v 0.05266796 0.06328552 0.07491899
v 0.03680110 0.05059178 0.06819794
v 0.03154745 0.04551996 0.06591615
v 0.04456146 0.04426973 0.06772976
v 0.06747593 0.05711915 0.08482180
v 0.06714097 0.05533788 0.07834285
v 0.05072173 0.07254739 0.08060444
v 0.03206496 0.03196330 0.06356058
v 0.03678839 0.07929068 0.07654645
v 0.03952140 0.08115274 0.08151186
v 0.02098498 0.03961031 0.06068487
v 0.04036626 0.01918536 0.06075237
v 0.04758097 -0.00237368 0.06113500
v 0.04374642 0.00450654 0.06066410
v 0.04061439 0.01999001 0.06309099
v 0.03099414 0.03222981 0.06074090
v 0.04374866 -0.00822056 0.06098201
v -0.01276716 0.04477364 0.08382217
v 0.00688134 0.05550579 0.08798169
v 0.00696578 0.05584572 0.07493282
v 0.01127591 0.05854918 0.07072540
v 0.03579919 0.08032772 0.07957167
v 0.04558529 0.03148798 0.06573686
v 0.05054560 0.03664444 0.06809285
v 0.07898995 0.03629068 0.07610270
v 0.05954477 0.01539890 0.06725468
v 0.08144756 0.03911975 0.08123762
v 0.05188126 0.00201550 0.06402167
v 0.04293225 -0.01297283 0.06526660
v -0.00688016 0.04697907 0.09375361
v 0.02852691 0.07288805 0.07673685
v 0.07158765 0.02701557 0.07499214
v 0.08006916 0.03538362 0.07998594
v 0.03911680 0.03974719 0.06499412
v 0.05140579 0.07153059 0.09158719
v 0.03861405 0.08093486 0.09178636
v 0.03845345 0.07821278 0.09600638
v 0.07065545 0.05120575 0.09409224
v 0.04512562 -0.01219122 0.08657952
v 0.04186728 -0.01361062 0.08328117
v 0.05950756 0.01241310 0.07056084
v 0.05559565 0.00697439 0.07403666
v -0.01301236 0.04232080 0.08824178
v 0.03051100 0.07469635 0.08639970
v 0.08040643 0.03804194 0.09384339
v 0.07690581 0.03421466 0.09652858
v 0.03334318 0.07802743 0.09448594
v 0.03376007 0.07573107 0.09668624
v 0.03264961 0.04245534 0.09685911
v 0.05578087 0.01049528 0.09668704
v 0.00715577 0.05294803 0.09680282
v -0.00765447 0.04370284 0.09396987
v 0.00975328 0.05751292 0.09378705
v 0.02835909 0.07448590 0.07843937
v 0.07872739 0.03403873 0.09427556
v 0.07425419 0.02864686 0.07813715
v 0.02834698 0.07257044 0.09353283
v 0.01167191 0.04782796 0.09506723
v 0.03474479 0.02776128 0.09418381
v 0.04700539 0.01657350 0.09500469
v 0.04455217 -0.00453774 0.09500081
v 0.05788566 0.01120666 0.09415507
v 0.06346941 0.01618600 0.07227834
v 0.02783637 0.07402544 0.09248264
v 0.00996929 0.05870979 0.07520405
v 0.01691014 0.06349840 0.07389404
v 0.07342629 0.02891379 0.09275799
v 0.04330936 0.01015490 0.09450476
v 0.01693548 0.04132177 0.09445138
v 0.04669271 -0.00717704 0.09366307
v 0.04213025 -0.01248683 0.09027953
v 0.05608092 0.00776434 0.09175337
v 0.01304112 0.06010550 0.09020068
v 0.01443054 0.05967702 0.07845709
v 0.07475391 0.02863643 0.09052962
v 0.05796362 0.00870019 0.07746452
v 0.06039359 0.01223954 0.09307068
v 0.05986267 0.01459563 0.07745222
v 0.06033906 0.01508321 0.08714755
v 0.04089328 -0.01563600 0.09759141
v 0.04401983 -0.00080607 0.09762402
v 0.04195755 -0.01325516 0.08630839
v 0.03877189 -0.02094256 0.06186438
v 0.03492393 -0.02665813 0.09745447
v 0.02254484 -0.03777948 0.09753467
v 0.02782764 -0.03418545 0.06019019
v 0.01718418 -0.04074920 0.07368509
v 0.00262939 -0.04377361 0.09748282
v -0.00932497 -0.04310640 0.09669999
v -0.00580883 -0.04377966 0.05046514
v -0.01789653 -0.03969182 0.09777496
v -0.01473294 -0.04159255 0.05968523
v -0.03721617 -0.02340723 0.09779861
v -0.04289034 -0.00990785 0.09714777
v -0.03727020 -0.02386367 0.05050595
v -0.04346225 -0.00782469 0.05047678
v -0.04375266 0.00273124 0.09732324
v -0.04287380 0.01254922 0.05044123
v -0.03901281 0.02052182 0.09758108
v -0.01291301 0.04183415 0.09767661
v -0.02356927 0.03731048 0.07541879
v -0.02960522 0.03273886 0.09745708
v 0.00868676 0.04314017 0.09767902
v 0.02791792 0.03379240 0.09767814
v 0.03960725 0.01870276 0.09757370
v -0.03109631 -0.03113667 0.07985027
v -0.03505900 -0.02660373 0.08479623
v -0.03403106 -0.02789019 0.09001409
v -0.03016835 -0.03210509 0.09199005
v -0.02720418 -0.03458092 0.09669022
v -0.02671340 -0.03496080 0.08717363
v -0.02356884 -0.03719299 0.07537205
v -0.02759720 -0.03427773 0.08253993
v -0.04075008 -0.03519249 0.09047140
v -0.04203745 -0.03390582 0.08600006
v -0.03692365 -0.03901632 0.09171486
v -0.03387757 -0.04206710 0.08756143
v -0.03445045 -0.04149282 0.08312505
v -0.03696490 -0.03897098 0.08027592
v -0.04076489 -0.03518266 0.08151525
v 0.02720445 0.01753188 0.09846082
v 0.02889047 -0.01495729 0.09843319
v 0.03197480 0.00102542 0.09828736
v 0.00877110 0.03122007 0.09815124
v -0.03047707 -0.00912809 0.09832608
v -0.02298978 -0.02227304 0.09850335
v -0.02822677 0.01523883 0.09827214
v -0.02050052 0.02425733 0.09844162
v -0.01016244 0.03052499 0.09846985
v -0.03202219 0.00107156 0.09830586
v -0.00842690 -0.03051346 0.09839805
v 0.00349906 -0.03209116 0.09829709
v 0.01651771 -0.02777596 0.09816873
v -0.01534939 0.04121295 0.05043606
v -0.02605564 -0.03559474 0.05055918
v 0.00562127 -0.04360891 0.05048131
v 0.01924594 -0.03966656 0.05041620
v 0.03343571 -0.02882632 0.05046036
v -0.02977680 0.03259528 0.05045892
v -0.00406986 0.03129852 0.10650309
v -0.01844112 0.02549433 0.10656478
v -0.02813007 0.01411179 0.10655962
v -0.03147338 -0.00045096 0.10655519
v -0.02772592 -0.01490982 0.10655174
v -0.01773778 -0.02601084 0.10654944
v -0.00742412 -0.03037365 0.10654048
v 0.00375953 -0.03125907 0.10654844
v 0.01773778 -0.02601084 0.10654944
v 0.02772592 -0.01490982 0.10655174
v 0.03132175 -0.00055207 0.10690178
v 0.02813007 0.01411179 0.10655962
v 0.01844112 0.02549433 0.10656478
v 0.00803380 0.03019787 0.10655580
v 0.04205563 -0.01342983 0.05045384
v 0.04397172 -0.00111042 0.05048437
v 0.04222550 0.01287757 0.05043618
v 0.03388086 0.02833277 0.05044286
v 0.02000975 0.03936329 0.05042031
v 0.00262622 0.04410915 0.05047967
f 1 2 3
f 4 5 1
f 4 1 3
f 2 6 3
f 6 2 7
f 8 9 5
f 5 9 10
f 9 8 11
f 12 13 14
f 10 15 5
f 8 16 14
f 8 14 13
f 14 16 17
f 5 4 8
f 8 4 16
f 1 5 18
f 19 20 21
f 19 22 20
f 23 15 19
f 19 15 22
f 18 5 23
f 23 5 15
f 20 24 21
f 6 7 25
f 3 26 27
f 3 28 4
f 3 27 28
f 16 4 29
f 17 16 29
f 10 30 22
f 30 31 32
f 11 8 31
f 15 10 22
f 33 20 22
f 32 8 13
f 31 8 32
f 13 12 34
f 13 34 32
f 30 32 22
f 32 33 22
f 35 36 24
f 35 24 20
f 6 25 3
f 3 25 37
f 3 37 26
f 28 38 4
f 4 38 29
f 39 32 40
f 40 32 34
f 33 32 39
f 33 39 35
f 35 20 33
f 41 30 10
f 42 43 44
f 17 43 14
f 14 43 42
f 45 12 42
f 44 45 42
f 42 12 14
f 36 46 47
f 39 48 35
f 35 48 49
f 50 25 7
f 51 29 38
f 45 34 12
f 45 52 34
f 45 53 52
f 44 53 45
f 30 41 31
f 31 41 11
f 9 41 10
f 11 41 9
f 43 29 54
f 43 17 29
f 54 55 44
f 54 44 43
f 53 56 57
f 44 56 53
f 55 56 44
f 56 55 58
f 46 36 35
f 50 59 37
f 58 37 59
f 60 37 58
f 50 37 25
f 26 37 60
f 28 61 38
f 40 34 52
f 52 53 62
f 40 52 62
f 40 63 39
f 51 54 29
f 64 54 51
f 55 54 58
f 60 58 54
f 58 65 56
f 65 66 56
f 57 56 67
f 56 66 67
f 57 67 68
f 57 69 53
f 53 69 62
f 59 65 58
f 70 48 63
f 63 48 39
f 54 64 60
f 61 51 38
f 60 64 71
f 28 27 72
f 73 28 72
f 62 74 40
f 40 74 63
f 68 67 75
f 59 76 65
f 76 66 65
f 67 66 75
f 69 74 62
f 77 57 68
f 77 68 78
f 46 77 78
f 46 78 47
f 57 77 69
f 79 69 77
f 35 79 77
f 79 35 49
f 35 77 46
f 73 61 28
f 71 51 61
f 71 64 51
f 80 26 60
f 26 80 72
f 27 26 72
f 73 72 81
f 82 63 74
f 83 48 70
f 83 49 48
f 69 79 84
f 84 74 69
f 80 60 71
f 81 72 80
f 81 61 73
f 71 81 80
f 71 61 81
f 63 85 70
f 79 49 83
f 85 83 70
f 79 83 84
f 63 82 86
f 86 85 63
f 84 83 86
f 85 86 83
f 82 84 86
f 74 84 82
f 87 78 88
f 75 88 68
f 68 88 78
f 47 89 87
f 89 78 87
f 90 47 87
f 90 87 91
f 92 93 91
f 94 93 92
f 95 94 92
f 96 97 95
f 98 99 96
f 96 99 97
f 100 101 102
f 103 101 104
f 103 104 105
f 105 104 106
f 107 108 109
f 59 50 107
f 107 50 108
f 108 50 7
f 110 76 59
f 110 59 107
f 110 111 76
f 76 111 66
f 111 112 66
f 66 112 75
f 75 112 88
f 102 113 114
f 100 114 115
f 100 115 116
f 100 116 117
f 116 118 117
f 119 118 120
f 120 113 119
f 99 98 119
f 119 98 117
f 119 117 118
f 114 100 102
f 104 101 100
f 100 117 98
f 98 96 95
f 121 115 122
f 122 115 114
f 116 121 123
f 121 116 115
f 118 116 124
f 124 116 123
f 125 120 124
f 124 120 118
f 126 113 125
f 125 113 120
f 127 113 126
f 113 127 114
f 122 114 127
f 92 98 95
f 104 100 106
f 88 112 128
f 87 92 91
f 110 112 111
f 129 87 130
f 106 107 109
f 131 128 110
f 110 128 112
f 132 100 133
f 130 87 88
f 130 88 128
f 106 134 135
f 106 135 107
f 107 135 136
f 107 136 131
f 107 131 110
f 134 106 137
f 98 138 133
f 98 133 100
f 138 98 139
f 139 98 140
f 87 129 92
f 92 129 140
f 92 140 98
f 100 132 137
f 100 137 106
f 126 125 124
f 124 127 126
f 124 121 122
f 124 122 127
f 124 123 121
f 7 2 141
f 36 90 24
f 90 36 47
f 101 103 102
f 113 102 142
f 113 142 119
f 142 99 119
f 143 95 97
f 143 94 95
f 93 94 144
f 90 91 145
f 145 91 93
f 105 106 146
f 146 106 109
f 146 109 108
f 146 108 141
f 141 108 7
f 147 136 148
f 148 136 135
f 148 135 134
f 148 134 149
f 149 134 137
f 149 137 150
f 150 137 132
f 150 132 151
f 151 132 133
f 151 133 152
f 152 133 138
f 152 138 153
f 153 138 154
f 138 139 154
f 154 139 155
f 139 140 155
f 155 140 156
f 140 129 156
f 156 129 157
f 129 130 157
f 157 130 158
f 130 128 158
f 158 128 159
f 128 131 159
f 159 131 160
f 160 131 147
f 147 131 136
f 161 90 145
f 21 24 162
f 162 24 161
f 161 24 90
f 163 19 21
f 163 21 162
f 164 19 163
f 164 23 19
f 165 18 164
f 164 18 23
f 166 1 165
f 165 1 18
f 166 2 1
f 141 2 166
f 144 94 143
f 145 93 144
f 99 142 97
f 154 157 153
f 151 152 157
f 157 152 153
f 157 150 151
f 148 149 157
f 157 149 150
f 157 147 148
f 157 159 160
f 157 160 147
f 157 158 159
f 154 155 157
f 157 155 156
f 97 164 163
f 97 163 143
f 143 163 144
f 97 142 164
f 164 142 165
f 165 142 102
f 102 103 165
f 165 103 105
f 146 141 105
f 105 141 166
f 165 105 166
f 144 163 162
f 144 162 161
f 144 161 145

