# https://github.com/mikedh/trimesh
v 0.04849068 0.00384534 -0.01822645
v 0.00967841 -0.04715012 -0.01639985
v 0.04652630 0.01556004 -0.01635222
v -0.01204809 -0.04660968 -0.01640021
v -0.03261122 -0.03560421 -0.01638851
v -0.04844902 -0.00829743 -0.01639609
v -0.03925297 0.02871102 -0.01641045
v 0.01419386 0.04661611 -0.01644924
v 0.03465350 0.03428429 -0.01625078
v -0.01625440 0.04532411 -0.01639192
v 0.04450515 -0.02231485 -0.01783638
v 0.03068183 -0.03892795 -0.01873174
v 0.04464045 0.02167324 -0.01792507
v 0.02497777 0.04198005 0.00220009
v 0.01745012 0.04626426 -0.01565192
v 0.00812410 0.04819741 0.00219921
v 0.00348478 0.04945968 -0.01255679
v -0.00157276 0.04974120 0.00203389
v 0.01211010 -0.04605121 0.01632899
v -0.02139112 0.04271199 0.02057389
v -0.03686719 0.02931374 0.02863776
v -0.04490282 0.01551121 0.02777492
v -0.02788707 -0.03748852 0.02927171
v -0.00497218 -0.04754395 0.01969682
v 0.01445170 0.05615079 0.00118996
v 0.02694813 0.05285794 0.02570684
v 0.02782913 0.06042485 0.01207158
v 0.01086548 0.04438074 0.02982784
v -0.00265618 0.04636702 0.02462059
v 0.05014924 0.05790698 0.02902479
v 0.04390400 0.06830363 0.01525481
v 0.04807845 0.03460687 0.03580825
v 0.08324899 0.03602510 0.04109536
v 0.06511381 0.02371113 0.03786876
v 0.06023367 0.07921857 0.01920004
v 0.05315748 0.07978614 0.00143869
v 0.06571099 0.07717562 0.02697656
v 0.09041691 0.07131333 0.03485611
v 0.07533417 0.07406679 0.03333493
v 0.04627116 0.07277585 -0.00817767
v 0.01782324 0.05423763 -0.01164238
v 0.06679860 0.05368182 -0.03733426
v 0.05425331 -0.00568354 -0.03017013
v 0.06804102 0.07651550 -0.03215846
v 0.05031441 0.06688175 -0.01959810
v 0.06161937 0.07809502 -0.02485622
v 0.04976780 0.05312815 -0.02227401
v 0.05740178 0.08037955 -0.01380415
v 0.03712348 0.06386021 -0.01321879
v 0.02958735 -0.03929642 0.01993145
v -0.04699048 -0.00668955 0.02736585
v -0.04711274 0.00397675 0.02635913
v -0.04277154 -0.02117923 0.02897274
v 0.04654370 -0.01746911 -0.01785605
v 0.08226150 0.07913180 -0.02372835
v 0.10105985 0.07578704 -0.02096414
v 0.09916019 0.07379744 -0.02948759
v 0.07496231 0.07815631 -0.02932441
v 0.07471856 0.08016770 -0.01187364
v 0.11460003 0.06884485 -0.02066709
v 0.08510045 0.07196454 -0.03840709
v 0.10226090 0.06877439 -0.03518996
v 0.07034960 0.08115825 0.00969827
v 0.11107180 0.07185254 0.01607048
v 0.11274005 0.06751450 0.02321858
v 0.12158466 0.06464010 0.00709524
v 0.10363808 0.06814965 0.03129890
v 0.08683613 0.07859774 0.02296465
v 0.10288554 0.07494589 -0.00838773
v 0.10887343 0.07427999 0.00007602
v 0.10271191 0.07509541 0.00493846
v 0.10626843 0.07470689 0.01187854
v 0.08912355 0.07766605 0.01198747
v 0.07984855 0.07910227 0.01205407
v 0.07291681 0.08043861 -0.00111539
v 0.08478788 0.07815001 -0.01800266
v 0.12188991 0.06312268 -0.01486201
v 0.12770095 0.04039397 -0.01729739
v 0.12760292 0.05440265 0.00016508
v 0.13135138 0.02447211 0.00536754
v 0.13141957 -0.00691304 -0.01071719
v 0.11797793 0.05710944 -0.02756196
v 0.12407163 -0.00854315 -0.02758800
v 0.11570861 0.02407294 -0.03561077
v 0.06432703 -0.00696182 -0.03912587
v 0.08454142 0.02011076 -0.04549911
v 0.09800588 0.04686854 -0.04183085
v 0.09992072 0.03225225 0.03959263
v 0.11847550 0.03606980 0.02918151
v 0.10861380 -0.00527833 0.03780913
v 0.12323980 0.05743465 0.01529988
v 0.10707106 -0.00783631 -0.04162890
v 0.08515389 -0.00888510 -0.04598261
v -0.01140393 0.04400858 0.03259041
v 0.00259291 0.04406583 0.03308238
v 0.06533624 -0.00681473 0.03919585
v 0.06216324 0.02459726 0.03858174
v 0.04506237 0.03543613 0.03779333
v 0.08803792 -0.00610547 0.04333375
v 0.11965156 -0.01241987 0.02774638
v 0.12979954 -0.00883134 0.01319647
v 0.10174418 -0.02274642 -0.03960512
v 0.08687213 -0.02829367 -0.04101860
v 0.11860501 -0.02301319 -0.02801385
v 0.12566906 -0.02769072 -0.01394937
v -0.02347670 0.03957652 0.03048502
v -0.04654643 0.00677758 0.02689935
v 0.05576915 0.03089499 0.03991305
v 0.06335577 0.02209229 0.04020670
v 0.08715545 -0.02729675 0.03798250
v 0.10192017 -0.02745472 0.03541299
v 0.11341719 -0.02762967 0.02865441
v 0.12756506 -0.02782689 0.00127831
v 0.09930421 0.07564215 -0.00187230
v 0.07978878 0.07850638 -0.00218023
v 0.08851564 0.07796060 -0.01376718
v 0.06370384 -0.02701521 -0.03303551
v 0.07636841 -0.02768356 -0.03943824
v 0.10544686 -0.03512680 -0.03891088
v 0.12149493 -0.03661817 -0.02562125
v 0.04642629 -0.04160363 -0.01891543
v 0.03066923 -0.03890632 0.03640485
v 0.05158020 -0.03569817 0.03093528
v 0.05530880 -0.03093471 0.03870113
v 0.04279422 -0.03887774 0.02222660
v 0.04738824 -0.04190439 0.02039760
v 0.05023703 -0.05062194 0.02125801
v 0.06093686 -0.03879815 0.03215512
v -0.01594910 -0.04269673 0.03094295
v -0.00236012 -0.04473320 0.03369972
v 0.05766778 0.01741798 0.04729869
v 0.04752453 0.01528827 0.05355367
v -0.03711801 0.01889471 0.03723182
v -0.01152011 0.02312705 0.05165067
v -0.02440713 0.03088482 0.04002122
v -0.02439913 0.00840679 0.04920707
v -0.04129786 0.00004993 0.03712886
v -0.02456595 -0.00606396 0.04888217
v 0.01714242 0.02491325 0.05558890
v 0.06265935 -0.02817281 0.03553374
v 0.06421106 -0.05119937 0.03565168
v 0.08308426 -0.05116994 0.04284620
v 0.12390884 -0.02966383 0.01625860
v 0.12874198 -0.05116900 -0.02112228
v 0.05665525 -0.05095228 -0.03335049
v 0.06734201 -0.05089912 -0.04114797
v 0.08417022 -0.05107449 -0.04595485
v 0.09904157 -0.05087546 -0.04473255
v 0.11295106 -0.05101430 -0.03858726
v 0.13249829 -0.05098285 0.00423942
v 0.04356083 -0.05126696 -0.00789910
v 0.03854196 -0.03955940 -0.00226689
v 0.04304934 -0.04386569 -0.00160870
v 0.12647219 -0.05098899 0.02112934
v 0.11726149 -0.05098852 0.03216450
v 0.10044318 -0.05056271 0.04144738
v 0.06219806 -0.02361568 0.03921292
v 0.04754406 -0.01492002 0.05296512
v 0.05452072 -0.02180510 0.04786536
v -0.02546330 -0.03222739 0.03860094
v -0.02113979 -0.01611178 0.05086898
v -0.00724805 -0.02407822 0.05208681
v 0.02052766 -0.02444915 0.05554113
v 0.04420444 0.01513419 0.05211575
f 1 2 3
f 3 2 4
f 3 4 5
f 5 6 3
f 6 7 3
f 8 9 3
f 7 10 3
f 3 10 8
f 2 11 12
f 1 11 2
f 3 13 1
f 13 3 9
f 9 14 15
f 15 14 16
f 16 17 15
f 18 17 16
f 12 19 2
f 9 8 14
f 14 8 16
f 16 8 10
f 16 10 18
f 7 20 10
f 10 20 18
f 7 21 20
f 6 22 7
f 4 23 5
f 4 24 23
f 2 24 4
f 2 19 24
f 18 20 25
f 26 27 28
f 28 27 29
f 26 30 31
f 28 32 26
f 26 32 30
f 33 32 34
f 30 32 33
f 31 35 36
f 31 30 37
f 38 39 33
f 30 39 37
f 37 35 31
f 36 40 31
f 31 40 27
f 20 29 25
f 25 29 27
f 25 27 40
f 27 26 31
f 33 39 30
f 17 18 25
f 17 41 15
f 42 43 13
f 44 45 46
f 44 47 45
f 42 13 47
f 13 43 1
f 17 25 41
f 9 47 13
f 48 46 40
f 40 46 45
f 40 45 49
f 25 40 49
f 25 49 41
f 41 49 15
f 15 49 9
f 49 45 9
f 9 45 47
f 19 12 50
f 7 22 21
f 51 52 6
f 6 52 22
f 6 53 51
f 53 6 5
f 23 53 5
f 54 11 1
f 55 56 57
f 55 57 58
f 56 55 59
f 60 57 56
f 46 48 58
f 58 44 46
f 57 61 58
f 58 61 44
f 57 62 61
f 57 60 62
f 48 59 58
f 58 59 55
f 63 35 37
f 64 65 66
f 64 67 65
f 68 38 67
f 68 67 64
f 68 39 38
f 37 39 68
f 35 48 36
f 63 37 68
f 59 48 63
f 69 70 56
f 71 70 69
f 70 71 72
f 73 72 71
f 74 68 73
f 73 68 72
f 68 74 63
f 75 63 74
f 75 59 63
f 76 56 59
f 69 56 76
f 60 56 70
f 70 77 60
f 77 70 66
f 35 63 48
f 64 72 68
f 64 66 72
f 72 66 70
f 78 79 80
f 79 78 77
f 79 77 66
f 80 81 78
f 78 82 77
f 82 60 77
f 83 84 78
f 84 82 78
f 85 42 86
f 42 47 44
f 42 44 61
f 62 60 82
f 86 42 61
f 82 84 62
f 62 84 87
f 62 87 61
f 61 87 86
f 38 33 88
f 67 89 65
f 89 67 88
f 89 88 90
f 67 38 88
f 89 91 65
f 91 79 66
f 91 66 65
f 80 79 91
f 80 91 89
f 83 78 81
f 84 83 92
f 92 87 84
f 93 86 92
f 86 87 92
f 93 85 86
f 43 42 85
f 36 48 40
f 94 95 29
f 96 34 97
f 32 98 97
f 34 32 97
f 29 20 94
f 29 95 28
f 98 28 95
f 32 28 98
f 34 96 99
f 33 34 99
f 88 33 99
f 88 99 90
f 90 100 89
f 101 89 100
f 80 89 101
f 80 101 81
f 93 102 103
f 92 104 102
f 105 83 81
f 83 105 104
f 102 93 92
f 92 83 104
f 54 1 43
f 106 94 20
f 20 21 106
f 52 107 22
f 108 97 98
f 109 97 108
f 109 96 97
f 110 99 96
f 111 112 90
f 99 110 111
f 99 111 90
f 112 100 90
f 113 81 101
f 69 114 71
f 114 73 71
f 74 73 115
f 74 115 75
f 59 75 115
f 115 116 59
f 59 116 76
f 76 116 69
f 114 116 115
f 69 116 114
f 73 114 115
f 85 117 43
f 117 85 118
f 118 85 93
f 118 93 103
f 54 43 117
f 113 105 81
f 103 102 119
f 119 102 104
f 119 104 120
f 120 104 105
f 117 121 54
f 19 50 122
f 123 124 122
f 123 122 50
f 123 50 125
f 123 125 126
f 127 128 126
f 126 128 123
f 24 129 23
f 24 130 129
f 24 122 130
f 19 122 24
f 109 131 96
f 108 132 131
f 133 134 135
f 133 136 134
f 136 133 137
f 136 137 138
f 133 107 137
f 133 22 107
f 133 21 22
f 21 133 135
f 21 135 106
f 131 109 108
f 108 139 132
f 94 135 134
f 94 134 139
f 139 108 98
f 139 98 95
f 139 95 94
f 135 94 106
f 140 123 128
f 127 141 128
f 142 110 128
f 128 141 142
f 110 140 128
f 96 140 110
f 143 101 100
f 101 143 113
f 143 100 112
f 144 120 105
f 145 117 146
f 146 117 118
f 147 146 118
f 147 118 103
f 148 147 103
f 148 103 119
f 149 148 119
f 144 149 120
f 120 149 119
f 150 144 105
f 150 105 113
f 151 121 145
f 145 121 117
f 12 121 152
f 12 152 50
f 50 152 125
f 126 125 152
f 121 153 152
f 153 126 152
f 127 126 151
f 126 153 151
f 121 151 153
f 144 142 141
f 144 141 127
f 142 144 150
f 142 154 155
f 145 146 144
f 146 147 144
f 144 147 149
f 151 145 144
f 142 150 154
f 142 155 156
f 149 147 148
f 127 151 144
f 123 140 124
f 124 140 157
f 140 96 157
f 158 131 132
f 159 157 96
f 159 124 157
f 129 130 160
f 129 160 23
f 23 160 53
f 51 53 137
f 51 137 107
f 161 138 137
f 160 162 161
f 163 162 130
f 158 163 159
f 162 160 130
f 163 130 122
f 159 131 158
f 96 131 159
f 124 159 122
f 122 159 163
f 160 161 53
f 53 161 137
f 158 132 164
f 134 164 139
f 139 164 132
f 110 142 156
f 155 112 156
f 156 112 111
f 156 111 110
f 112 154 143
f 155 154 112
f 154 150 113
f 154 113 143
f 121 11 54
f 158 162 163
f 138 161 162
f 162 164 134
f 162 134 138
f 162 158 164
f 138 134 136
f 121 12 11

