# https://github.com/mikedh/trimesh
v -0.02413444 -0.00950996 -0.05311913
v -0.03632858 -0.01222133 -0.04939447
v -0.04363845 -0.01140463 -0.03721232
v 0.05408263 -0.00068107 -0.00918424
v 0.04353017 -0.00077268 -0.03398310
v -0.01236330 -0.00049905 0.05412075
v 0.03334624 -0.00061802 0.04398374
v 0.01665558 -0.00051342 0.05284066
v -0.01818102 -0.00060437 -0.05280778
v -0.04304438 -0.00064749 -0.03473451
v 0.02165311 -0.00042402 -0.05134803
v -0.05484027 -0.00055380 -0.00911658
v -0.05145267 -0.00049914 0.02041643
v -0.03347377 -0.00074290 0.04408355
v 0.05122716 -0.00049952 0.02091444
v 0.01873160 -0.06495918 0.05182182
v 0.03653312 -0.06293848 0.04184596
v -0.03044990 -0.06526577 0.04659222
v 0.05282389 -0.06336036 0.01859493
v -0.00289791 -0.06596291 0.05530845
v -0.05032875 -0.06531867 0.02339194
v -0.05504849 -0.06257965 0.00272428
v -0.05024809 -0.02093373 -0.03123914
v -0.00569768 -0.00603014 -0.05689690
v 0.00430128 -0.00947040 -0.06256864
v -0.05496652 -0.01777076 -0.09259768
v -0.05447128 -0.04150970 -0.06196976
v -0.04862316 -0.02151034 -0.06337066
v -0.05263552 -0.03320714 -0.03067454
v -0.02705480 -0.00990303 -0.06710201
v -0.04289006 -0.01684687 -0.05478497
v -0.03361650 -0.00450157 -0.08095791
v -0.00378344 -0.00331667 -0.07744512
v -0.05462559 -0.00448730 -0.10326412
v -0.04321541 0.00027210 -0.09086056
v 0.00895113 -0.09449858 -0.05590031
v -0.00448725 -0.11346783 -0.04142446
v -0.01500497 -0.09099419 -0.05656543
v -0.05122677 -0.02400267 -0.11207941
v -0.04924694 -0.07224071 -0.02912908
v -0.04696204 -0.10714942 -0.00026028
v -0.00044760 -0.06966234 -0.08828557
v -0.00790148 -0.07644475 -0.07612916
v -0.02152220 -0.05841184 -0.10324517
v -0.02409956 -0.06887642 -0.07750349
v -0.03506367 -0.08314785 -0.04820798
v -0.03741747 -0.05738937 -0.08092368
v -0.02193637 -0.11669877 -0.03219615
v -0.03950810 -0.10745554 -0.02578957
v -0.00579419 -0.05678634 -0.13468423
v 0.00278113 -0.06024991 -0.11320888
v -0.02688513 -0.05051787 -0.13151734
v -0.03882685 -0.04328155 -0.11413477
v -0.00869254 -0.10735093 0.04592437
v -0.03111375 -0.10738569 0.03507021
v -0.03827016 -0.11030023 0.02503313
v 0.01652432 -0.10705326 0.04406728
v 0.04478715 -0.10728581 0.01370527
v 0.04695057 -0.10679986 -0.00307530
v 0.03458246 -0.10746662 0.03103976
v 0.00385674 -0.12762205 -0.01857122
v 0.01717435 -0.12766469 -0.00082162
v -0.00525037 -0.12953357 0.00217410
v -0.03008204 -0.12236015 -0.00538317
v -0.00612756 -0.11758403 0.03672756
v 0.02002276 -0.11608177 0.03279747
v 0.03162856 -0.11880057 0.01499520
v 0.03660849 -0.11717437 -0.00742373
v 0.04213305 -0.10752963 -0.01921995
v 0.03181531 -0.11088377 -0.03089296
v -0.02217397 -0.12479159 0.01258043
v 0.01027519 -0.12643284 0.01893950
v 0.01594076 -0.11357378 -0.03859333
v 0.03693768 -0.01227006 -0.04918462
v 0.03288798 -0.00884272 -0.04653371
v 0.04774842 -0.01516251 -0.03245725
v 0.01598368 -0.00805217 -0.05503909
v 0.03831292 -0.01177297 -0.06661852
v 0.03562973 0.00404710 -0.09020246
v 0.04841762 -0.01246453 -0.08115926
v 0.05086942 -0.00567004 -0.09361425
v 0.05469644 -0.05365938 -0.02824820
v 0.05531304 -0.00173503 -0.11200175
v 0.05138347 -0.03220144 -0.04766023
v 0.04670298 -0.02193975 -0.04665119
v 0.01385315 0.00081826 -0.08178747
v 0.03506093 -0.00795165 -0.07583235
v 0.05182509 -0.02311291 -0.10918272
v 0.01265297 -0.07367577 -0.07753851
v 0.04032414 -0.04174163 -0.11068338
v 0.02959816 -0.07167444 -0.06729486
v 0.02333194 -0.05412643 -0.11470468
v 0.04820352 -0.07097170 -0.03346242
v 0.04055591 -0.06763500 -0.05745953
v 0.03365636 -0.09367242 -0.04160983
v -0.05408173 -0.01241171 -0.19198771
v -0.04365109 -0.03340127 -0.19195792
v -0.00206621 -0.05537544 -0.19202030
v -0.02560429 -0.04873540 -0.19191931
v -0.03908886 0.03963033 -0.19188789
v -0.02461141 0.04977528 -0.12506336
v -0.01056251 0.05470971 -0.19202209
v -0.03852207 0.03818992 -0.11730081
v -0.05207017 0.01789739 -0.11466005
v -0.05326501 0.01499289 -0.19199386
v -0.00006031 0.05504750 -0.12413139
v 0.04282341 -0.03432842 -0.19198541
v 0.05479223 -0.00946335 -0.19177184
v 0.02459959 -0.04951465 -0.19177009
v 0.04029708 0.03656564 -0.11874646
v 0.02629338 0.04977576 -0.19195446
v 0.03044020 0.04523110 -0.12049433
v 0.01659471 0.05240485 -0.12581360
v 0.05055029 0.02135881 -0.11559292
v 0.05098773 0.02230614 -0.19202402
v -0.00053872 0.03782208 -0.09966803
v 0.03863943 0.02861546 -0.10578595
v 0.01255659 0.04367815 -0.10579526
v -0.00784332 0.04777117 -0.10953838
v -0.03323185 0.02825752 -0.10172075
f 1 2 3
f 4 5 6
f 7 6 8
f 9 10 6
f 6 5 11
f 6 10 12
f 6 12 13
f 6 13 14
f 6 11 9
f 6 7 15
f 6 15 4
f 7 16 17
f 16 7 8
f 6 14 18
f 15 19 4
f 7 17 19
f 7 19 15
f 20 16 8
f 20 8 6
f 6 18 20
f 18 14 21
f 13 21 14
f 13 22 21
f 12 22 13
f 23 12 3
f 3 12 10
f 1 24 25
f 3 10 1
f 1 10 9
f 1 9 24
f 26 27 28
f 29 27 22
f 2 1 30
f 2 23 3
f 12 23 29
f 2 30 31
f 32 30 25
f 32 25 33
f 2 31 23
f 28 31 32
f 28 29 31
f 26 28 34
f 34 28 35
f 35 28 32
f 22 12 29
f 28 27 29
f 29 23 31
f 32 31 30
f 30 1 25
f 36 37 38
f 27 26 39
f 40 22 27
f 22 40 41
f 42 43 44
f 44 43 45
f 45 46 47
f 46 38 48
f 43 38 45
f 48 38 37
f 40 49 41
f 46 49 40
f 48 49 46
f 39 26 34
f 50 51 52
f 52 44 53
f 27 39 47
f 47 39 53
f 52 51 42
f 52 42 44
f 53 44 47
f 27 47 46
f 27 46 40
f 44 45 47
f 46 45 38
f 38 43 36
f 18 54 20
f 18 55 54
f 56 55 21
f 22 41 21
f 56 21 41
f 18 21 55
f 57 20 54
f 20 57 16
f 58 59 19
f 19 60 58
f 17 60 19
f 17 57 60
f 16 57 17
f 61 62 63
f 41 49 64
f 56 41 64
f 65 55 56
f 65 54 55
f 65 57 54
f 66 57 65
f 66 60 57
f 67 60 66
f 67 58 60
f 68 58 67
f 58 68 59
f 68 69 59
f 70 69 68
f 49 48 64
f 64 71 56
f 66 72 67
f 67 62 68
f 68 62 61
f 68 61 70
f 70 61 73
f 73 61 37
f 37 61 48
f 56 71 65
f 65 71 72
f 65 72 66
f 72 62 67
f 48 61 64
f 72 63 62
f 61 63 64
f 64 63 71
f 71 63 72
f 9 11 24
f 74 75 76
f 24 11 77
f 4 76 5
f 5 76 75
f 74 25 77
f 74 77 75
f 25 24 77
f 75 77 11
f 75 11 5
f 25 74 78
f 79 80 81
f 82 83 84
f 84 83 81
f 74 76 85
f 79 86 87
f 78 87 33
f 25 78 33
f 4 19 82
f 4 82 76
f 76 82 84
f 80 78 85
f 80 85 84
f 87 78 80
f 87 80 79
f 85 76 84
f 80 84 81
f 74 85 78
f 33 87 86
f 73 37 36
f 82 19 59
f 83 82 88
f 89 36 43
f 90 91 92
f 92 91 89
f 89 51 92
f 89 42 51
f 89 91 36
f 89 43 42
f 88 93 94
f 94 93 95
f 93 82 59
f 93 59 69
f 69 70 95
f 69 95 93
f 95 91 94
f 94 90 88
f 82 93 88
f 91 90 94
f 36 91 95
f 36 95 73
f 73 95 70
f 34 96 39
f 97 39 96
f 52 53 97
f 97 53 39
f 98 50 99
f 100 101 102
f 103 101 100
f 100 104 103
f 96 34 105
f 105 34 104
f 102 101 106
f 104 100 105
f 99 50 52
f 99 52 97
f 88 107 108
f 98 109 50
f 88 90 107
f 108 83 88
f 110 111 112
f 112 111 113
f 111 106 113
f 102 106 111
f 110 114 115
f 111 110 115
f 83 108 115
f 83 115 114
f 92 109 90
f 51 50 109
f 51 109 92
f 107 90 109
f 116 33 86
f 81 83 114
f 117 81 114
f 117 79 81
f 118 86 79
f 112 113 118
f 113 106 118
f 116 86 118
f 119 116 118
f 117 118 79
f 117 114 110
f 110 112 117
f 106 119 118
f 112 118 117
f 104 120 103
f 34 35 104
f 120 104 35
f 32 33 35
f 116 120 33
f 33 120 35
f 101 103 119
f 119 103 120
f 106 101 119
f 116 119 120
f 100 109 98
f 98 96 105
f 109 100 107
f 107 100 102
f 111 108 107
f 98 105 100
f 102 111 107
f 111 115 108
f 96 98 99
f 99 97 96

