# https://github.com/mikedh/trimesh
v -0.02990776 0.08487859 -0.14222743
v -0.03095217 0.09904047 -0.05396732
v -0.02982877 0.07656968 -0.19164090
v 0.03023914 0.08418247 -0.14744197
v 0.03041595 0.07700197 -0.18824661
v 0.03047317 0.09890660 -0.06060788
v -0.01420658 0.07430383 -0.20934586
v 0.00001668 0.08367109 -0.20737502
v 0.01131365 0.07318695 -0.21097642
v 0.01551976 0.08675528 -0.20060702
v 0.02335025 0.07126339 -0.20557542
v 0.02569880 0.08715244 -0.18799926
v -0.02782484 0.08768068 -0.18103050
v -0.03085224 0.11067845 -0.05298753
v -0.04783530 0.10688395 -0.01299005
v 0.04860118 0.07995075 0.00995519
v 0.05047343 0.10679629 0.00362412
v 0.03968168 0.10155479 0.03447181
v 0.03791142 0.07298201 0.03121976
v 0.02188149 0.06914485 0.04388424
v 0.01134453 0.10021737 0.05156079
v 0.00381530 0.06753585 0.04907328
v -0.01389140 0.09989419 0.05053772
v -0.02309472 0.06916088 0.04331726
v -0.03238167 0.10097583 0.04071799
v -0.04373212 0.07580628 0.02271068
v -0.04704172 0.10307658 0.02166175
v -0.05015118 0.10593555 -0.00188317
v 0.03003673 0.11069388 -0.05470091
v 0.03444564 0.09626671 -0.04157566
v 0.04647573 0.08763351 -0.01414413
v 0.04800092 0.10715696 -0.01460899
v -0.01507424 0.08738157 -0.20045301
v 0.01507892 0.09643168 -0.16983159
v 0.00499311 0.09330980 -0.17901918
v -0.01723427 0.11567764 -0.05966527
v -0.01574198 0.09785423 -0.15943554
v -0.04191658 0.11698780 -0.00567265
v -0.03268258 0.12401627 -0.00730397
v 0.02972204 0.12612845 0.01350955
v 0.00777869 0.12792249 0.02916323
v 0.00857968 0.11589132 0.04117258
v 0.02571264 0.11869245 0.02948169
v 0.03262126 0.12380247 -0.00859600
v -0.01793032 0.11904155 0.03553161
v -0.02807387 0.12620255 0.01471856
v -0.01258584 0.12779449 0.02580985
v 0.01787886 0.11658712 -0.05059093
v -0.00965423 0.09328414 -0.17651108
v 0.01149108 0.09347819 -0.17143704
v -0.01513874 0.11385144 -0.05977265
v -0.00432013 0.09886432 -0.15103292
v -0.00491918 0.11406439 -0.06929291
v 0.02160470 0.12912601 0.00260012
v -0.01717223 0.13049100 -0.00320646
v 0.00687777 0.13231099 -0.00462080
v -0.05265271 0.00836172 -0.21793206
v -0.05349042 -0.00979162 -0.23517600
v -0.04501778 -0.01831850 -0.20190535
v -0.03625184 0.05919858 -0.16162053
v -0.04782656 -0.00385247 -0.19596827
v -0.04572776 -0.02841020 -0.22831526
v -0.05208049 -0.01756211 -0.25873274
v -0.03208698 -0.04389182 -0.25872618
v -0.04440017 0.03550683 -0.25892338
v -0.03331830 0.04852739 -0.23647428
v -0.01738418 0.05465265 -0.25899366
v -0.03464520 0.05485424 -0.21522577
v -0.03140234 0.07630639 -0.13520353
v -0.04678913 0.03336727 -0.22946472
v 0.00461003 0.05649200 -0.25820366
v -0.01026263 0.05843513 -0.24033104
v -0.01213050 0.06509925 -0.22284542
v -0.03437655 -0.04190718 -0.23664483
v -0.02163399 -0.04587002 -0.21373844
v -0.03706960 -0.03195625 -0.20592077
v -0.00200296 -0.05400887 -0.25884107
v 0.00550307 -0.04985789 -0.21283773
v -0.01738432 -0.05045773 -0.23977295
v -0.02596355 -0.03847362 -0.20297149
v -0.05476672 0.00972796 -0.25872391
v 0.03178792 0.07335522 -0.14074829
v 0.03815681 0.05111125 -0.16742079
v 0.04363086 0.04284516 -0.21336497
v 0.01562236 0.05960816 -0.23041420
v 0.05107580 -0.02017445 -0.25858536
v 0.03546054 -0.04070075 -0.22714889
v 0.02944051 -0.04518486 -0.25902635
v 0.01530092 -0.05070437 -0.23402947
v 0.05547635 0.00532195 -0.25878218
v 0.05008006 0.02611305 -0.25885296
v 0.03524579 0.04760713 -0.23519498
v 0.02946956 0.04870708 -0.25878701
v 0.05503043 0.00115333 -0.23176767
v 0.03062334 -0.03908049 -0.20891288
v 0.04458211 -0.02405771 -0.20684454
v 0.04668224 -0.00536585 -0.19383693
v 0.03106518 0.08926108 -0.05435583
v 0.03358468 0.08196434 -0.04168465
v -0.04791800 0.01771694 -0.00028410
v -0.04291113 0.01768675 -0.02271684
v -0.04249408 0.01765700 0.02318835
v -0.02358864 0.01796138 0.04248416
v -0.02648840 0.01774352 -0.04016067
v -0.00455323 0.07110162 -0.04940081
v -0.00824811 0.01766048 -0.04808387
v -0.03365098 0.06835983 -0.03529515
v 0.03388117 0.06922273 -0.03574099
v 0.02555845 0.01800466 -0.04148672
v 0.01588231 0.07292815 -0.04701070
v 0.02786237 0.01796541 0.03997028
v 0.04555561 0.01770000 0.01480191
v 0.04719529 0.01769187 -0.01096476
v 0.00000000 0.01770000 0.04790000
v -0.03207142 0.08845737 -0.04793022
v 0.02303537 0.06824113 -0.12636250
v 0.00097121 0.07701682 -0.05556495
v 0.02249051 0.08033504 -0.05553530
v -0.02788716 0.07825126 -0.04521894
v -0.02454434 0.08102947 -0.05490020
v -0.00058498 -0.03726421 -0.19164306
v -0.03056656 -0.02018480 -0.18698342
v 0.01453977 -0.01168087 -0.17538238
v -0.01669553 -0.00991371 -0.17511784
v -0.03711931 -0.00093823 -0.18093359
v -0.03599565 0.03248082 -0.16967441
v -0.02199814 0.04241938 -0.15513238
v -0.01279484 0.06245728 -0.13490042
v -0.02817159 0.06057953 -0.14418469
v -0.02602035 0.06880835 -0.12995413
v 0.02570506 0.06438844 -0.13741118
v 0.02962515 0.04469200 -0.15707496
v 0.01127091 0.04377430 -0.15262584
v 0.03064480 -0.01564110 -0.18349385
v 0.01530772 -0.03909935 -0.19734761
f 1 2 3
f 4 5 6
f 7 8 9
f 9 8 10
f 9 10 11
f 10 12 11
f 11 12 5
f 13 3 2
f 13 2 14
f 14 2 15
f 16 17 18
f 16 18 19
f 19 18 20
f 20 18 21
f 21 22 20
f 22 21 23
f 23 24 22
f 24 23 25
f 24 25 26
f 26 25 27
f 27 28 26
f 6 29 30
f 30 29 31
f 31 29 32
f 17 16 32
f 32 16 31
f 29 6 5
f 29 5 12
f 3 13 33
f 3 33 7
f 7 33 8
f 8 33 10
f 12 10 34
f 10 35 34
f 35 10 33
f 36 37 14
f 14 37 13
f 15 28 38
f 38 14 15
f 36 14 39
f 39 14 38
f 18 17 40
f 41 42 43
f 40 41 43
f 44 40 17
f 40 43 18
f 18 43 42
f 18 42 21
f 45 23 42
f 42 23 21
f 25 23 45
f 46 27 45
f 45 27 25
f 38 27 46
f 38 28 27
f 39 38 46
f 45 47 46
f 41 45 42
f 45 41 47
f 44 32 29
f 29 48 44
f 32 44 17
f 29 12 34
f 29 34 48
f 49 35 33
f 37 49 33
f 33 13 37
f 50 34 35
f 36 39 51
f 34 50 48
f 52 37 53
f 53 37 36
f 52 50 35
f 53 50 52
f 50 53 48
f 54 40 44
f 55 39 46
f 51 48 53
f 56 44 48
f 56 41 54
f 51 56 48
f 44 56 54
f 41 40 54
f 55 46 47
f 41 56 47
f 47 56 55
f 39 55 51
f 56 51 55
f 51 53 36
f 49 37 52
f 35 49 52
f 57 58 59
f 60 57 61
f 62 63 64
f 65 66 67
f 7 68 3
f 1 60 69
f 66 65 70
f 71 67 72
f 67 66 72
f 66 68 7
f 66 73 72
f 74 75 76
f 77 78 79
f 79 78 75
f 80 76 75
f 61 57 59
f 74 64 77
f 79 74 77
f 64 74 62
f 62 58 63
f 57 60 1
f 65 81 70
f 70 81 57
f 58 62 59
f 58 57 81
f 70 3 68
f 70 57 1
f 70 1 3
f 81 63 58
f 74 79 75
f 74 76 62
f 62 76 59
f 70 68 66
f 66 7 73
f 82 83 4
f 84 11 5
f 85 9 11
f 85 73 7
f 85 7 9
f 73 85 72
f 86 87 88
f 78 77 89
f 84 90 91
f 92 84 91
f 92 91 93
f 93 71 85
f 71 72 85
f 93 85 92
f 92 11 84
f 85 11 92
f 94 84 5
f 4 94 5
f 4 83 94
f 95 78 87
f 87 96 95
f 87 78 89
f 87 89 88
f 88 89 77
f 96 87 86
f 96 86 94
f 94 86 90
f 94 83 97
f 94 97 96
f 84 94 90
f 4 6 82
f 6 98 82
f 30 99 98
f 99 30 31
f 98 6 30
f 100 28 15
f 26 28 100
f 100 15 101
f 100 102 26
f 103 24 26
f 104 105 106
f 105 104 107
f 108 109 110
f 111 19 20
f 16 112 113
f 16 113 31
f 109 108 113
f 108 31 113
f 110 109 106
f 106 105 110
f 101 15 107
f 101 107 104
f 103 26 102
f 24 103 22
f 114 22 103
f 111 20 114
f 114 20 22
f 16 19 112
f 19 111 112
f 15 2 115
f 69 115 1
f 1 115 2
f 98 116 82
f 31 108 99
f 114 103 104
f 114 104 111
f 112 111 104
f 109 113 104
f 104 113 112
f 106 109 104
f 102 100 104
f 104 100 101
f 104 103 102
f 117 118 110
f 118 98 99
f 110 105 117
f 108 110 99
f 99 110 118
f 15 115 107
f 115 119 107
f 105 107 119
f 119 120 105
f 120 119 115
f 120 117 105
f 86 77 67
f 71 93 91
f 86 88 77
f 67 71 91
f 67 91 90
f 67 90 86
f 77 64 67
f 67 64 63
f 67 63 81
f 81 65 67
f 78 121 75
f 80 75 121
f 122 76 80
f 122 59 76
f 61 59 122
f 121 123 124
f 80 121 122
f 122 125 61
f 124 125 122
f 124 122 121
f 61 125 126
f 126 60 61
f 125 127 126
f 125 124 127
f 127 128 129
f 130 69 129
f 129 69 60
f 126 127 129
f 126 129 60
f 129 128 130
f 83 82 131
f 83 131 132
f 132 131 133
f 82 116 131
f 133 123 134
f 132 133 134
f 83 132 97
f 97 132 134
f 78 95 135
f 97 134 96
f 135 95 134
f 134 95 96
f 121 78 135
f 121 135 134
f 123 121 134
f 116 98 118
f 118 128 116
f 120 128 117
f 117 128 118
f 115 69 120
f 120 69 130
f 120 130 128
f 133 124 123
f 133 127 124
f 133 128 127
f 128 131 116
f 133 131 128

