# https://github.com/mikedh/trimesh
v -0.01663151 -0.06783332 0.03444660
v 0.01089218 -0.06935225 0.01345184
v 0.00219277 -0.06888684 0.08540428
v -0.01765858 -0.06737404 0.05880020
v -0.02395020 -0.06516490 0.04259676
v -0.02018463 -0.06762207 0.02702933
v -0.03064175 -0.06521673 0.02959749
v -0.12001371 -0.04920965 0.01008660
v -0.02172129 -0.06690194 0.07017417
v -0.05012533 -0.06014743 0.07532843
v -0.03195463 -0.06381426 0.06714897
v -0.03022523 -0.06565461 0.05782012
v -0.05231535 -0.05992046 0.04474221
v -0.05340838 -0.06004132 0.05328893
v -0.06078325 -0.05851120 0.05964741
v -0.06909245 -0.05845550 0.03778445
v -0.07484152 -0.05626443 0.04502965
v -0.07160930 -0.05696188 0.05694899
v -0.11226021 -0.05007394 0.05538731
v -0.02819989 -0.06636516 0.03857788
v -0.06013700 -0.05990244 0.03697147
v -0.12251934 -0.03778186 0.04903736
v -0.12328980 -0.00458479 0.06105033
v -0.13175482 0.00065266 0.03930214
v -0.04551124 -0.05229844 0.09326928
v -0.12746330 -0.04196483 0.01113866
v -0.05813235 -0.03555727 0.10435347
v -0.11577186 -0.03987754 0.06167806
v -0.13519213 0.00009547 0.01032454
v -0.07015178 -0.00782282 0.10483419
v -0.04847936 -0.04735370 0.10621376
v -0.02705680 -0.05574994 0.10536721
v 0.00424844 -0.06127952 0.09394260
v 0.00731474 -0.05815341 0.10488129
v -0.05827037 -0.07675096 0.04037481
v -0.05542807 -0.07594214 0.05173326
v -0.06888878 -0.07377230 0.05904210
v -0.07546608 -0.07258205 0.04195959
v -0.06922268 -0.07371831 0.03691850
v -0.07702898 -0.07245645 0.05127453
v -0.02558740 0.07425535 0.02939381
v -0.03238115 0.07345302 0.03700572
v -0.01839449 0.07556440 0.03765233
v -0.02710592 0.07422133 0.04432710
v -0.01683607 0.06787994 0.03895928
v -0.02485297 0.06626413 0.02932533
v -0.03155780 0.06449370 0.03342352
v -0.02853779 0.06583072 0.04347217
v -0.03178995 0.06421468 0.04230931
v -0.05370005 0.05945963 0.07502759
v -0.11278735 0.04937803 0.05675872
v -0.12182260 0.04879878 0.00978187
v 0.01078106 0.07211187 0.01024928
v 0.00242259 0.06889967 0.08485562
v 0.00482921 0.07356117 0.08166985
v 0.01936211 0.07483359 0.01004694
v 0.01000658 0.07194624 0.08098982
v 0.00411956 0.09335107 0.00953832
v 0.06023818 -0.00282541 0.12804395
v 0.05970075 -0.00983263 0.09405991
v 0.05999485 0.00108993 0.09108580
v 0.05731410 -0.00054666 0.13422793
v 0.05569100 0.00728660 0.14002195
v 0.05631494 -0.00792920 0.13981530
v 0.05947405 0.01037721 0.12581436
v 0.05816867 0.01591767 0.09781889
v 0.05624001 -0.01800912 0.13898683
v -0.05582015 0.02019169 0.13972762
v -0.07449204 0.00878382 0.10726780
v -0.07444364 0.00889222 0.12961763
v -0.07421801 -0.00903147 0.12986012
v 0.05129084 0.02871681 0.13919520
v -0.01135673 0.05760244 0.13983597
v 0.01191644 -0.05767206 0.13939901
v 0.04282038 -0.04155511 0.13870093
v 0.03583822 0.04687037 0.13896251
v -0.01945382 -0.05550636 0.13946441
v -0.05423209 -0.02195487 0.13959378
v -0.03780210 0.04458310 0.13922092
v -0.04093482 -0.04147775 0.13973235
v 0.05887242 0.00705948 0.13549061
v 0.01494004 0.05748139 0.13794900
v -0.06462078 0.03114981 0.10693431
v -0.04400079 0.05083473 0.10686342
v 0.00346283 0.05996572 0.10706975
v -0.02246965 0.05662896 0.10568492
v -0.07499749 -0.00801319 0.10744072
v -0.14445965 0.04192414 0.01700320
v -0.14115041 0.03375804 0.01684602
v -0.13599718 0.04639915 0.01712969
v -0.13165177 0.03753531 0.01677655
v 0.05484703 -0.01898194 0.08540765
v 0.05237920 -0.02939342 0.10590344
v 0.04658545 -0.03157126 0.10410512
v 0.05226213 0.02958388 0.10601336
v 0.05460360 0.01928551 0.08537343
v 0.04661702 0.03159133 0.10409099
v 0.03170452 0.05097563 0.10582463
v 0.00571476 0.05670356 0.10462070
v 0.05800313 0.00043613 0.08479137
v 0.03244231 -0.05059537 0.10598543
v -0.06668036 0.02163315 0.10488068
v -0.03791368 0.04947219 0.10307774
v -0.05345568 0.03967708 0.10441626
v -0.06596913 -0.02861224 0.10714377
v 0.00122789 0.06076352 0.09484602
v -0.00997785 0.07342868 0.01716205
v -0.00534663 0.08373563 0.01717476
v -0.01776280 0.08295541 0.01692550
v -0.13153100 -0.03826967 0.01701596
v -0.14531255 -0.04004902 0.01678629
v -0.13592763 -0.04674603 0.01681760
v -0.13809152 -0.03325098 0.01701030
v 0.03098984 0.04626429 0.10481001
v 0.04402037 0.05650656 0.00092616
v 0.04896434 0.03720900 0.04144467
v 0.06784321 0.02609714 0.00129532
v 0.01881511 0.05479346 0.09751747
v 0.02524502 0.07066995 0.00065459
v 0.00626135 0.09379472 0.00016792
v -0.00626978 -0.07472169 0.01697444
v -0.01680960 -0.07704485 0.01692738
v -0.01572832 -0.08503916 0.01688105
v -0.00642425 -0.08498594 0.01683330
v -0.10811297 -0.06786042 0.01563316
v -0.10767208 -0.05990551 0.01548275
v -0.11413610 -0.06358373 0.01562943
v -0.13754794 -0.06597751 -0.00000959
v 0.00575689 -0.09442070 0.00017759
v -0.13420564 0.06810045 0.00000137
v -0.15227322 -0.02903290 -0.00000029
v -0.15180194 0.03562810 0.00006630
v -0.15096419 0.02863559 0.00879915
v -0.13650629 0.06515743 0.00826853
v -0.15284602 -0.01425415 0.00899500
v -0.13076539 0.03653201 0.00984580
v -0.14334470 0.03487277 0.00893077
v -0.14159663 0.04614133 0.00876663
v -0.13319008 0.04457169 0.00889157
v -0.11821187 0.02914897 0.06372830
v -0.12262014 0.03828142 0.04793419
v 0.05109869 -0.03659988 0.03314206
v 0.05186032 -0.04993758 0.00099931
v 0.07011519 -0.01932986 0.00139132
v 0.02892111 -0.04751255 0.10489617
v 0.05735559 0.01232951 0.06685244
v 0.06410190 0.01044043 0.02730564
v 0.05950085 -0.01797638 0.03929578
v 0.02573192 -0.07012617 0.00070533
v -0.13508140 -0.06645875 0.00816218
v 0.00538204 -0.09265835 0.00942761
v -0.14638369 -0.04177844 0.00879630
v -0.00479850 0.07677244 0.00981059
v -0.01385458 0.07332724 0.00976831
v -0.01741998 0.08218920 0.00958180
v -0.00902200 0.08721226 0.00960096
v -0.13769451 -0.04704460 0.00879578
v -0.14011455 -0.03342464 0.00899213
v -0.13093399 -0.03844526 0.00943492
v 0.01278988 -0.07083350 0.07703764
v 0.01977506 -0.05682480 0.09140344
v 0.01188583 -0.07033623 0.07969734
v 0.02070075 -0.07174333 0.01389149
v 0.02079602 -0.07327139 0.01036929
v 0.00922660 -0.06983815 0.08428281
v -0.00698705 -0.08626122 0.00963991
v -0.00548296 -0.07604998 0.00981200
v -0.01685534 -0.08362984 0.00956748
v -0.01443941 -0.07353009 0.00976000
v -0.10540693 -0.06528828 0.00886013
v -0.11300924 -0.06778554 0.00873266
v -0.11074552 -0.05966564 0.00891463
v 0.01272784 -0.07045143 0.07685603
v 0.01284826 -0.07046985 0.07614884
v 0.00990899 -0.07044994 0.01218312
v 0.01081681 -0.07367560 0.01015502
v 0.00753707 -0.07405735 0.08165725
v 0.01893144 -0.07487530 0.01012404
v 0.02035610 -0.07259107 0.01154915
v 0.01192832 -0.07032193 0.07951616
v 0.01212536 -0.07035384 0.07901523
v 0.01151447 -0.07025491 0.08039623
v -0.01863568 -0.07609841 0.03137419
v -0.02766252 -0.07470729 0.03967582
v -0.02340571 -0.07528055 0.02619069
v -0.03240239 -0.07391659 0.03216375
v -0.02096082 -0.07356677 0.03898131
v -0.02855365 -0.07381244 0.02697194
v -0.03032498 -0.07421424 0.06830742
v -0.03221063 -0.07365335 0.06094960
v -0.02086888 -0.07597467 0.05736347
v -0.01838881 -0.07614906 0.06493636
v -0.02635445 -0.07076567 0.05595360
f 1 2 3
f 4 5 1
f 6 7 8
f 2 1 6
f 6 8 2
f 9 3 10
f 9 10 11
f 4 1 3
f 4 3 9
f 4 12 5
f 5 12 13
f 13 12 14
f 14 12 11
f 14 11 15
f 16 17 8
f 18 10 19
f 18 19 17
f 11 10 18
f 13 7 20
f 13 20 5
f 18 15 11
f 13 21 7
f 7 21 8
f 8 21 16
f 19 8 17
f 22 23 24
f 10 25 19
f 26 19 22
f 25 27 19
f 19 27 28
f 23 22 28
f 29 26 24
f 24 26 22
f 28 22 19
f 30 28 27
f 23 28 30
f 26 8 19
f 25 31 27
f 25 32 31
f 32 33 34
f 33 10 3
f 32 25 33
f 33 25 10
f 35 36 37
f 38 39 35
f 37 40 35
f 35 40 38
f 37 18 40
f 37 15 18
f 36 15 37
f 36 14 15
f 35 13 36
f 39 21 35
f 35 21 13
f 21 39 16
f 39 38 16
f 18 17 40
f 40 17 38
f 13 14 36
f 16 38 17
f 41 42 43
f 42 44 43
f 43 45 41
f 41 45 46
f 41 46 47
f 41 47 42
f 48 42 47
f 42 48 44
f 44 48 45
f 44 45 43
f 48 47 49
f 49 50 48
f 49 51 50
f 52 47 46
f 52 46 53
f 54 45 48
f 47 51 49
f 52 51 47
f 53 46 45
f 53 45 54
f 54 48 50
f 54 55 53
f 53 55 56
f 57 56 55
f 57 55 54
f 58 53 56
f 59 60 61
f 62 63 64
f 65 59 61
f 65 61 66
f 59 67 60
f 68 69 70
f 71 68 70
f 72 73 63
f 64 74 67
f 67 74 75
f 72 76 73
f 64 63 68
f 77 74 78
f 68 78 74
f 73 79 68
f 68 63 73
f 68 74 64
f 78 80 77
f 62 81 63
f 63 81 72
f 76 82 73
f 83 69 68
f 79 84 83
f 85 86 73
f 83 68 79
f 84 73 86
f 73 84 79
f 69 87 70
f 70 87 71
f 71 78 68
f 87 78 71
f 88 89 90
f 89 91 90
f 92 93 94
f 95 96 97
f 95 97 98
f 99 85 98
f 96 95 66
f 61 100 66
f 81 65 72
f 65 66 95
f 65 81 59
f 62 59 81
f 59 62 67
f 67 62 64
f 93 60 67
f 100 96 66
f 60 92 61
f 61 92 100
f 92 60 93
f 74 34 101
f 74 101 75
f 75 101 93
f 75 93 67
f 72 65 95
f 98 76 95
f 95 76 72
f 76 98 82
f 82 98 85
f 82 85 73
f 102 30 69
f 85 99 86
f 103 84 86
f 104 84 103
f 104 83 84
f 102 83 104
f 69 83 102
f 69 30 87
f 105 78 87
f 34 77 32
f 31 80 105
f 80 31 77
f 105 80 78
f 31 32 77
f 74 77 34
f 106 86 99
f 50 103 106
f 106 103 86
f 106 54 50
f 107 108 109
f 110 111 112
f 110 113 111
f 98 97 114
f 114 99 98
f 101 94 93
f 27 105 30
f 30 105 87
f 27 31 105
f 54 106 57
f 115 116 117
f 118 99 114
f 56 57 119
f 115 119 116
f 118 57 106
f 57 114 119
f 119 114 116
f 106 99 118
f 118 114 57
f 120 58 56
f 120 56 119
f 121 122 123
f 123 124 121
f 125 126 127
f 128 120 129
f 128 130 120
f 131 132 130
f 128 131 130
f 132 133 134
f 132 135 133
f 134 130 132
f 120 130 58
f 58 130 134
f 51 52 136
f 88 137 89
f 137 88 138
f 138 88 90
f 138 90 139
f 91 139 90
f 91 136 139
f 89 136 91
f 89 137 136
f 50 51 103
f 140 104 51
f 104 103 51
f 51 141 140
f 141 51 136
f 141 136 24
f 24 136 29
f 23 30 140
f 140 30 102
f 140 24 23
f 140 102 104
f 140 141 24
f 142 143 144
f 94 145 142
f 142 92 94
f 146 96 100
f 116 97 96
f 116 96 146
f 116 114 97
f 117 116 147
f 117 147 144
f 144 147 148
f 144 148 142
f 116 146 147
f 146 100 147
f 147 100 148
f 148 100 92
f 148 92 142
f 145 94 101
f 101 34 145
f 120 149 129
f 149 120 119
f 115 143 119
f 119 143 149
f 143 115 117
f 143 117 144
f 128 129 150
f 150 129 151
f 135 132 131
f 128 150 152
f 128 152 131
f 131 152 135
f 153 107 154
f 107 109 154
f 154 109 155
f 155 109 156
f 156 109 108
f 156 108 153
f 153 108 107
f 133 136 137
f 133 137 138
f 133 138 134
f 157 112 111
f 111 152 157
f 113 158 111
f 111 158 152
f 159 158 113
f 159 113 110
f 112 159 110
f 112 157 159
f 149 142 160
f 161 162 160
f 149 163 164
f 161 165 162
f 165 161 33
f 165 33 3
f 143 142 149
f 149 160 163
f 142 145 160
f 160 145 161
f 33 161 145
f 33 145 34
f 149 164 129
f 129 164 151
f 166 167 121
f 121 124 166
f 166 124 123
f 166 123 168
f 168 123 122
f 168 122 169
f 169 122 121
f 169 121 167
f 170 126 125
f 170 125 171
f 171 125 127
f 171 127 172
f 172 127 126
f 170 172 126
f 134 53 154
f 52 134 138
f 52 138 139
f 53 134 52
f 139 136 52
f 58 156 153
f 58 153 53
f 155 156 134
f 134 156 58
f 53 153 154
f 134 154 155
f 133 135 29
f 29 136 133
f 159 157 150
f 150 157 152
f 135 152 158
f 29 159 26
f 160 162 173
f 163 160 174
f 172 170 151
f 8 172 164
f 172 151 166
f 172 166 168
f 172 168 169
f 166 151 164
f 166 164 167
f 170 171 151
f 151 171 150
f 172 169 164
f 164 169 167
f 172 150 171
f 158 29 135
f 150 172 159
f 159 172 8
f 158 159 29
f 26 159 8
f 2 8 164
f 2 164 163
f 175 176 2
f 2 176 3
f 3 176 177
f 176 178 177
f 178 179 163
f 178 163 177
f 163 174 177
f 177 174 173
f 162 177 180
f 180 177 181
f 181 177 173
f 162 182 177
f 177 182 165
f 3 177 165
f 183 184 185
f 185 184 186
f 187 184 183
f 188 185 186
f 184 20 186
f 185 6 183
f 183 6 1
f 183 1 187
f 184 187 20
f 185 188 6
f 1 5 187
f 187 5 20
f 20 7 186
f 186 7 188
f 188 7 6
f 189 190 191
f 189 191 192
f 192 9 189
f 190 193 191
f 193 4 191
f 191 4 192
f 192 4 9
f 9 11 189
f 189 11 12
f 189 12 190
f 190 12 193
f 193 12 4

