# https://github.com/mikedh/trimesh
v 0.00352377 -0.05401703 0.03408626
v -0.00458827 -0.05490853 0.00046287
v 0.02309524 -0.05101257 0.00066272
v -0.04534262 -0.03230812 0.00053434
v -0.02636750 -0.04853803 0.00050314
v -0.02547421 -0.04891223 0.02332355
v 0.03434087 0.04405479 0.00060274
v 0.02081865 0.05191307 0.00074625
v 0.02278911 0.04514837 0.06469569
v 0.04020724 -0.03863857 0.00070495
v 0.03386967 -0.03697601 0.06464398
v 0.02375688 -0.04590875 0.06477030
v -0.00934596 0.05518057 0.03739960
v -0.00913019 0.04876313 0.06518520
v -0.00917676 0.05605464 0.00051662
v -0.03295244 -0.03829911 0.06470109
v -0.00901057 -0.04919456 0.06466605
v 0.04686449 -0.02684984 0.03311499
v 0.04996374 -0.00988582 0.06451486
v 0.05500275 -0.00927570 0.00039406
v 0.05036297 0.00723337 0.06455368
v 0.05222803 0.01944660 0.00075105
v 0.04188861 0.02872560 0.06453921
v -0.02957633 0.04218784 0.06580760
v -0.02205552 0.05141043 0.05026671
v -0.05597764 -0.00557616 0.06479120
v -0.05775479 -0.00057742 0.00051051
v -0.06506160 0.01501566 0.03811691
v -0.06302728 0.00709849 0.00051646
v -0.07297552 0.01678187 0.02647773
v -0.07309380 0.01214785 0.00028470
v -0.07228069 0.03593893 0.04510593
v -0.06449804 0.05653175 0.04867271
v -0.08893739 0.08114054 0.05268051
v -0.04614658 0.04861761 0.05075736
v -0.06355941 0.03193576 0.04908742
v -0.06117335 0.02195282 0.05504017
v -0.04427513 0.03830204 0.05934943
v -0.04968908 0.03038119 0.06595773
v -0.05863547 0.01145631 0.06539150
v -0.07314787 0.02483867 0.03888216
v -0.09432329 0.01429959 0.01170039
v -0.02029377 0.06485633 0.00052856
v -0.03513977 0.04521718 0.00046172
v -0.02789527 0.09026590 0.00012180
v -0.05406144 0.01910325 0.00039717
v -0.04675697 0.03341158 0.00011087
v -0.07250523 0.01547736 -0.01829563
v -0.05203452 0.02577739 -0.02341203
v -0.11096234 0.02502530 0.02474097
v -0.11038505 0.01978567 0.00948289
v -0.09564588 0.02366148 -0.03385845
v -0.10024489 0.01583350 -0.01038284
v -0.11791594 0.02558634 -0.01318444
v -0.07332263 0.02542607 -0.03643250
v -0.09703816 0.03290153 0.04118330
v -0.12465862 0.03192103 0.01047290
v -0.12864028 0.04192395 -0.00989854
v -0.11461956 0.04169206 0.03445264
v -0.10797633 0.02721391 -0.03007434
v -0.11618850 0.03805405 -0.03023036
v -0.09394228 0.03753670 -0.04423096
v -0.06696704 0.03678050 -0.04228545
v -0.04559788 0.03563445 -0.02606159
v -0.03086948 0.12383099 -0.02032529
v -0.02734539 0.12382482 0.00607014
v -0.03196904 0.09013660 -0.02113441
v -0.13750613 0.12398626 -0.01194419
v -0.11747773 0.12362225 -0.04336622
v -0.13451453 0.09672420 -0.01875312
v -0.13413052 0.12383098 0.02032529
v -0.13493137 0.08392855 0.01054913
v -0.10373203 0.07911588 0.04866148
v -0.11540671 0.06473339 -0.03918109
v -0.09830849 0.07904658 -0.05061103
v -0.02883258 0.08125490 0.01706179
v -0.03820074 0.12418539 0.03319821
v -0.11152858 0.12378075 0.04845252
v -0.12757111 0.08426535 0.02891959
v -0.09165602 0.12399654 -0.05473724
v -0.07703123 0.08006823 -0.05287911
v -0.05372761 0.12383833 -0.04875344
v -0.07489817 0.12398694 0.05529758
v -0.05127499 0.07019065 0.04476342
v -0.04899421 0.12361319 0.04378630
v -0.05312456 0.07826913 -0.04419927
v -0.03943142 0.07175839 0.03813276
v -0.02541808 0.06321631 0.03510659
v -0.03712504 -0.03015242 0.08996006
v -0.03658706 -0.03906080 0.06478785
v -0.05054111 0.00659851 0.08847259
v -0.05686874 0.00190281 0.07112021
v -0.05080688 0.03790830 0.07116916
v -0.04488302 0.02822597 0.08738637
v -0.03097026 0.04330007 0.08771741
v -0.05765739 0.02120903 0.07136205
v -0.06795266 0.02127812 0.06512856
v -0.06486531 0.01732196 0.07079416
v -0.05814420 0.03988881 0.07078172
v -0.05215516 0.05050998 0.06572969
v -0.02955589 0.06313134 0.07064385
v -0.02650462 0.06577363 0.06501486
v -0.00754539 0.05653784 0.07121699
v 0.01308660 0.05220715 0.06478117
v -0.03180390 0.05371812 0.07124603
v -0.00791446 0.04921267 0.08919157
v 0.02042556 0.04328452 0.08907875
v 0.03748763 0.03760387 0.06481967
v 0.03648301 0.03024885 0.09030662
v 0.05063717 0.01530257 0.06483071
v 0.04568261 0.00914753 0.09274255
v 0.05195523 -0.01028418 0.06472282
v 0.04495834 -0.01010508 0.09265137
v 0.03942964 -0.02382320 0.09261914
v 0.04067285 -0.03340728 0.06478077
v 0.02674151 -0.03786637 0.09256845
v 0.00612617 -0.04636190 0.09149665
v -0.00291332 -0.05323183 0.06473647
v -0.01366677 -0.04482711 0.09142090
v -0.03618691 -0.00725965 0.10083769
v -0.03150297 0.01080715 0.10152195
v -0.03062807 0.02269311 0.10087769
v -0.00648662 0.03688906 0.10077121
v -0.02226168 -0.02936275 0.10081708
v 0.02051237 0.03116175 0.10090874
v 0.03573424 0.00692491 0.10110465
v 0.03078767 -0.01970139 0.10091195
v 0.00637412 -0.03641632 0.10085645
v 0.00294692 -0.01654942 0.10945307
v 0.00706968 0.01409456 0.10979074
v -0.00903254 0.01091555 0.11025371
v -0.01671674 -0.01154014 0.10818090
v 0.02031600 -0.00790092 0.10761895
f 1 2 3
f 4 5 6
f 7 8 9
f 10 11 3
f 1 3 12
f 12 3 11
f 13 14 9
f 8 15 13
f 2 1 6
f 2 6 5
f 16 6 17
f 1 17 6
f 1 12 17
f 11 18 19
f 10 20 18
f 18 20 19
f 21 19 20
f 20 22 21
f 21 22 23
f 7 23 22
f 4 6 16
f 7 9 23
f 18 11 10
f 8 13 9
f 24 14 25
f 4 16 26
f 27 28 29
f 30 31 29
f 32 33 34
f 25 14 13
f 35 36 37
f 38 39 25
f 25 39 24
f 35 38 25
f 40 39 37
f 37 39 38
f 37 38 35
f 41 37 36
f 36 32 41
f 28 37 41
f 31 30 42
f 35 33 32
f 35 32 36
f 41 30 28
f 28 27 26
f 26 27 4
f 28 30 29
f 40 28 26
f 28 40 37
f 20 10 5
f 43 44 45
f 31 46 29
f 15 47 44
f 46 27 29
f 2 10 3
f 2 5 10
f 15 22 20
f 7 22 15
f 15 8 7
f 15 44 43
f 46 47 27
f 27 47 15
f 15 20 5
f 15 5 27
f 27 5 4
f 46 48 49
f 30 50 42
f 42 50 51
f 52 53 54
f 52 55 48
f 48 55 49
f 53 42 51
f 46 31 48
f 52 48 53
f 48 31 53
f 53 31 42
f 50 30 56
f 56 41 32
f 56 30 41
f 51 57 54
f 57 58 54
f 59 50 56
f 59 57 50
f 57 51 50
f 60 54 61
f 61 54 58
f 54 60 52
f 62 60 61
f 52 60 62
f 62 63 55
f 62 55 52
f 49 55 63
f 49 63 64
f 65 66 67
f 68 69 70
f 71 68 72
f 59 56 73
f 62 74 75
f 61 74 62
f 67 66 45
f 76 66 77
f 34 78 73
f 71 79 78
f 69 80 75
f 75 80 81
f 81 80 82
f 65 67 82
f 83 84 85
f 84 83 33
f 79 59 78
f 78 59 73
f 75 74 69
f 33 83 34
f 83 78 34
f 44 64 67
f 45 44 67
f 32 34 56
f 56 34 73
f 71 72 79
f 79 72 57
f 79 57 59
f 58 57 72
f 70 58 72
f 70 72 68
f 74 61 58
f 74 58 70
f 69 74 70
f 82 86 81
f 75 81 62
f 81 63 62
f 86 63 81
f 82 67 86
f 63 86 64
f 67 64 86
f 69 68 80
f 68 71 78
f 80 68 83
f 83 68 78
f 83 85 80
f 80 85 77
f 77 66 80
f 80 66 65
f 80 65 82
f 76 43 45
f 13 15 43
f 84 33 35
f 77 85 76
f 85 87 76
f 76 87 88
f 45 66 76
f 88 13 43
f 88 43 76
f 87 84 35
f 87 35 25
f 88 87 25
f 85 84 87
f 88 25 13
f 64 44 47
f 46 49 47
f 47 49 64
f 51 54 53
f 89 26 90
f 91 92 89
f 89 92 26
f 93 94 95
f 96 94 93
f 96 91 94
f 91 96 92
f 97 26 92
f 97 92 98
f 97 98 99
f 97 99 100
f 100 99 101
f 101 102 100
f 102 101 103
f 102 103 104
f 105 106 103
f 95 106 105
f 95 105 93
f 107 104 103
f 107 103 106
f 107 108 104
f 109 108 107
f 110 108 109
f 110 109 111
f 111 112 110
f 113 112 111
f 114 112 113
f 114 115 112
f 116 115 114
f 115 116 12
f 12 116 117
f 12 117 118
f 118 117 119
f 119 90 118
f 90 119 89
f 98 92 96
f 120 121 122
f 123 122 121
f 89 124 120
f 91 89 120
f 122 94 91
f 122 91 120
f 122 95 94
f 105 103 101
f 99 98 93
f 105 101 99
f 109 125 111
f 111 125 126
f 111 126 113
f 113 126 127
f 127 114 113
f 127 116 114
f 128 116 127
f 116 128 117
f 124 119 128
f 128 119 117
f 124 89 119
f 125 107 106
f 125 109 107
f 123 125 106
f 123 106 95
f 95 122 123
f 105 99 93
f 98 96 93
f 129 130 131
f 132 121 120
f 129 128 133
f 128 127 133
f 133 127 126
f 126 125 130
f 130 125 123
f 130 123 131
f 132 120 124
f 132 124 129
f 129 124 128
f 121 132 131
f 126 130 133
f 132 129 131
f 133 130 129
f 123 121 131
f 17 90 16
f 17 118 90
f 118 17 12
f 11 115 12
f 19 112 11
f 11 112 115
f 21 112 19
f 112 21 110
f 23 110 21
f 23 108 110
f 108 23 9
f 108 9 104
f 9 14 104
f 104 14 102
f 100 102 39
f 100 39 97
f 97 40 26
f 26 16 90
f 97 39 40
f 14 24 102
f 102 24 39

