# https://github.com/mikedh/trimesh
v -0.03895940 -0.03697857 0.08984625
v -0.04149278 -0.03445049 0.08702500
v -0.03506677 -0.04087652 0.08846682
v -0.04206592 -0.03388312 0.08259103
v -0.03515466 -0.04077965 0.07974648
v -0.03390577 -0.04203750 0.08415000
v -0.03903124 -0.03690711 0.07848354
v -0.03472347 -0.02647587 0.09561373
v -0.03260403 -0.02958469 0.08971659
v -0.02587925 -0.03545342 0.09527586
v -0.02795428 -0.03400218 0.08855711
v -0.03492966 -0.02662714 0.08510450
v -0.03867631 -0.02190300 0.05049514
v -0.03050813 -0.03173045 0.07825015
v -0.03407125 -0.02771309 0.08043430
v -0.02688376 -0.03498258 0.08241728
v -0.04053734 -0.01654859 0.09571233
v -0.01420696 -0.04168744 0.06055938
v -0.00956335 -0.04281533 0.09589420
v -0.01297973 0.04415966 0.06405027
v -0.01344966 0.04200506 0.06610315
v -0.01277230 0.04478002 0.08494785
v -0.01244249 0.04270645 0.08798313
v -0.00607852 0.04723962 0.05976758
v -0.01005114 0.04291262 0.06017897
v -0.00549130 0.04399482 0.09255621
v 0.00788809 0.05247197 0.09505612
v -0.00543314 0.04756000 0.09243140
v 0.01698499 0.06144824 0.09453804
v 0.00821560 0.05585336 0.09126136
v 0.00554963 0.04415901 0.05878110
v 0.00698584 0.05277034 0.06206136
v 0.03668331 0.07930388 0.07466712
v 0.01525406 0.06114183 0.06834715
v 0.03594324 0.08039930 0.07757013
v 0.03982529 0.08109415 0.07995345
v 0.00711928 0.05554079 0.07225102
v 0.02729129 0.07278182 0.09135062
v 0.03399929 0.07870816 0.09247267
v 0.03352763 0.07576080 0.09480793
v 0.04369095 -0.00766337 0.09206496
v 0.04786267 0.01161350 0.09318677
v 0.04236295 0.01259387 0.09264938
v 0.03454866 0.02771464 0.09264574
v 0.03339043 0.03463008 0.09284665
v 0.02498959 0.03626373 0.09255972
v 0.02244885 0.03898631 0.06122136
v 0.03144210 0.04549029 0.06423318
v 0.03348910 0.03061658 0.06176211
v 0.05088128 0.06526748 0.07317539
v 0.05570556 0.06849246 0.07873935
v 0.02882619 0.07323130 0.07522660
v 0.03855255 0.08106539 0.08970558
v 0.03826037 0.07785355 0.09424187
v 0.07763211 0.03777681 0.09440984
v 0.03681306 0.03973042 0.09501252
v 0.05614119 0.01059945 0.09486983
v 0.00912813 0.04363451 0.09222768
v 0.04391083 0.00272782 0.05880249
v 0.04010763 0.01985865 0.05886155
v 0.04720599 -0.00397478 0.05910324
v 0.04178090 0.01753304 0.06104933
v 0.03030478 0.03263595 0.05862230
v 0.01536429 0.04186247 0.05869664
v 0.04512909 0.03124458 0.06452727
v 0.05954586 0.01540067 0.06540009
v 0.07201709 0.05179106 0.08371616
v 0.08085042 0.03966546 0.07773300
v 0.06740512 0.04884423 0.07330796
v 0.05088290 0.03737553 0.06641252
v 0.07912400 0.03497178 0.07461412
v 0.03662698 0.05063609 0.06684276
v 0.01111117 0.05950687 0.06924228
v 0.01042358 0.05923904 0.09117143
v 0.02893201 0.07449572 0.08880880
v 0.05711304 0.06631067 0.09100889
v 0.08102095 0.03861253 0.08992562
v 0.07263289 0.02729939 0.09143625
v 0.07825859 0.03375263 0.09332323
v 0.05727388 0.00866505 0.09086988
v 0.04934046 0.00248858 0.09461063
v 0.04343522 -0.00827747 0.05926445
v 0.07277922 0.02794328 0.07430709
v 0.05235292 0.00275705 0.06239194
v 0.02798381 0.07413232 0.07602144
v 0.04583902 -0.01010103 0.08983062
v 0.04217858 -0.01364633 0.08418699
v 0.04391990 -0.01276002 0.06329944
v 0.04207423 -0.01330660 0.06504723
v 0.04606895 0.03239189 0.06336496
v 0.03705386 0.05055447 0.06528354
v 0.01470145 0.05991967 0.08492070
v 0.01468708 0.06019389 0.07491785
v 0.07454728 0.02898067 0.08870064
v 0.05526858 0.00733119 0.07255317
v 0.05550922 0.00796400 0.08918621
v 0.05845326 0.01203323 0.06849927
v 0.07395779 0.02786573 0.07578777
v 0.06014703 0.01183518 0.09119100
v 0.05616460 0.00625362 0.07739512
v 0.05953480 0.01123473 0.06962165
v 0.06012475 0.01457541 0.08583341
v 0.06000176 0.01445079 0.07504921
v -0.01370201 0.04174195 0.09592412
v 0.00380173 0.04384464 0.09497774
v 0.01635127 0.04022460 0.09593197
v 0.03333979 0.02927581 0.09525702
v 0.04047512 0.01555089 0.09598760
v 0.04374193 0.00285268 0.09544837
v 0.04162340 -0.01403744 0.09577408
v -0.02001823 0.03911429 0.05049665
v -0.03125307 0.03135700 0.09532041
v -0.03471948 0.02789352 0.05044530
v -0.04222655 0.01220973 0.09579763
v -0.04315653 0.00989837 0.05054002
v -0.04386026 -0.00414167 0.05050052
v -0.04356166 -0.00272882 0.09564213
v 0.01847280 -0.04016111 0.05063455
v 0.03211370 -0.03066073 0.09533389
v 0.01057465 -0.04281975 0.09595031
v 0.03840854 -0.02170594 0.05047419
v -0.02477087 -0.03653034 0.05048390
v -0.00246100 -0.04444157 0.05041773
v 0.03087163 -0.03132427 0.05044716
v 0.00382587 -0.03158836 0.09647712
v 0.01389666 -0.02881215 0.09656099
v 0.03199805 0.00119296 0.09647555
v 0.02807297 0.01537298 0.09658919
v 0.01831699 0.02626427 0.09645857
v 0.00549446 0.03158295 0.09637719
v -0.02904790 -0.01348884 0.09656190
v -0.03206389 0.00098157 0.09646843
v 0.02522563 -0.01968841 0.09648038
v 0.03049517 -0.00913122 0.09643729
v -0.02053181 0.02427314 0.09652235
v -0.02818453 0.01524157 0.09650219
v -0.01025407 0.03053068 0.09658337
v -0.00737989 -0.03106570 0.09649076
v -0.01997328 -0.02503909 0.09645329
v 0.04389831 -0.00491608 0.05046001
v 0.04230326 0.01273105 0.05046892
v 0.03387093 0.02832369 0.05040938
v 0.02444657 0.03655713 0.05047722
v 0.01171434 0.04259644 0.05047181
v -0.00597208 0.04377295 0.05047325
v -0.00406986 0.03129852 0.10465309
v -0.01844112 0.02549433 0.10471477
v -0.02813007 0.01411179 0.10470961
v -0.03147338 -0.00045096 0.10470518
v -0.02755794 -0.01490319 0.10505083
v -0.01773778 -0.02601084 0.10469944
v -0.00742413 -0.03037365 0.10469048
v 0.00375953 -0.03125907 0.10469843
v 0.01773778 -0.02601084 0.10469944
v 0.02772591 -0.01490983 0.10470174
v 0.03147338 -0.00045096 0.10470518
v 0.02813007 0.01411178 0.10470961
v 0.01844112 0.02549433 0.10471477
v 0.00803381 0.03019787 0.10470579
f 1 2 3
f 3 2 4
f 3 5 6
f 4 7 3
f 3 7 5
f 8 9 10
f 10 9 11
f 12 9 8
f 13 14 15
f 11 16 10
f 13 15 12
f 13 12 17
f 17 12 8
f 16 18 10
f 10 18 19
f 5 16 6
f 5 14 16
f 7 14 5
f 4 15 7
f 7 15 14
f 4 12 15
f 2 12 4
f 9 12 2
f 1 9 2
f 3 11 1
f 1 11 9
f 16 11 6
f 6 11 3
f 20 21 22
f 23 22 21
f 20 24 25
f 20 25 21
f 20 22 24
f 26 27 28
f 28 23 26
f 28 29 30
f 27 29 28
f 22 23 28
f 24 31 25
f 32 31 24
f 33 34 35
f 24 34 32
f 32 34 33
f 36 33 35
f 24 37 34
f 30 37 24
f 30 24 28
f 22 28 24
f 38 30 29
f 38 29 39
f 27 40 29
f 29 40 39
f 41 42 43
f 44 45 46
f 43 42 44
f 44 42 45
f 47 48 49
f 50 33 51
f 51 33 36
f 32 47 31
f 47 32 48
f 48 32 50
f 50 32 33
f 35 34 52
f 53 35 39
f 39 40 54
f 39 54 53
f 35 53 36
f 55 56 57
f 40 56 54
f 54 56 55
f 40 27 56
f 27 58 56
f 56 58 45
f 46 45 58
f 45 42 56
f 42 57 56
f 59 60 61
f 60 62 61
f 62 60 49
f 49 60 63
f 49 63 47
f 47 64 31
f 48 65 62
f 62 49 48
f 62 66 61
f 67 68 51
f 51 68 69
f 51 69 50
f 69 70 50
f 68 71 69
f 69 71 62
f 71 66 62
f 50 72 48
f 72 50 70
f 37 73 34
f 30 38 74
f 75 39 52
f 52 39 35
f 75 38 39
f 76 53 54
f 51 36 76
f 53 76 36
f 54 55 76
f 67 77 68
f 55 77 76
f 76 77 67
f 76 67 51
f 78 79 57
f 78 57 80
f 57 79 55
f 81 57 42
f 81 42 41
f 26 58 27
f 59 61 82
f 66 71 83
f 66 83 84
f 84 61 66
f 62 65 69
f 69 65 70
f 73 52 34
f 73 85 52
f 52 85 75
f 30 74 37
f 37 74 73
f 77 71 68
f 77 55 79
f 77 79 71
f 86 81 41
f 57 81 86
f 57 86 80
f 87 86 41
f 82 88 89
f 88 82 61
f 84 88 61
f 70 65 90
f 90 65 48
f 91 48 72
f 70 91 72
f 74 92 73
f 92 93 73
f 71 79 83
f 79 94 83
f 79 78 94
f 95 96 86
f 96 80 86
f 88 87 89
f 87 88 86
f 84 83 97
f 70 90 91
f 48 91 90
f 74 38 92
f 93 92 85
f 75 85 92
f 38 75 92
f 86 88 84
f 86 84 95
f 97 95 84
f 73 93 85
f 83 94 98
f 99 78 80
f 100 80 96
f 100 96 95
f 101 97 98
f 98 97 83
f 97 101 95
f 102 78 99
f 100 101 80
f 80 101 99
f 100 95 101
f 78 102 94
f 99 101 102
f 103 102 101
f 98 103 101
f 94 102 98
f 98 102 103
f 104 26 23
f 105 58 26
f 105 26 104
f 58 105 106
f 58 106 46
f 106 107 46
f 46 107 44
f 44 107 43
f 43 107 108
f 108 109 43
f 43 109 41
f 41 109 110
f 110 87 41
f 104 23 21
f 104 21 111
f 104 111 112
f 112 111 113
f 112 113 114
f 114 113 115
f 114 115 116
f 13 17 116
f 116 17 117
f 116 117 114
f 118 119 120
f 89 87 110
f 89 110 119
f 21 25 111
f 89 121 82
f 14 13 122
f 14 122 16
f 16 122 18
f 19 123 120
f 19 18 123
f 120 123 118
f 119 118 124
f 121 89 119
f 121 119 124
f 106 105 104
f 109 108 110
f 125 120 126
f 10 19 8
f 117 17 114
f 127 108 128
f 110 120 119
f 106 108 107
f 129 106 130
f 114 104 112
f 17 131 132
f 17 132 114
f 126 120 133
f 133 120 110
f 133 110 134
f 134 110 127
f 127 110 108
f 128 108 129
f 135 114 136
f 136 114 132
f 19 17 8
f 106 129 108
f 137 104 135
f 135 104 114
f 138 19 125
f 125 19 120
f 104 137 130
f 104 130 106
f 131 17 139
f 19 138 139
f 19 139 17
f 140 82 121
f 60 59 141
f 141 59 140
f 140 59 82
f 142 60 141
f 142 63 60
f 143 63 142
f 144 47 143
f 143 47 63
f 144 64 47
f 145 31 144
f 144 31 64
f 145 111 25
f 145 25 31
f 123 18 122
f 146 137 147
f 147 137 135
f 147 135 136
f 147 136 148
f 148 136 132
f 148 132 149
f 149 132 131
f 149 131 150
f 150 131 139
f 150 139 151
f 151 139 138
f 151 138 152
f 152 138 153
f 138 125 153
f 125 126 153
f 153 126 154
f 126 133 154
f 154 133 155
f 133 134 155
f 155 134 156
f 134 127 156
f 156 127 157
f 127 128 157
f 157 128 158
f 128 129 158
f 158 129 159
f 129 130 159
f 159 130 146
f 146 130 137
f 123 142 141
f 123 122 142
f 142 122 13
f 142 13 116
f 111 145 113
f 113 145 144
f 113 144 143
f 113 143 142
f 116 115 142
f 142 115 113
f 141 140 123
f 123 140 121
f 123 121 124
f 123 124 118
f 153 150 152
f 150 151 152
f 147 148 150
f 150 148 149
f 150 146 147
f 150 158 159
f 150 159 146
f 156 157 150
f 150 157 158
f 150 155 156
f 153 154 150
f 150 154 155

