# https://github.com/mikedh/trimesh
v 0.05353073 0.06471588 0.03930731
v 0.07077280 0.02910747 0.05138171
v 0.06829508 0.06485979 0.04842665
v 0.09039494 0.00071348 0.05388649
v 0.10699490 0.06465455 0.04172878
v 0.12858371 0.03040760 0.02761052
v 0.12669608 0.06469246 0.02063592
v 0.13323723 0.06459484 -0.00057398
v 0.13589704 0.00061325 -0.02075544
v 0.12587510 0.06469246 -0.02617186
v 0.12429394 0.03302922 -0.03633140
v 0.10566892 0.06458894 -0.04649746
v 0.08945713 0.04281982 -0.05444758
v 0.08125699 0.06471378 -0.05186895
v 0.13760412 0.00068063 0.00280732
v 0.06315929 0.00050177 0.04996814
v 0.04049048 0.00047910 0.03553034
v 0.11004324 0.00076997 0.04627373
v 0.12722869 0.00064680 0.03107304
v 0.11206269 0.00059291 -0.04937046
v 0.07096430 0.00043185 -0.05861943
v 0.04120035 0.03730736 0.03208087
v 0.02915879 0.06468137 -0.02878119
v 0.04878433 0.06466004 -0.04290060
v 0.04667290 0.05155144 -0.05142945
v 0.02741384 0.06473364 0.00562169
v 0.02128498 0.00077466 -0.00820550
v 0.01230121 0.01157329 -0.01426916
v 0.00879915 0.00044058 -0.01430129
v 0.07115961 0.04632121 -0.05552650
v 0.02379939 0.06467651 -0.01537860
v 0.01987396 0.04948852 -0.01523318
v 0.02828635 0.05647723 -0.03409297
v 0.02702026 0.04979181 -0.04820604
v 0.01090605 0.04234340 -0.03050939
v 0.00841830 0.03356327 -0.02293993
v 0.01878195 0.03331985 -0.01392401
v -0.01828088 0.04206741 -0.04072736
v 0.01089499 0.04940031 -0.05448293
v 0.01863170 0.04875836 -0.03101551
v -0.01433610 0.01697244 -0.01840078
v 0.02560608 0.04697148 -0.06925406
v 0.03979915 0.03758818 -0.09106706
v 0.04075456 0.04054093 -0.07334061
v 0.05457909 0.04243769 -0.06109394
v 0.06008782 0.02668401 -0.06574697
v 0.05165124 0.02702053 -0.07752220
v 0.05760355 0.00055837 -0.07554910
v 0.05282097 0.01514879 -0.09392936
v 0.05545886 0.00103678 -0.12281453
v -0.01591974 -0.00098082 -0.01628460
v -0.00517383 -0.01664829 -0.01647828
v -0.03619822 0.00554535 -0.02564499
v -0.02714649 -0.02470470 -0.02624789
v 0.02707299 -0.00017760 -0.02174114
v 0.02121056 -0.02416401 -0.02282249
v 0.03017755 -0.01766103 -0.02579580
v -0.01715161 0.03138483 -0.02558243
v -0.00350733 -0.03255979 -0.02406512
v 0.03252383 -0.03260209 -0.03999657
v 0.04105851 -0.02085256 -0.04111209
v -0.04431705 0.00632140 -0.03857647
v -0.04293562 -0.01191019 -0.03823082
v -0.03723437 0.02537974 -0.03913623
v -0.03085327 -0.03346144 -0.03894581
v -0.00927436 -0.04317126 -0.03577893
v 0.01037244 -0.04170365 -0.03406462
v 0.04941213 -0.01985998 -0.08063103
v 0.04502219 -0.03294476 -0.12300770
v -0.05048800 -0.01629625 -0.08250282
v -0.05592771 0.00614825 -0.12299612
v -0.04916004 -0.02517832 -0.12299977
v 0.02830889 -0.04606410 -0.08816153
v 0.02556129 -0.04887776 -0.12299542
v -0.03292106 0.04191810 -0.08435977
v -0.02055179 0.05159957 -0.12299097
v -0.04177814 0.03618738 -0.12300356
v -0.01720929 0.05000056 -0.07919936
v -0.03511414 -0.03991434 -0.07911048
v 0.04775679 0.00048497 -0.04765161
v 0.04257382 0.03542381 -0.12301823
v 0.01637633 0.05363450 -0.12299538
v -0.05280080 0.00424875 -0.08150043
v -0.04697955 0.02443655 -0.08142453
v 0.00527756 -0.05506880 -0.12300006
v 0.00624869 -0.05288683 -0.08347365
v -0.01791056 -0.05036191 -0.08662845
v -0.02706974 -0.04889509 -0.12294906
v 0.11241034 0.10088449 0.01988707
v 0.11803087 0.10083773 -0.00732065
v 0.10107234 0.10864481 0.00035122
v 0.05012864 0.10076688 0.01433002
v 0.06443085 0.10827117 0.00916815
v 0.05134298 0.10124236 -0.01539832
v 0.07629751 0.10884389 -0.01981454
v 0.06764127 0.10077178 -0.03703213
v 0.08996104 0.10085137 -0.03799136
v 0.10866848 0.10082255 -0.02796877
v 0.09761712 0.10748885 -0.01757328
v 0.09225687 0.10748139 0.01781428
v 0.08962616 0.10084086 0.03337922
v 0.06568774 0.10084850 0.03118758
v 0.08201034 0.11173931 -0.00132934
v 0.09795840 0.06479584 0.04866051
v 0.09397732 0.06453274 -0.05490234
v 0.12421539 0.06485206 -0.03570242
v 0.01480095 0.06494419 -0.02127109
v 0.04208932 0.06467261 -0.04397326
v 0.12294674 0.06483317 0.03215512
v 0.13624536 0.06481258 -0.00029453
v 0.04334287 0.06486914 0.03378427
v 0.03860040 0.06747912 -0.05101661
v 0.05573926 0.06499346 -0.06762082
v 0.02538304 0.06589159 -0.04763911
v 0.07559446 0.07115863 -0.05840331
v 0.07020362 0.08864000 -0.05132055
v 0.09378771 0.08773297 -0.04890626
v 0.05786458 0.07115369 -0.05787132
v 0.04131324 0.07106085 -0.05008582
v 0.04650007 0.08754612 -0.04209026
v 0.11101053 0.08996430 -0.04006806
v 0.12550442 0.09099843 -0.02171033
v 0.12875424 0.09231846 -0.00000499
v 0.12400360 0.09234001 0.01893824
v 0.11337917 0.09253505 0.03216845
v 0.09405886 0.09255168 0.04306350
v 0.06746613 0.09151927 0.04248565
v 0.04743588 0.08960515 0.02987347
v 0.03505110 0.08843948 0.00797881
v 0.02528412 0.07120367 -0.00460522
v 0.02621687 0.07099886 -0.03019296
v 0.03263746 0.08775284 -0.01818556
v 0.01760743 0.07076180 -0.01936028
v 0.02276623 0.07076680 -0.03845307
v 0.03823942 0.07075260 -0.05676164
v 0.05831691 0.07072703 -0.06509418
v 0.04516422 0.10103054 -0.01001467
f 1 2 3
f 3 2 4
f 3 4 5
f 5 6 7
f 7 6 8
f 8 9 10
f 10 9 11
f 10 11 12
f 12 13 14
f 15 9 8
f 16 2 17
f 4 2 16
f 18 19 6
f 15 8 6
f 15 6 19
f 11 9 20
f 13 20 21
f 13 12 20
f 20 12 11
f 6 5 18
f 18 5 4
f 2 1 17
f 17 1 22
f 23 24 25
f 26 17 22
f 26 27 17
f 28 29 27
f 13 30 14
f 26 31 32
f 26 22 1
f 14 30 24
f 31 23 33
f 25 33 23
f 33 25 34
f 24 30 25
f 35 36 37
f 35 34 38
f 38 34 39
f 37 26 32
f 37 32 35
f 35 32 40
f 35 40 34
f 37 27 26
f 36 28 37
f 36 41 28
f 37 28 27
f 33 34 40
f 33 40 31
f 31 40 32
f 34 42 39
f 43 42 44
f 45 46 47
f 30 13 21
f 46 48 47
f 47 48 49
f 45 30 46
f 46 30 21
f 25 30 45
f 49 43 47
f 47 43 44
f 34 25 42
f 42 25 45
f 42 45 44
f 46 21 48
f 44 45 47
f 49 48 50
f 51 52 29
f 28 51 29
f 51 53 54
f 55 29 56
f 55 56 57
f 36 58 41
f 58 53 41
f 53 51 41
f 51 54 52
f 54 59 52
f 59 56 52
f 41 51 28
f 56 29 52
f 60 61 56
f 56 61 57
f 58 36 35
f 58 35 38
f 62 63 53
f 53 63 54
f 53 58 64
f 64 58 38
f 64 62 53
f 65 54 63
f 65 66 54
f 54 66 59
f 67 56 59
f 67 59 66
f 56 67 60
f 68 69 50
f 70 71 72
f 69 73 74
f 75 76 77
f 76 75 78
f 38 75 64
f 38 78 75
f 79 66 65
f 80 61 68
f 43 49 81
f 81 49 50
f 81 82 43
f 82 42 43
f 39 42 82
f 38 39 78
f 71 83 84
f 71 84 77
f 77 84 75
f 85 86 87
f 85 87 88
f 88 87 79
f 82 76 39
f 39 76 78
f 70 72 79
f 74 73 85
f 85 73 86
f 73 69 68
f 73 68 60
f 50 80 68
f 64 75 84
f 84 83 62
f 84 62 64
f 71 70 83
f 83 70 63
f 83 63 62
f 72 88 79
f 79 65 70
f 70 65 63
f 79 87 66
f 66 87 86
f 86 67 66
f 86 73 67
f 73 60 67
f 60 68 61
f 15 19 16
f 48 80 50
f 21 55 80
f 27 55 21
f 55 27 29
f 27 21 17
f 16 19 4
f 4 19 18
f 21 9 15
f 9 21 20
f 21 80 48
f 21 15 16
f 21 16 17
f 55 61 80
f 57 61 55
f 82 72 71
f 85 88 72
f 71 77 82
f 82 77 76
f 82 81 50
f 82 50 69
f 82 69 74
f 72 82 85
f 85 82 74
f 89 90 91
f 92 93 94
f 95 96 94
f 96 95 97
f 97 95 98
f 98 95 99
f 98 99 90
f 90 99 91
f 89 91 100
f 100 101 89
f 93 102 100
f 100 102 101
f 93 92 102
f 94 93 95
f 100 103 93
f 93 103 95
f 95 103 99
f 99 103 91
f 91 103 100
f 3 5 104
f 12 105 106
f 31 107 23
f 23 107 108
f 14 105 12
f 107 31 26
f 5 109 104
f 10 106 8
f 8 106 110
f 12 106 10
f 24 23 108
f 1 3 111
f 7 109 5
f 8 110 7
f 7 110 109
f 24 108 14
f 14 108 105
f 1 111 26
f 108 107 112
f 105 112 113
f 112 114 113
f 112 107 114
f 112 105 108
f 115 116 117
f 118 116 115
f 119 120 118
f 118 120 116
f 117 105 115
f 121 105 117
f 105 121 106
f 122 106 121
f 106 122 110
f 110 122 123
f 110 123 124
f 110 124 109
f 109 124 125
f 109 125 104
f 104 125 126
f 127 3 126
f 126 3 104
f 3 127 111
f 111 127 128
f 129 130 26
f 119 131 120
f 131 132 120
f 130 132 131
f 130 129 132
f 26 111 129
f 129 111 128
f 107 26 130
f 107 130 133
f 114 107 133
f 133 134 114
f 114 134 135
f 114 135 113
f 113 135 136
f 115 105 113
f 113 136 115
f 97 98 121
f 120 96 116
f 97 117 116
f 97 121 117
f 116 96 97
f 115 136 118
f 133 130 131
f 134 131 135
f 119 118 135
f 135 118 136
f 134 133 131
f 135 131 119
f 129 92 137
f 128 102 92
f 92 129 128
f 137 132 129
f 120 132 137
f 96 120 137
f 127 102 128
f 102 127 126
f 102 126 101
f 126 89 101
f 126 125 89
f 89 125 124
f 89 124 123
f 89 123 90
f 90 123 122
f 90 122 98
f 98 122 121
f 137 92 94
f 137 94 96

