# https://github.com/mikedh/trimesh
v -0.01592994 -0.19396946 -0.05302582
v 0.02355706 -0.19396342 -0.05091002
v 0.04761944 -0.19403112 -0.02857611
v 0.04173075 -0.19398649 0.03584288
v 0.02547861 -0.19395640 0.04879159
v 0.05591935 -0.19396307 0.00490695
v -0.00467841 -0.19403876 0.05604279
v -0.03043284 -0.19382931 0.04552214
v -0.05430546 -0.19400294 0.01475709
v -0.05289399 -0.19399722 -0.01595066
v -0.04238942 -0.19385219 -0.03567971
v 0.05525613 -0.11077863 0.00287864
v 0.05188715 -0.10955855 0.02283335
v 0.05106042 -0.11411255 -0.01951556
v 0.01558969 -0.12615530 -0.05285491
v -0.00013021 -0.12286744 -0.05473691
v 0.03512295 -0.12164454 -0.04237528
v 0.04016528 -0.11146495 0.04164502
v 0.00555400 -0.13179724 0.05716668
v 0.02397151 -0.11812428 0.05319502
v -0.04103937 -0.12137094 0.03907532
v -0.05449028 -0.11479973 -0.00895255
v -0.03814185 -0.12069196 -0.03968234
v -0.01751975 -0.12500532 -0.05206842
v -0.05011241 -0.11457080 -0.02140369
v -0.05486349 -0.09918949 0.01059122
v -0.05092642 -0.10328501 0.02565113
v -0.02546082 -0.12885946 0.05139117
v -0.01112471 -0.13676727 0.05557562
v 0.01252719 -0.05910196 0.08919182
v 0.00512352 -0.08377936 0.07219452
v 0.02707918 -0.08069680 0.06589131
v 0.05491745 -0.05099823 0.04390169
v 0.00285934 -0.10539063 0.06259977
v 0.03611008 -0.06062568 0.07134301
v 0.03548023 -0.03006602 0.10690755
v 0.02646047 -0.03254142 0.11304180
v 0.00748108 -0.04426767 0.10964881
v -0.00680669 -0.06061289 0.08939076
v 0.04820352 -0.03346242 0.07097170
v 0.05502481 -0.00854798 0.05862521
v 0.04679470 -0.00611464 0.10679339
v -0.00902727 -0.03953020 0.11449801
v -0.03038744 -0.03524431 0.10801099
v -0.02007515 -0.07711279 0.07175598
v -0.04250266 -0.04130991 0.07858319
v -0.03021024 -0.04657502 0.09102385
v -0.05490270 -0.02570171 0.05478082
v -0.02401660 -0.10272192 0.05737844
v -0.03741747 -0.08092368 0.05738937
v -0.05459581 0.00818853 0.06411875
v -0.04690573 0.00035427 0.10716666
v -0.04349321 -0.01135433 0.11130214
v 0.05053345 -0.09431739 0.00431595
v 0.03532263 -0.10680082 -0.03272977
v 0.03525367 -0.08952658 -0.00352485
v 0.00947457 -0.09652004 -0.03104402
v 0.00026983 -0.08044940 -0.00148731
v 0.00761298 -0.10778470 -0.04658429
v -0.03845459 -0.10534867 -0.02778448
v -0.01608011 -0.09962884 -0.03413656
v -0.04330213 -0.09072495 -0.00009576
v -0.01836742 -0.11222766 -0.04700316
v -0.03358340 -0.08167073 0.00394180
v -0.02153500 -0.05374884 0.00919144
v -0.02698360 -0.06710278 0.00989462
v -0.03634226 -0.04626617 0.01149583
v -0.04803234 -0.04569554 0.02347505
v 0.00538828 -0.07258678 0.00633693
v -0.04631674 -0.06840188 0.01618146
v 0.00063686 -0.06238610 0.00962736
v -0.05459293 -0.00624580 0.00055445
v -0.04863061 -0.03027289 0.01497676
v 0.03311077 -0.07134441 0.00981755
v 0.04841771 -0.08115559 0.01246654
v 0.05243335 -0.04182432 0.03768981
v 0.05445486 -0.00789281 0.00075105
v 0.02127656 -0.05401374 0.00867930
v 0.04114788 -0.06216451 0.01465015
v 0.03573443 -0.04462361 0.01024011
v 0.04865231 -0.04991366 0.02503831
v 0.04563961 -0.03879819 0.01696975
v -0.00156660 -0.05545137 0.00050855
v 0.02783797 -0.04841935 0.00058596
v -0.00152174 -0.05705348 0.00642796
v 0.04490503 -0.03150575 0.00082075
v -0.00569402 0.05619163 0.00049718
v -0.04857586 -0.02618833 0.00057765
v -0.05143479 0.02050216 0.00049803
v -0.03499424 0.04305162 0.00058142
v -0.03041064 -0.04657374 0.00049123
v 0.03254652 0.04511246 0.00062962
v 0.05126697 0.02071481 0.00050227
v 0.05324561 0.01416132 0.06556763
v 0.04276753 0.01882065 0.10799655
v 0.04625786 0.03006109 0.06443083
v 0.03490034 0.04285800 0.06536508
v 0.02848074 0.03666707 0.10758837
v 0.00787377 0.04591893 0.10792499
v 0.01489411 0.05326450 0.06522574
v -0.01196660 0.05444354 0.06534559
v -0.04058290 0.03821491 0.06602362
v -0.04159771 0.02139738 0.10783399
v -0.01388668 0.04485058 0.10680145
v -0.03061702 0.03293626 0.11063118
v 0.00629438 0.01669582 0.12777781
v -0.01558635 -0.00425179 0.12775341
v 0.01426534 -0.00305960 0.12856887
v -0.00581012 0.03710452 0.11740125
v 0.01911110 0.03009925 0.11837608
v 0.03293945 0.01385620 0.11831114
v 0.03624731 -0.00676028 0.11764741
v 0.01629266 -0.02840788 0.12071835
v -0.02067922 -0.02688574 0.11958420
v -0.02222204 0.01320913 0.12464705
v -0.00145295 -0.01978462 0.12659252
f 1 2 3
f 1 4 5
f 1 6 4
f 1 3 6
f 1 5 7
f 7 8 1
f 1 8 9
f 1 9 10
f 1 10 11
f 6 12 13
f 6 14 12
f 15 2 16
f 17 2 15
f 13 4 6
f 18 4 13
f 19 7 20
f 20 7 5
f 1 16 2
f 17 14 3
f 3 2 17
f 6 3 14
f 20 5 4
f 18 20 4
f 21 9 8
f 9 22 10
f 1 23 24
f 11 23 1
f 10 22 25
f 11 25 23
f 9 26 22
f 26 9 27
f 9 21 27
f 8 28 21
f 7 19 29
f 7 29 8
f 1 24 16
f 25 11 10
f 8 29 28
f 30 31 32
f 12 33 13
f 18 32 20
f 20 32 34
f 34 32 31
f 35 36 37
f 37 38 30
f 35 30 32
f 39 30 38
f 19 20 34
f 31 30 39
f 13 40 35
f 35 40 36
f 33 41 40
f 40 41 42
f 42 36 40
f 35 18 13
f 33 40 13
f 32 18 35
f 30 35 37
f 43 44 39
f 45 31 39
f 46 47 44
f 38 43 39
f 48 26 27
f 31 45 49
f 39 44 47
f 45 46 50
f 27 46 48
f 51 48 52
f 46 53 48
f 48 53 52
f 53 46 44
f 29 19 34
f 29 34 28
f 50 27 21
f 49 50 21
f 49 21 28
f 28 34 31
f 28 31 49
f 27 50 46
f 49 45 50
f 46 45 47
f 47 45 39
f 12 14 54
f 14 55 54
f 56 55 57
f 54 55 56
f 56 57 58
f 15 59 17
f 15 16 59
f 14 17 55
f 55 59 57
f 55 17 59
f 25 60 23
f 57 61 58
f 26 62 25
f 22 26 25
f 57 59 61
f 61 59 63
f 60 25 62
f 64 58 62
f 58 61 62
f 24 23 63
f 61 63 60
f 63 59 16
f 16 24 63
f 61 60 62
f 23 60 63
f 65 66 67
f 68 26 48
f 69 58 64
f 64 70 66
f 66 70 67
f 66 65 71
f 72 48 51
f 72 73 48
f 48 73 68
f 70 62 26
f 71 69 64
f 71 64 66
f 68 70 26
f 68 73 67
f 68 67 70
f 70 64 62
f 58 74 56
f 75 54 56
f 33 12 76
f 76 12 54
f 41 33 76
f 41 76 77
f 74 71 78
f 74 58 69
f 79 74 78
f 79 78 80
f 81 82 76
f 76 82 77
f 80 82 79
f 75 56 74
f 75 74 79
f 74 69 71
f 54 75 76
f 76 75 81
f 75 79 81
f 81 79 82
f 83 84 85
f 85 84 78
f 84 86 80
f 71 85 78
f 86 77 82
f 86 82 80
f 78 84 80
f 72 87 88
f 87 72 89
f 87 89 90
f 87 91 88
f 92 93 87
f 87 84 83
f 83 91 87
f 87 77 86
f 87 86 84
f 87 93 77
f 42 94 95
f 96 95 94
f 97 98 95
f 97 95 96
f 99 98 100
f 100 98 97
f 101 99 100
f 94 42 41
f 100 92 87
f 92 100 97
f 90 102 101
f 93 94 77
f 77 94 41
f 93 96 94
f 92 97 96
f 92 96 93
f 100 87 101
f 101 87 90
f 89 102 90
f 89 51 102
f 72 51 89
f 102 51 103
f 101 104 99
f 105 104 102
f 102 104 101
f 102 103 105
f 103 51 52
f 91 83 85
f 91 85 65
f 73 72 88
f 73 88 67
f 67 88 91
f 67 91 65
f 85 71 65
f 106 107 108
f 99 104 109
f 103 52 53
f 109 104 105
f 110 99 109
f 110 98 99
f 111 95 98
f 111 98 110
f 112 95 111
f 95 112 42
f 36 42 112
f 37 36 112
f 113 38 37
f 114 44 43
f 53 44 114
f 38 113 43
f 53 115 103
f 103 115 105
f 111 108 112
f 112 108 113
f 112 113 37
f 113 116 43
f 43 116 114
f 114 107 53
f 53 107 115
f 105 115 109
f 109 115 106
f 109 106 110
f 110 106 111
f 111 106 108
f 113 108 116
f 114 116 107
f 116 108 107
f 115 107 106

