# https://github.com/mikedh/trimesh
v 0.03562653 0.07926892 0.10705569
v 0.04998704 0.07442021 0.10600994
v 0.05032838 0.07473971 0.10247105
v 0.05032913 -0.06861567 0.10287225
v 0.04997790 -0.06861567 0.10601385
v 0.02612378 0.01435228 0.00029943
v 0.03042321 0.00587674 0.00029943
v 0.02399437 0.01659326 0.00029943
v -0.11037296 0.09870752 0.00943444
v -0.09404029 -0.11261415 0.10700434
v -0.10336429 0.09852054 0.10705160
v 0.04273151 0.07442025 0.10694917
v -0.11270843 0.09851842 0.09774297
v -0.11339436 0.09858325 0.00943444
v -0.11215141 -0.10425172 0.09708942
v -0.11221141 -0.10418561 0.00943444
v -0.05754683 -0.02815248 0.00006623
v -0.05754355 0.02911791 0.00006115
v 0.02398770 -0.01563019 0.00029943
v 0.03462631 -0.08959661 0.08741655
v -0.08005457 -0.12538929 0.01249878
v 0.04529873 -0.07588869 0.10673539
v -0.10261993 -0.10176496 0.10692251
v -0.09855122 0.10903352 0.10322270
v -0.10941843 -0.11063218 0.00943444
v -0.09853448 -0.12152760 0.00943444
v 0.01583112 -0.01772720 0.00016044
v 0.01821532 0.01844016 0.00029943
v -0.08600373 -0.12548120 0.00998812
v 0.03042016 -0.00492011 0.00029943
v 0.04273151 -0.07588869 0.10694917
v -0.00065390 0.09165765 0.10242647
v -0.02217426 0.09744788 0.10341427
v -0.10051401 -0.10612845 0.10700316
v -0.09771215 0.10836103 0.10705176
v -0.08316614 0.10836098 0.10405217
v -0.10104983 -0.11982097 0.09711209
v -0.09848734 -0.12155552 0.09705143
v -0.10772450 -0.11313765 0.09711042
v -0.10941400 -0.11064937 0.09705123
v -0.03996878 0.02813751 0.00029943
v -0.09208357 -0.12432144 0.00943444
v 0.02611717 -0.01339080 0.00029943
v -0.07667397 -0.11464068 0.10683667
v -0.00077040 0.09129018 0.10705460
v -0.10515613 -0.11292116 0.09928866
v -0.07566846 -0.12455415 0.01622614
v -0.07430768 -0.12415528 0.09705175
v 0.03239204 -0.09030529 0.09705530
v -0.07644735 -0.12447190 0.09732316
v -0.08316609 0.10836098 0.10705221
v -0.10969492 -0.10416489 0.09945827
v -0.09209910 -0.12427871 0.09708829
v 0.03001178 -0.08074690 0.10688589
v -0.10077231 -0.11729664 0.09928944
v 0.03505688 -0.08863910 0.09783742
v -0.02255757 0.09623929 0.10705395
v -0.08968101 -0.11472733 0.10692202
v -0.09201021 -0.12182543 0.09945747
v 0.11772009 0.05680863 0.02889553
v 0.11772019 -0.05585285 0.02889540
v 0.11787990 0.04238530 -0.03371812
v 0.10505342 -0.04614822 -0.04042563
v 0.10385504 -0.05492954 -0.03617495
v 0.03528656 -0.08938714 0.08762453
v 0.10505639 0.04710282 -0.04042577
v 0.11129531 0.04461642 -0.04058229
v 0.11766573 0.05793295 -0.02067827
v 0.11520562 -0.05676265 0.03845669
v 0.11520524 0.05771901 0.03845654
v 0.10553383 0.06032665 0.06210520
v 0.09592326 0.06304680 0.07601318
v 0.09594131 -0.06208641 0.07600198
v 0.03077773 -0.07104001 0.10405555
v 0.05001042 0.08567172 0.08826683
v 0.05594489 -0.07333037 0.10443746
v 0.05594458 0.07428737 0.10443641
v 0.04926348 0.07725421 0.10492512
v 0.10485133 0.06687861 -0.02091947
v 0.10381714 0.06261871 -0.02968615
v 0.10508180 0.06689103 -0.02066349
v 0.10385780 0.05588525 -0.03617413
v 0.10984189 0.06662308 -0.01399360
v 0.10795207 0.06729015 0.03846178
v 0.11028833 0.06494354 0.03603192
v 0.10403873 -0.06332064 -0.02715037
v 0.11745888 0.04891517 -0.03140808
v 0.11215860 0.05332825 -0.03612616
v 0.11262892 0.05807293 -0.03178409
v 0.10553386 -0.05937089 0.06210523
v 0.11032759 -0.05799656 0.05250256
v 0.10795213 -0.06633431 0.03846146
v 0.10984202 -0.06566722 -0.01399361
v 0.09156850 -0.07148571 0.06932620
v 0.08662718 0.06565524 0.08544222
v 0.07697538 0.07689849 0.08322449
v 0.07489640 0.06910981 0.09472826
v 0.07489491 -0.06815439 0.09472701
v 0.06267134 -0.08053376 0.09240937
v 0.06542552 -0.07121932 0.10005579
v 0.11033060 0.05895145 0.05249575
v 0.04924767 0.08464500 0.09775072
v 0.03077786 -0.07104001 0.10705554
v 0.03065926 -0.08036352 0.10705554
v 0.03562653 -0.07104001 0.10705569
v 0.11307227 0.06254771 -0.02510824
v 0.10998923 0.05737881 -0.03335783
v 0.10745673 0.06673838 -0.01840302
v 0.11530062 0.06270615 0.00990370
v 0.09157695 0.07243930 0.06931602
v 0.10484878 -0.06592360 -0.02092037
v 0.11215859 -0.05237241 -0.03612624
v 0.11786523 -0.04122508 -0.03377236
v 0.11745708 -0.04793930 -0.03141411
v 0.11766673 -0.05698021 -0.02068074
v 0.11278411 0.05146425 -0.03632824
v 0.11027585 0.05101316 -0.03796614
v 0.11756410 0.05560686 -0.02505218
v 0.09835985 -0.06383321 0.06915915
v 0.06401215 -0.08027424 0.08312619
v 0.11530122 -0.06174989 0.00990666
v 0.11028403 -0.06398527 0.03604768
v 0.00411014 0.07926892 0.10705475
v 0.04236704 0.07769240 0.10697269
v 0.05088491 0.07581531 0.10114282
v 0.05048355 0.08237427 0.08818696
v -0.07430770 0.12511109 0.09705179
v -0.07566890 0.12551020 0.01622454
v 0.03562653 0.07442025 0.10705569
v -0.11215103 0.10521068 0.09708891
v -0.10941824 0.11158837 0.00943444
v -0.10354081 0.11883590 0.00943444
v 0.03562640 0.07442025 0.10405570
v -0.08005508 0.12634510 0.01249831
v 0.04669233 0.08151191 0.10186227
v 0.04669635 0.08645424 0.09710640
v -0.07644800 0.12542506 0.09732661
v -0.07667399 0.11559652 0.10683662
v 0.02508533 0.09357928 0.09705507
v -0.09403975 0.11356944 0.10700491
v -0.10261954 0.10272073 0.10692282
v -0.10772435 0.11409365 0.09711039
v -0.10941391 0.11160523 0.09705123
v -0.10105016 0.12077735 0.09711131
v -0.11221141 0.10514151 0.00943444
v -0.09853418 0.12248347 0.00943444
v -0.07992493 0.12330688 0.01257861
v -0.08622090 0.12340138 0.00994063
v 0.00411001 0.07926892 0.10405475
v -0.08968072 0.11568205 0.10692291
v -0.09209940 0.12523462 0.09708805
v -0.08600470 0.12643690 0.00998801
v 0.03964945 0.08393901 0.10184008
v -0.09848756 0.12251113 0.09705143
v -0.10969499 0.10512072 0.09945689
v -0.10051307 0.10708386 0.10700405
v -0.10517870 0.11384930 0.09928713
v -0.09208358 0.12527721 0.00943444
v -0.09200831 0.12278183 0.09945760
v -0.10077256 0.11825246 0.09928814
f 1 2 3
f 4 3 2
f 4 2 5
f 6 3 7
f 6 8 3
f 9 3 8
f 10 1 11
f 12 2 1
f 13 14 15
f 16 15 14
f 16 14 17
f 18 17 14
f 18 8 6
f 18 14 9
f 19 20 21
f 22 4 5
f 22 20 4
f 22 5 2
f 22 2 12
f 23 13 15
f 23 11 13
f 24 9 14
f 24 14 13
f 25 16 17
f 25 17 26
f 27 18 6
f 27 6 7
f 27 17 18
f 28 9 8
f 28 8 18
f 29 19 21
f 30 4 20
f 30 7 3
f 30 3 4
f 30 27 7
f 31 1 10
f 31 22 12
f 31 12 1
f 32 1 3
f 32 3 9
f 32 9 33
f 34 10 11
f 34 11 23
f 35 24 13
f 35 13 11
f 36 33 9
f 36 9 24
f 37 26 38
f 37 38 10
f 37 25 26
f 37 39 25
f 40 25 39
f 40 15 16
f 40 16 25
f 40 39 34
f 40 34 23
f 41 28 18
f 41 18 9
f 41 9 28
f 42 27 19
f 42 19 29
f 42 17 27
f 42 26 17
f 42 38 26
f 43 30 20
f 43 20 19
f 43 19 27
f 43 27 30
f 44 31 10
f 45 32 33
f 45 1 32
f 46 34 39
f 46 10 34
f 46 39 37
f 47 48 21
f 47 21 20
f 47 20 48
f 49 48 20
f 49 44 48
f 50 29 21
f 50 21 48
f 50 48 44
f 51 36 24
f 51 24 35
f 51 1 45
f 51 35 11
f 51 11 1
f 51 33 36
f 52 40 23
f 52 23 15
f 52 15 40
f 53 42 29
f 53 38 42
f 53 29 50
f 54 22 31
f 54 31 44
f 54 44 49
f 55 46 37
f 55 37 10
f 55 10 46
f 56 49 20
f 56 20 22
f 56 54 49
f 56 22 54
f 57 51 45
f 57 45 33
f 57 33 51
f 58 10 38
f 58 44 10
f 58 53 50
f 58 50 44
f 59 58 38
f 59 38 53
f 59 53 58
f 60 61 62
f 63 64 65
f 63 65 66
f 67 63 66
f 68 60 62
f 69 60 70
f 69 61 60
f 71 72 73
f 74 75 65
f 31 76 77
f 31 77 78
f 79 80 75
f 79 75 81
f 82 75 80
f 82 66 65
f 82 65 75
f 83 75 84
f 85 84 70
f 85 70 60
f 86 65 64
f 87 88 89
f 90 71 73
f 90 91 71
f 92 65 93
f 92 69 91
f 92 90 94
f 92 91 90
f 95 73 72
f 95 96 97
f 98 95 97
f 98 73 95
f 98 99 94
f 98 94 73
f 100 97 77
f 100 77 76
f 100 98 97
f 100 76 99
f 100 99 98
f 101 71 91
f 101 70 84
f 101 84 71
f 101 69 70
f 101 91 69
f 102 74 103
f 102 75 74
f 102 103 78
f 102 96 75
f 102 78 77
f 102 77 97
f 102 97 96
f 104 74 65
f 104 103 74
f 104 65 99
f 104 99 76
f 104 76 31
f 105 31 78
f 105 78 103
f 105 104 31
f 105 103 104
f 106 79 81
f 106 89 80
f 106 80 79
f 107 82 80
f 107 80 89
f 107 88 82
f 107 89 88
f 108 81 75
f 108 75 83
f 108 106 81
f 108 83 106
f 109 60 68
f 109 106 83
f 109 68 106
f 109 85 60
f 109 83 84
f 109 84 85
f 110 84 75
f 110 75 96
f 110 71 84
f 110 72 71
f 110 95 72
f 110 96 95
f 111 93 65
f 111 65 86
f 112 64 63
f 112 86 64
f 113 62 61
f 113 67 62
f 113 114 112
f 113 112 63
f 113 63 67
f 115 112 114
f 115 86 112
f 115 111 86
f 115 93 111
f 115 113 61
f 115 114 113
f 116 62 67
f 116 67 88
f 116 87 62
f 116 88 87
f 117 88 67
f 117 67 66
f 117 66 82
f 117 82 88
f 118 68 62
f 118 62 87
f 118 87 89
f 118 106 68
f 118 89 106
f 119 90 73
f 119 73 94
f 119 94 90
f 120 92 94
f 120 65 92
f 120 99 65
f 120 94 99
f 121 92 93
f 121 115 61
f 121 93 115
f 122 61 69
f 122 69 92
f 122 121 61
f 122 92 121
f 123 11 13
f 123 13 14
f 78 124 2
f 75 125 126
f 127 75 128
f 129 11 123
f 130 14 13
f 130 13 11
f 131 132 14
f 9 125 14
f 9 126 125
f 9 14 132
f 133 125 2
f 133 14 125
f 133 2 129
f 134 75 126
f 134 128 75
f 134 127 128
f 135 78 136
f 135 136 124
f 135 124 78
f 102 78 2
f 102 2 125
f 102 125 75
f 102 75 136
f 102 136 78
f 137 138 127
f 137 127 134
f 139 136 75
f 139 75 127
f 139 127 138
f 139 138 124
f 12 129 2
f 12 2 124
f 12 124 129
f 140 129 124
f 140 11 129
f 141 130 11
f 142 131 143
f 142 132 131
f 142 144 132
f 145 130 143
f 145 143 131
f 145 131 14
f 145 14 130
f 146 132 144
f 146 9 132
f 147 9 148
f 147 126 9
f 147 134 126
f 149 123 14
f 149 14 133
f 149 133 129
f 149 129 123
f 150 137 151
f 150 138 137
f 150 140 124
f 150 124 138
f 152 137 134
f 152 151 137
f 152 147 148
f 152 134 147
f 153 139 124
f 153 124 136
f 153 136 139
f 154 144 140
f 154 146 144
f 154 140 150
f 155 141 143
f 155 143 130
f 155 130 141
f 156 141 11
f 156 11 140
f 156 142 143
f 156 143 141
f 157 144 142
f 157 156 140
f 157 142 156
f 158 148 9
f 158 9 146
f 158 152 148
f 158 151 152
f 158 154 151
f 158 146 154
f 159 154 150
f 159 150 151
f 159 151 154
f 160 157 140
f 160 140 144
f 160 144 157

