# https://github.com/mikedh/trimesh
v 0.02952849 0.07103294 0.00000698
v 0.02064860 0.00325706 0.09918772
v -0.05843495 0.05659580 0.04502464
v -0.08264221 0.12816454 -0.00972294
v -0.11059481 0.09509642 0.04158327
v -0.03307955 0.09351561 0.00030698
v 0.07485095 0.07083882 -0.00447887
v 0.07743559 0.07175346 0.00956592
v 0.00487412 0.01675742 0.10549016
v 0.07720417 0.07057489 0.01059769
v 0.05983169 0.10357485 -0.02172001
v 0.02082563 0.00328128 0.09957254
v -0.00644082 0.00946921 0.11840671
v -0.03081949 0.02379232 0.11149795
v -0.01371710 0.00387009 0.11289941
v -0.02040859 0.00766772 0.11054535
v -0.10121677 0.11383338 0.02372393
v -0.05898859 0.13643481 -0.02932625
v -0.10299338 0.06309491 0.07716372
v -0.11061901 0.06898880 0.07361715
v 0.03788038 0.11165413 -0.02304482
v 0.05443443 0.09790410 -0.02839040
v -0.03929411 0.13921039 -0.02448293
v -0.04761254 0.14206344 -0.02469188
v -0.05910146 0.14350311 -0.02161883
v -0.07040139 0.14041594 -0.01329721
v -0.06368193 0.14253411 -0.01907274
v -0.05621502 0.14381051 -0.02364914
v 0.06684428 0.08676425 -0.02034013
v 0.07637090 0.06696919 0.00273171
v -0.01292343 0.01355731 0.11658884
v -0.10645875 0.07492271 0.08047232
v -0.10928541 0.07761316 0.07788498
v 0.01862500 0.00317815 0.10059145
v -0.01711272 0.01408689 0.11716565
v -0.08971172 0.12649953 0.00487554
v -0.10117131 0.11565242 0.02863610
v -0.10812498 0.10377105 0.04613960
v -0.08610657 0.13140295 0.00397306
v -0.10695726 0.10502955 0.03669190
v -0.06732558 0.13474979 -0.02390260
v -0.07647915 0.13749894 -0.00864945
v 0.00428410 0.11533166 -0.02954772
v -0.05608923 0.13731912 -0.02981340
v -0.05037379 0.13754573 -0.02904796
v -0.11115246 0.08737139 0.06734187
v -0.11216839 0.08683806 0.06364700
v -0.11234637 0.07218070 0.07033398
v -0.11361901 0.08452065 0.05558788
v -0.11229870 0.09153902 0.04657312
v -0.04756164 0.14201470 -0.02499659
v -0.03932579 0.13915570 -0.02488998
v -0.08355793 0.13351300 -0.00009764
v 0.03794748 0.11168411 -0.02262229
v -0.05911976 0.13674648 -0.02925493
v -0.06066656 0.14312826 -0.02101592
v 0.05951536 0.09511062 -0.02756676
v 0.06703176 0.09788661 -0.01777477
v 0.07800309 0.07182074 0.00674789
v -0.00094043 0.01362722 0.11163446
v -0.10484131 0.07308932 0.08154372
v -0.00821093 0.00420766 0.11405115
v -0.01912111 0.00684292 0.11150446
v -0.01201751 0.00892201 0.11708149
v 0.07002509 -0.06097499 0.02422342
v 0.07451911 -0.06261530 0.00438226
v 0.07675127 0.07055898 0.01128265
v 0.07577454 0.06538262 0.00222288
v -0.01598822 0.08762915 0.01215557
v 0.07439975 0.06750384 -0.00026684
v -0.02224400 -0.08995759 0.02687749
v 0.05593142 -0.04360538 0.05110035
v 0.03172850 0.01383652 0.09761896
v 0.06197900 -0.05400491 0.00030698
v 0.07515451 0.06630669 0.00087259
v -0.03275792 0.03181130 0.10259880
v -0.03884812 0.08525082 0.04051895
v -0.05508277 0.05584061 0.08264424
v -0.06513283 0.07805534 0.04369313
v -0.03396934 0.07729071 0.00087103
v -0.05163568 0.07163878 0.00030698
v -0.01689561 0.08493198 0.03198259
v 0.02660923 0.01123456 0.10332860
v 0.07413398 0.06670947 0.01651485
v 0.03153947 0.01419226 0.09775203
v -0.02434754 -0.09190135 0.00918425
v 0.06866746 -0.05948522 0.02674159
v -0.06363680 -0.07883634 0.05713403
v 0.02878525 0.01168568 0.10141330
v -0.05491188 0.06645144 0.00030698
v -0.05881738 0.05412277 0.00030698
v -0.03794072 0.08794799 0.02069193
v -0.02666341 0.08606177 0.00948347
v -0.03128805 -0.07613537 0.00092523
v -0.01713078 -0.06394623 0.05622117
v -0.01613384 0.02377444 0.10555127
v -0.05449649 0.04103846 0.08408686
v -0.06555984 0.07678611 0.04539990
v -0.06265767 -0.09277663 0.02369618
v -0.06356507 -0.09007946 0.04352319
v 0.02670268 0.01082147 0.10330360
v -0.05699794 -0.06026712 0.00030698
v -0.05162874 -0.07064998 0.00030698
v -0.05964673 -0.09353005 0.02156240
v -0.03488865 -0.09125983 0.00918182
v -0.03122260 0.07770754 0.00132155
v -0.03286868 0.08467358 0.00810002
v 0.05723697 -0.05652475 0.00030698
v -0.06381444 -0.08382328 0.05118200
v 0.03338373 -0.01083140 0.08414063
v 0.00584707 0.01670953 0.10515261
v -0.03410798 -0.07652314 0.00117888
v 0.00491478 -0.05531145 0.00849439
v 0.05599874 -0.05680804 0.00000698
v 0.05516946 -0.09664232 -0.02837264
v -0.04742382 -0.13313054 -0.03075637
v -0.05899582 -0.13540003 -0.02928103
v -0.01608127 -0.01467389 0.06800699
v -0.01195488 -0.03324172 0.04179848
v 0.02528080 -0.01467389 0.06800699
v 0.06593438 -0.08823346 -0.02258961
v 0.03234242 -0.00986474 0.08524554
v -0.07308829 -0.13836534 -0.01096923
v -0.04751340 -0.14105579 -0.02457962
v -0.08685821 -0.12979624 0.00501170
v 0.05922474 -0.10289921 -0.02186490
v -0.10595001 -0.07353218 0.08073761
v 0.02660923 -0.01023477 0.10332860
v -0.04658165 -0.04122453 0.04501338
v -0.05950022 -0.03397619 0.06707603
v -0.08271942 -0.12714534 -0.00966807
v -0.11100666 -0.09396681 0.04190750
v -0.11118694 -0.08640629 0.06731395
v 0.00427923 -0.11433361 -0.02954784
v -0.00328877 -0.00895925 0.11702001
v -0.00157372 -0.00813065 0.11683790
v -0.00722320 -0.00955425 0.11790019
v -0.01912751 -0.00584741 0.11150187
v 0.07720121 -0.07062360 0.00124225
v 0.07577696 -0.06438754 0.00221620
v 0.07720657 -0.06957982 0.01059102
v 0.07743800 -0.07075839 0.00955925
v 0.07790019 -0.07603620 0.00250982
v 0.06955605 -0.09259148 -0.01361188
v 0.07487259 -0.07071371 -0.00505826
v 0.06829251 -0.09524281 -0.01678717
v 0.02658319 -0.00980365 0.10337394
v 0.02445583 -0.00314310 0.09777501
v 0.02583693 -0.00343163 0.09614657
v 0.04555495 -0.02630678 0.06006074
v -0.06358813 -0.13502072 -0.02647050
v -0.05627933 -0.14278351 -0.02359015
v -0.06466431 -0.14124924 -0.01820847
v -0.06368193 -0.14153431 -0.01907274
v -0.04764295 -0.14105527 -0.02486418
v -0.00077694 -0.12443276 -0.02397869
v 0.00135300 -0.05330080 0.01215879
v -0.06388615 -0.13457906 -0.02630188
v -0.11359811 -0.08353444 0.05556297
v -0.11311263 -0.07482335 0.06588867
v -0.11173291 -0.06967116 0.07155179
v -0.09566317 -0.11923700 0.01353568
v -0.08244901 -0.13313885 -0.00130408
v -0.10952125 -0.07690977 0.07762280
v -0.02281633 -0.12443821 -0.03025659
v 0.03794261 -0.11068605 -0.02262240
v 0.05103368 -0.09786410 -0.02844198
v 0.00440099 -0.00913742 0.11367965
v -0.10153665 -0.06118882 0.07814068
v -0.01580906 -0.01221246 0.11769240
v -0.00879893 -0.00146007 0.11260431
v 0.03172850 -0.01283672 0.09761896
v 0.07754931 -0.07709859 0.00136905
v 0.02709084 -0.00395197 0.09500840
v 0.07545877 -0.06444045 0.00657832
v -0.06065509 -0.14214627 -0.02104211
f 1 2 3
f 4 3 5
f 6 1 3
f 7 2 1
f 8 9 10
f 8 11 9
f 12 10 9
f 12 9 13
f 14 9 11
f 15 16 3
f 15 3 2
f 17 4 5
f 18 6 3
f 18 1 6
f 19 20 3
f 19 3 16
f 21 11 22
f 23 24 25
f 26 25 27
f 26 23 25
f 28 25 24
f 29 7 1
f 30 10 12
f 30 12 2
f 30 2 7
f 31 9 14
f 32 33 20
f 34 15 2
f 34 2 12
f 34 12 13
f 35 31 14
f 35 13 31
f 36 4 17
f 37 38 39
f 37 36 17
f 37 39 36
f 40 17 5
f 40 37 17
f 40 38 37
f 41 18 3
f 41 3 4
f 41 26 27
f 41 4 42
f 41 42 26
f 43 1 18
f 43 18 44
f 43 45 22
f 43 44 45
f 46 38 47
f 46 33 32
f 46 39 38
f 46 26 39
f 46 23 26
f 46 32 14
f 46 14 11
f 46 11 23
f 48 20 33
f 48 46 47
f 48 33 46
f 48 47 49
f 48 49 3
f 48 3 20
f 50 5 3
f 50 3 49
f 50 40 5
f 50 38 40
f 50 49 47
f 50 47 38
f 51 45 44
f 51 24 23
f 51 28 24
f 51 44 28
f 52 21 22
f 52 22 45
f 52 45 51
f 52 51 23
f 52 23 21
f 53 42 4
f 53 26 42
f 53 39 26
f 53 36 39
f 53 4 36
f 54 23 11
f 54 11 21
f 54 21 23
f 55 28 44
f 55 44 18
f 55 41 27
f 55 18 41
f 56 27 25
f 56 25 28
f 56 55 27
f 56 28 55
f 57 29 1
f 57 22 11
f 57 43 22
f 57 1 43
f 58 7 29
f 58 11 8
f 58 57 11
f 58 29 57
f 59 8 10
f 59 10 30
f 59 30 7
f 59 58 8
f 59 7 58
f 60 31 13
f 60 13 9
f 60 9 31
f 61 32 20
f 61 20 19
f 61 35 14
f 61 14 32
f 62 34 13
f 62 15 34
f 63 16 15
f 63 19 16
f 63 61 19
f 63 35 61
f 64 13 35
f 64 62 13
f 64 15 62
f 64 63 15
f 64 35 63
f 65 66 67
f 68 67 66
f 69 67 70
f 71 66 65
f 72 65 73
f 74 70 66
f 75 70 67
f 75 67 68
f 75 68 66
f 75 66 70
f 76 77 78
f 79 78 77
f 80 70 81
f 82 67 69
f 82 76 83
f 82 77 76
f 84 73 65
f 84 65 67
f 84 67 73
f 85 73 67
f 85 82 83
f 85 67 82
f 86 66 71
f 87 71 65
f 87 65 72
f 87 88 71
f 87 72 88
f 89 72 73
f 89 85 83
f 89 73 85
f 90 79 81
f 90 91 79
f 90 81 70
f 90 70 91
f 92 81 79
f 92 79 77
f 92 82 69
f 92 77 82
f 93 69 70
f 93 92 69
f 94 66 86
f 95 88 72
f 96 83 76
f 96 76 88
f 97 88 76
f 97 76 78
f 97 78 88
f 98 99 100
f 98 79 91
f 98 91 99
f 98 88 78
f 98 78 79
f 101 89 83
f 101 72 89
f 101 88 95
f 102 99 91
f 102 103 99
f 102 91 70
f 102 70 103
f 104 86 71
f 104 71 100
f 104 100 99
f 104 105 86
f 104 99 103
f 104 103 105
f 106 93 70
f 106 70 80
f 106 80 93
f 107 93 80
f 107 80 81
f 107 81 92
f 107 92 93
f 108 74 66
f 108 66 94
f 108 94 103
f 108 103 70
f 108 70 74
f 109 98 100
f 109 88 98
f 109 100 71
f 109 71 88
f 110 101 95
f 110 95 72
f 110 72 101
f 111 96 88
f 111 88 101
f 111 101 83
f 111 83 96
f 112 94 86
f 112 86 105
f 112 105 103
f 112 103 94
f 113 114 115
f 116 117 113
f 118 113 119
f 118 114 113
f 118 120 114
f 121 115 114
f 122 114 120
f 123 124 125
f 126 115 121
f 126 127 125
f 126 125 124
f 126 128 127
f 129 118 119
f 129 130 118
f 131 132 129
f 133 125 127
f 134 116 113
f 135 136 137
f 135 137 127
f 135 127 128
f 138 118 130
f 139 140 141
f 142 139 141
f 142 143 139
f 142 126 144
f 142 128 126
f 145 121 114
f 145 114 140
f 145 140 139
f 146 126 121
f 146 144 126
f 146 121 145
f 147 148 136
f 147 136 128
f 149 120 118
f 150 140 114
f 150 114 122
f 151 117 152
f 151 123 131
f 153 151 154
f 153 123 151
f 153 152 124
f 153 124 123
f 155 124 152
f 155 156 124
f 155 116 156
f 155 152 117
f 155 117 116
f 157 129 119
f 157 119 113
f 157 113 129
f 158 129 113
f 158 113 117
f 158 131 129
f 158 151 131
f 158 117 151
f 159 129 132
f 159 132 133
f 160 161 130
f 160 130 129
f 160 129 159
f 160 159 133
f 162 131 125
f 162 132 131
f 162 133 132
f 162 125 133
f 163 131 123
f 163 123 125
f 163 125 131
f 164 133 127
f 164 127 161
f 164 160 133
f 164 161 160
f 165 156 116
f 165 115 156
f 165 116 134
f 166 126 124
f 166 124 156
f 166 156 115
f 166 115 126
f 167 134 113
f 167 113 115
f 167 165 134
f 167 115 165
f 168 135 128
f 168 128 136
f 168 136 135
f 169 161 127
f 169 138 130
f 169 130 161
f 170 127 137
f 170 169 127
f 170 138 169
f 171 137 136
f 171 136 148
f 171 118 138
f 171 149 118
f 171 148 149
f 171 170 137
f 171 138 170
f 172 142 141
f 172 128 142
f 172 147 128
f 173 144 146
f 173 142 144
f 173 143 142
f 173 146 145
f 173 145 139
f 173 139 143
f 174 122 120
f 174 120 149
f 174 172 122
f 174 147 172
f 174 149 148
f 174 148 147
f 175 141 140
f 175 140 150
f 175 172 141
f 175 150 122
f 175 122 172
f 176 151 152
f 176 154 151
f 176 153 154
f 176 152 153

