# https://github.com/mikedh/trimesh
v -0.00448331 -0.11422882 -0.05164181
v 0.02024467 -0.13115045 -0.05131869
v -0.01463837 -0.13376710 -0.05302506
v 0.03247064 -0.11899947 0.05151121
v 0.02156851 -0.15061897 0.05180443
v 0.04557872 -0.13386033 0.03350827
v 0.02653415 -0.08893257 0.06978626
v 0.05395008 -0.06794320 0.03982345
v 0.03905752 -0.07146947 0.07037203
v 0.05388962 -0.13233063 0.01203583
v 0.05487644 -0.10169152 0.00035867
v 0.05533906 -0.19201846 0.01366755
v 0.02911183 -0.19199975 0.04741880
v -0.00571460 -0.19200347 -0.05575034
v 0.04997548 -0.19200036 -0.02350294
v 0.04322930 -0.11490328 -0.03193335
v 0.02989135 -0.19199854 -0.04712332
v -0.00527106 -0.14975815 0.05544751
v -0.00581857 -0.19200066 0.05596125
v 0.01410640 -0.11966223 0.06098137
v -0.00028608 -0.09592899 0.07376359
v 0.01904104 -0.10487307 -0.04452867
v 0.00331586 -0.10010721 -0.04491547
v 0.03730411 -0.09202930 -0.02054812
v 0.00632318 -0.08603034 -0.02839035
v 0.03990874 -0.08403137 0.00044308
v 0.01329578 -0.07570359 -0.00034519
v 0.02139866 -0.06672177 0.01072149
v 0.04331193 -0.06927001 0.01883593
v -0.00766381 -0.06386797 0.00972459
v 0.05423035 -0.02103556 0.05443029
v 0.04836340 -0.03948901 0.02996756
v 0.05263738 -0.02015840 0.00047019
v 0.05244017 0.00305171 0.09510347
v 0.01316940 -0.05758005 0.00821467
v 0.03624691 -0.04711170 0.01179759
v 0.04082103 -0.05264939 0.02085523
v -0.00234333 -0.05509932 0.00261853
v 0.02283994 -0.05090469 0.00047401
v 0.04359308 -0.01989849 0.11031855
v 0.02700322 -0.03081856 0.11783294
v 0.01056224 -0.04005164 0.11757076
v 0.01285904 -0.07032405 0.08961329
v -0.01436093 -0.06503502 0.09435726
v -0.03567334 -0.03275460 0.11030695
v -0.03257400 -0.06794229 0.08033980
v -0.02629961 -0.11034684 0.05841264
v -0.01280983 -0.12017644 0.06042685
v -0.02485981 -0.14960857 0.04994541
v -0.03951081 -0.19199520 0.03916845
v -0.05353234 -0.19190580 0.01330693
v -0.05406889 -0.19202417 -0.01518310
v -0.03598330 -0.19185661 -0.04301447
v -0.04046040 -0.12956694 0.04052498
v -0.04278636 -0.07871542 0.06100877
v -0.05020518 -0.10408411 0.03309105
v -0.05392920 -0.13846698 0.01205317
v -0.05487147 -0.10558010 -0.00308920
v -0.05388615 -0.08171660 0.02584784
v -0.05430375 -0.04561837 0.05343082
v -0.04650968 -0.02111424 0.10358147
v -0.05049955 0.00082027 0.10094093
v -0.05465437 0.00973486 0.05645981
v -0.04143087 -0.00839779 0.11684505
v -0.01454089 -0.02757849 0.12397245
v 0.04175064 -0.00165723 0.11711179
v 0.01218369 0.01554183 0.12800112
v -0.02201320 0.00639214 0.12729527
v 0.00948658 -0.00833770 0.12951264
v -0.04434361 0.01906170 0.10854576
v -0.03066239 0.03501421 0.11226251
v 0.00295292 0.04673513 0.11185504
v -0.01439470 0.02780103 0.12281401
v 0.01818648 0.03734411 0.11757360
v 0.03970473 0.01992463 0.11447095
v 0.04793920 0.02062658 0.09670638
v 0.02885062 0.04099089 0.10337995
v -0.01581601 0.04713999 0.10300729
v 0.02924148 0.04761830 0.06509522
v -0.00929164 0.05453198 0.06387785
v 0.05258440 0.01912785 0.00049638
v 0.03409211 0.04369026 0.00050124
v 0.00741915 0.05529462 0.00050004
v -0.04047544 0.03840234 0.06397995
v -0.02940454 0.04868356 0.00047504
v -0.05494253 0.01198306 0.00050072
v -0.04881842 -0.05113659 0.03352151
v -0.04179380 -0.07258925 0.01754155
v -0.02075101 -0.07199795 0.00804604
v -0.02854909 -0.05475996 0.01261070
v -0.05161045 -0.02731545 0.02596047
v -0.04049516 -0.05272162 0.02040726
v -0.04249876 -0.03877387 0.01240180
v -0.05297195 -0.01628842 0.00050559
v -0.03099895 -0.04699421 0.00055816
v -0.04336201 -0.09318431 -0.01262413
v -0.04991357 -0.11566465 -0.02226783
v -0.01917345 -0.09245580 -0.03483879
v -0.03491114 -0.11102606 -0.03837368
f 1 2 3
f 4 5 6
f 4 6 7
f 6 8 9
f 6 9 7
f 10 11 8
f 10 8 6
f 12 11 10
f 5 13 6
f 12 6 13
f 12 10 6
f 2 14 3
f 15 11 12
f 15 16 11
f 16 15 17
f 17 2 16
f 14 2 17
f 18 19 5
f 13 5 19
f 4 7 20
f 20 5 4
f 7 21 20
f 5 20 18
f 22 2 1
f 22 1 23
f 16 22 24
f 11 16 24
f 22 23 25
f 26 24 27
f 27 24 25
f 16 2 22
f 24 22 25
f 24 26 11
f 27 28 29
f 27 30 28
f 26 27 29
f 26 29 11
f 8 11 29
f 31 8 32
f 31 33 34
f 32 33 31
f 28 30 35
f 35 36 28
f 37 29 28
f 37 28 36
f 36 32 37
f 37 32 29
f 29 32 8
f 38 39 35
f 33 32 36
f 33 36 39
f 36 35 39
f 40 41 9
f 40 9 8
f 40 8 34
f 34 8 31
f 41 42 9
f 43 42 44
f 21 43 44
f 7 9 42
f 7 42 43
f 43 21 7
f 45 46 44
f 44 46 47
f 44 47 21
f 21 47 48
f 47 49 48
f 21 48 20
f 20 48 18
f 49 18 48
f 49 50 19
f 19 18 49
f 14 19 50
f 14 13 19
f 14 50 51
f 51 52 14
f 14 52 53
f 12 14 17
f 12 17 15
f 14 12 13
f 54 47 55
f 54 49 47
f 55 56 54
f 54 56 51
f 57 51 56
f 57 56 58
f 58 56 59
f 58 52 57
f 57 52 51
f 54 50 49
f 50 54 51
f 46 55 47
f 59 56 60
f 61 55 46
f 61 46 45
f 56 55 60
f 60 55 61
f 62 63 60
f 62 60 61
f 61 64 62
f 64 61 45
f 44 65 45
f 44 42 65
f 34 66 40
f 67 68 69
f 64 45 65
f 68 70 64
f 71 70 68
f 72 71 73
f 68 65 69
f 67 73 68
f 68 64 65
f 65 42 69
f 69 42 41
f 69 41 66
f 69 66 67
f 67 74 73
f 74 72 73
f 73 71 68
f 41 40 66
f 66 75 67
f 67 75 74
f 66 34 75
f 75 34 76
f 75 76 77
f 75 77 74
f 74 77 72
f 72 78 71
f 70 62 64
f 72 77 79
f 79 80 72
f 76 79 77
f 81 34 33
f 81 76 34
f 81 79 76
f 79 81 82
f 79 82 83
f 79 83 80
f 72 80 78
f 71 78 84
f 84 78 80
f 70 71 84
f 70 63 62
f 70 84 63
f 80 85 84
f 86 63 84
f 80 83 85
f 84 85 86
f 60 87 59
f 88 59 87
f 89 90 30
f 38 35 30
f 91 63 86
f 88 90 89
f 88 92 90
f 93 90 92
f 92 88 87
f 87 60 91
f 91 94 93
f 94 91 86
f 91 60 63
f 91 93 87
f 87 93 92
f 38 90 95
f 95 93 94
f 95 90 93
f 38 30 90
f 86 81 33
f 33 95 94
f 33 39 95
f 94 86 33
f 86 85 81
f 95 39 38
f 81 85 83
f 81 83 82
f 59 96 58
f 59 88 96
f 27 89 30
f 58 96 97
f 98 25 23
f 23 1 98
f 99 97 96
f 96 98 99
f 1 3 99
f 1 99 98
f 25 98 89
f 89 27 25
f 89 98 96
f 89 96 88
f 53 97 99
f 58 97 52
f 3 53 99
f 3 14 53
f 52 97 53

