# https://github.com/mikedh/trimesh
v -0.00672875 0.08801490 -0.18759352
v -0.02076754 0.08446983 -0.18153453
v -0.00388830 0.11425083 -0.06101735
v -0.05001317 -0.01309771 -0.20843181
v -0.03952073 0.05024901 -0.17135268
v -0.05448700 0.00592234 -0.22348091
v -0.04858569 0.02604441 -0.25989145
v -0.05580365 0.00088110 -0.26002812
v -0.04343783 0.03645297 -0.23012902
v -0.03175031 0.07196812 -0.14191760
v -0.03002905 0.07901427 -0.16363658
v -0.02920300 0.04746364 -0.25948173
v -0.02613818 0.05450634 -0.22634186
v 0.00067126 0.05895343 -0.22896062
v -0.04476610 -0.03440066 -0.26009628
v -0.04155409 -0.03093418 -0.21004732
v 0.01365154 -0.05373545 -0.26009127
v 0.00679909 -0.05242612 -0.21541271
v -0.01472959 -0.05355295 -0.26008070
v -0.01948615 -0.04949073 -0.21552926
v -0.00101532 0.05544522 -0.26009956
v 0.02127860 0.05212630 -0.24316823
v 0.02869074 0.04740074 -0.25977841
v 0.02169237 0.08394332 -0.18069793
v 0.02770509 0.10417236 -0.05680317
v 0.02964924 0.08255813 -0.14929548
v 0.01175630 0.08693568 -0.18738151
v 0.01760601 0.12199192 0.02939895
v 0.00806778 0.12950981 0.01415088
v -0.01140789 0.12227316 0.03163171
v 0.01019022 0.12838985 -0.01242994
v 0.03993948 0.11703958 0.00075621
v -0.02848010 0.10319947 -0.05566007
v -0.03326030 0.09027608 -0.04573100
v -0.01949754 0.06615561 -0.13061313
v -0.02367589 0.08136206 -0.05027504
v -0.00362589 0.07468645 -0.05573770
v 0.00192563 0.05944932 -0.13691989
v -0.01233095 -0.02631951 -0.18185259
v -0.00310699 0.03974013 -0.15277708
v -0.03434698 -0.01201001 -0.18307313
v -0.02440423 0.05316861 -0.15298522
v 0.03681835 0.05699280 -0.16480140
v 0.03107034 0.07460702 -0.13474734
v 0.02134880 0.06534865 -0.13534322
v 0.03005179 -0.02092833 -0.18402305
v 0.02651335 0.04654638 -0.15792374
v 0.04891447 -0.01285700 -0.20399310
v -0.00327129 -0.04368357 -0.19515485
v 0.02365938 -0.04110435 -0.20088124
v 0.04126646 -0.03195903 -0.21206522
v -0.02875810 -0.03348479 -0.19525559
v 0.02418612 -0.04883980 -0.22859064
v 0.05417565 0.00292520 -0.22404458
v 0.05318340 -0.01519534 -0.26009178
v 0.03923850 -0.03919438 -0.26001859
v 0.05266070 0.01891309 -0.25951812
v 0.01930730 0.07873631 -0.05650944
v 0.03236947 0.09017758 -0.05077220
v 0.04638046 0.10486055 -0.00864618
v 0.04254239 0.09027797 -0.02686050
v 0.02606739 0.01802835 -0.04138304
v 0.04483907 0.01790084 -0.01605864
v 0.01621920 0.07207728 -0.04773749
v -0.00567064 0.06441547 -0.04867652
v 0.02930900 0.07701042 -0.04114069
v 0.04714445 0.01770145 0.01244743
v -0.00506337 0.01770233 -0.04796382
v -0.04526982 0.10156288 -0.01722475
v -0.03190295 0.06121094 -0.03746342
v -0.03814406 0.11684778 -0.00919560
v -0.04655468 0.10503703 0.00012841
v -0.01847547 0.10910106 0.03850964
v -0.03566553 0.11672172 0.01839340
v 0.00655454 0.10355966 0.04387116
v 0.02715853 0.10789195 0.03306207
v 0.04137889 0.10708724 0.01638793
v -0.04015813 0.08072385 0.02650432
v -0.01635158 0.07338178 0.04516179
v -0.04694740 0.01769872 0.01333820
v -0.03040054 0.01770787 0.03739513
v -0.00003678 0.01771624 0.04893190
v 0.02313349 0.06952134 0.04236175
v 0.03085299 0.01770727 0.03714600
v 0.04417171 0.08111600 0.02035510
v -0.02887537 0.01769722 -0.03906482
v -0.04459984 0.01787891 -0.01768902
v -0.01651604 0.12920253 0.00165273
v 0.04226388 0.03923466 -0.22523980
v 0.02645984 0.05733716 -0.22071125
f 1 2 3
f 4 5 6
f 7 8 6
f 9 7 5
f 5 7 6
f 5 10 11
f 12 13 14
f 1 13 2
f 12 7 9
f 13 9 2
f 12 9 13
f 14 13 1
f 9 5 11
f 9 11 2
f 15 4 8
f 8 4 6
f 4 15 16
f 17 18 19
f 19 18 20
f 16 15 20
f 20 15 19
f 12 14 21
f 22 23 21
f 22 21 14
f 24 25 26
f 14 1 27
f 28 29 30
f 24 27 3
f 3 25 24
f 3 31 25
f 29 28 32
f 29 32 31
f 31 32 25
f 3 27 1
f 2 11 33
f 34 33 10
f 11 10 33
f 10 35 34
f 36 34 35
f 37 35 38
f 35 37 36
f 39 40 41
f 5 4 41
f 42 10 5
f 35 10 42
f 40 42 41
f 35 42 40
f 40 38 35
f 41 42 5
f 43 44 45
f 46 43 47
f 46 48 43
f 46 40 39
f 43 45 47
f 40 46 47
f 38 40 47
f 38 47 45
f 46 39 49
f 50 46 49
f 51 46 50
f 49 18 50
f 46 51 48
f 20 18 49
f 16 20 52
f 41 4 16
f 52 41 16
f 49 39 52
f 52 20 49
f 41 52 39
f 53 50 18
f 53 51 50
f 54 48 55
f 56 55 51
f 51 55 48
f 56 53 17
f 53 56 51
f 18 17 53
f 21 17 19
f 21 19 15
f 17 21 23
f 57 55 17
f 21 15 8
f 7 12 8
f 8 12 21
f 17 23 57
f 17 55 56
f 38 58 37
f 44 59 58
f 58 45 44
f 45 58 38
f 44 26 25
f 44 25 59
f 32 60 25
f 60 61 25
f 25 61 59
f 62 61 63
f 37 58 64
f 37 64 65
f 64 58 66
f 59 61 66
f 63 61 60
f 58 59 66
f 62 66 61
f 60 67 63
f 65 64 68
f 68 64 62
f 62 64 66
f 69 34 70
f 70 36 65
f 65 36 37
f 70 34 36
f 34 69 33
f 71 33 69
f 71 69 72
f 73 30 74
f 74 71 72
f 30 73 75
f 30 75 28
f 28 75 76
f 77 32 28
f 77 28 76
f 32 77 60
f 78 74 72
f 74 78 73
f 79 73 78
f 75 73 79
f 72 80 78
f 81 79 78
f 81 78 80
f 82 79 81
f 83 75 82
f 82 75 79
f 84 83 82
f 84 85 83
f 67 85 84
f 85 67 60
f 86 70 65
f 86 65 68
f 87 70 86
f 70 87 69
f 69 87 80
f 69 80 72
f 67 68 62
f 80 67 84
f 67 80 87
f 62 63 67
f 84 82 80
f 82 81 80
f 87 86 67
f 67 86 68
f 83 76 75
f 76 85 77
f 85 76 83
f 85 60 77
f 3 2 33
f 30 29 88
f 31 88 29
f 88 31 3
f 74 88 71
f 71 88 33
f 30 88 74
f 88 3 33
f 54 57 43
f 43 57 26
f 26 57 89
f 26 89 24
f 43 26 44
f 43 48 54
f 22 14 90
f 22 90 89
f 22 89 23
f 23 89 57
f 24 89 90
f 24 90 27
f 27 90 14
f 54 55 57

