# https://github.com/mikedh/trimesh
v -0.00606817 0.04825521 -0.01667132
v -0.02760009 0.03933100 0.01325499
v -0.00760164 0.04820879 0.00323717
v 0.00150682 0.04849386 0.00211743
v 0.07669621 0.07945517 -0.01060651
v 0.08789254 0.07794400 -0.01210337
v 0.09630970 0.07604789 -0.01316070
v 0.08737311 0.07676505 0.00749364
v 0.08734241 0.07788745 0.01555758
v 0.09684638 0.07606333 0.01261389
v 0.07373078 0.08053229 0.00015259
v 0.09753267 0.07595596 -0.00060687
v 0.10362254 0.07473616 -0.00061145
v 0.06825613 0.08117638 0.01453530
v 0.07869590 0.07927401 -0.02412808
v 0.09877625 0.07588878 -0.02224045
v 0.10656116 0.07465862 0.01383460
v 0.08751237 0.07786249 0.02584179
v 0.11414961 0.06921986 0.01939886
v 0.10430953 0.06901603 0.03145302
v 0.08586877 0.07224877 0.03693588
v 0.07179121 0.07530186 0.03215492
v 0.05744554 0.07812917 0.01999703
v 0.05884238 0.08133553 0.00148235
v 0.05132461 0.07927526 -0.00242519
v 0.05851906 0.07840209 -0.02049517
v 0.06916219 0.07431583 -0.03224417
v 0.08438528 0.07206479 -0.03695400
v 0.10092318 0.06956384 -0.03364328
v 0.11384723 0.06950668 -0.02022483
v 0.04213472 0.06004735 0.02619265
v 0.04075819 0.06715112 0.01404953
v 0.03860015 0.06809603 0.00120415
v 0.10003750 0.05456374 0.03950666
v 0.08312564 0.04451825 0.04271820
v 0.11417245 0.05333138 0.03134448
v 0.12700857 0.01371618 0.02395019
v 0.12320505 0.06095918 0.01592869
v 0.13277501 -0.01017235 0.00792154
v 0.13291258 0.02418769 0.00310122
v 0.12738290 0.05551712 0.00592539
v 0.09966829 -0.00530176 0.04452029
v 0.08568472 -0.00615697 0.04577926
v 0.11225168 -0.00700737 0.03897116
v 0.12371591 -0.00939085 0.02853963
v 0.11917995 0.06774471 -0.00460876
v 0.07892589 0.03930819 -0.04266996
v 0.10142592 0.03818561 -0.04145058
v 0.11094309 0.05831005 -0.03221664
v 0.11948261 0.03220425 -0.03088846
v 0.12545772 0.05609742 -0.01400173
v 0.12730457 -0.00700718 -0.02347323
v 0.11344502 -0.00838186 -0.03844168
v 0.09064574 -0.00510411 -0.04608481
v 0.13254830 -0.00403898 -0.01219553
v 0.04155710 0.06843445 -0.00806514
v 0.02261967 0.05987841 0.00842389
v -0.01890585 0.04197365 0.02976214
v 0.00903208 0.04691090 0.02864077
v 0.01559339 0.05284930 0.02139354
v 0.05108114 0.03374735 0.03929608
v 0.06322114 0.02287990 0.04096254
v 0.06504454 -0.01416197 0.04118909
v 0.00343784 0.04947186 -0.01449406
v 0.02194598 0.05565789 -0.01187706
v 0.01925700 0.04578837 -0.01611212
v 0.06427795 0.01455710 -0.03939582
v 0.06292129 -0.00698796 -0.03901808
v 0.04913421 0.00854265 -0.02061106
v 0.04356467 0.04749734 -0.01990028
v 0.03837674 0.03122913 -0.01687457
v 0.04124236 0.06161416 -0.01583580
v -0.00568224 0.04246178 0.03573995
v 0.09255867 -0.02789247 0.04051105
v 0.08713388 -0.02888223 -0.04064986
v 0.10111775 -0.02884465 -0.03831891
v 0.11645634 -0.02915477 -0.02892690
v 0.12432616 -0.02884967 -0.01796106
v 0.12821703 -0.02741368 -0.00573223
v 0.12688686 -0.02728012 0.01179673
v 0.11885094 -0.02817275 0.02669280
v 0.10623271 -0.02820465 0.03630194
v 0.08410591 -0.04888472 -0.04437004
v 0.10727112 -0.04959219 -0.04085492
v 0.12688175 -0.04948894 -0.02221605
v 0.13285264 -0.04948213 0.00612279
v 0.11981934 -0.04944921 0.03117589
v 0.09956669 -0.04949593 0.04336526
v 0.04776083 -0.01628243 -0.02165711
v 0.02145120 0.04294065 -0.01654362
v 0.02185635 0.04372458 0.00000737
v -0.04554094 -0.01378893 0.02750591
v -0.04705486 0.00318182 0.02785491
v -0.04930988 0.00165283 -0.01664693
v -0.03297881 0.03597326 -0.01683294
v -0.03775854 0.02815644 0.02910453
v -0.04330977 0.01552432 0.03206875
v -0.03846632 -0.02912540 -0.01665784
v -0.03562225 -0.03082775 0.02896869
v -0.02204886 -0.04266499 -0.01675484
v -0.02025416 -0.04197186 0.03031177
v 0.00166853 -0.04839027 -0.01667291
v 0.00230030 -0.04802411 0.01907143
v -0.00456570 -0.04401089 0.03424260
v 0.05088006 -0.03603955 0.03545270
v 0.06797209 -0.03587802 0.03873874
v 0.07174478 -0.04948881 0.04164840
v 0.05501518 -0.04022546 0.03014191
v 0.04859196 -0.04950028 0.02136693
v 0.04501136 -0.04163356 0.01575155
v 0.02922400 -0.04210336 0.01678806
v 0.06040527 -0.02998028 0.03921065
v 0.04497635 -0.04948786 -0.01248872
v 0.06380944 -0.04942178 -0.03750154
v 0.06988095 -0.02903778 -0.03609340
v 0.04976827 -0.03830497 -0.02235366
v 0.04700442 -0.04262758 -0.01875553
v 0.04037089 -0.02990625 -0.01920015
v 0.02855284 -0.04156793 -0.01802250
v 0.04864268 -0.00282309 -0.01670040
v 0.04730467 0.01195234 -0.01662946
v 0.04422212 -0.02279054 -0.01654245
v 0.04233970 -0.04208610 -0.00073771
v 0.04598926 -0.01847612 0.05411279
v 0.01786009 -0.02497060 0.05537093
v -0.01119034 -0.02520729 0.05231184
v -0.03526215 -0.01971846 0.03872359
v -0.03922627 -0.00104336 0.03955152
v -0.02730142 -0.00068054 0.04905251
v 0.04774772 0.01563524 0.05370299
v 0.01960135 0.02473116 0.05542318
v -0.01261768 0.02296047 0.05236049
v -0.02341791 0.02938149 0.04160525
f 1 2 3
f 1 3 4
f 5 6 7
f 8 9 10
f 6 5 8
f 8 5 11
f 11 9 8
f 8 10 12
f 13 12 10
f 12 13 7
f 12 7 8
f 7 6 8
f 14 11 15
f 15 11 5
f 7 16 5
f 5 16 15
f 13 16 7
f 13 17 16
f 10 17 13
f 17 10 9
f 17 9 18
f 18 9 11
f 18 11 14
f 19 17 20
f 20 17 18
f 18 21 20
f 22 21 18
f 14 22 18
f 23 22 14
f 24 23 14
f 24 25 23
f 25 24 26
f 26 15 27
f 27 15 28
f 28 15 29
f 29 15 16
f 30 29 16
f 23 31 22
f 31 23 32
f 25 33 23
f 32 23 33
f 34 21 35
f 34 36 20
f 37 38 36
f 37 39 40
f 41 38 40
f 40 38 37
f 34 35 42
f 42 35 43
f 34 42 44
f 38 19 36
f 36 19 20
f 36 34 44
f 37 44 45
f 41 46 38
f 21 34 20
f 44 37 36
f 19 38 46
f 46 17 19
f 15 24 14
f 24 15 26
f 17 46 16
f 46 30 16
f 47 28 48
f 28 29 48
f 49 48 29
f 49 50 48
f 29 30 49
f 46 51 30
f 41 40 51
f 51 50 49
f 51 49 30
f 50 52 53
f 53 54 48
f 53 48 50
f 41 51 46
f 40 55 51
f 51 55 52
f 51 52 50
f 48 54 47
f 25 56 33
f 25 26 56
f 32 33 57
f 58 59 60
f 58 57 3
f 61 22 31
f 21 22 61
f 21 61 35
f 62 35 61
f 35 62 43
f 58 60 57
f 59 31 60
f 59 61 31
f 31 32 57
f 57 60 31
f 62 63 43
f 39 37 45
f 55 40 39
f 57 64 3
f 64 65 66
f 67 68 69
f 33 65 64
f 33 64 57
f 67 47 54
f 69 70 67
f 69 71 70
f 47 67 27
f 65 33 56
f 26 72 56
f 26 27 72
f 70 66 65
f 70 65 72
f 65 56 72
f 70 72 67
f 28 47 27
f 27 67 72
f 66 70 71
f 73 59 58
f 63 74 43
f 75 54 76
f 76 54 53
f 76 53 77
f 77 53 78
f 78 53 52
f 78 52 79
f 79 52 55
f 79 55 39
f 79 39 80
f 80 39 45
f 80 45 81
f 81 45 82
f 82 45 44
f 82 44 74
f 74 44 42
f 74 42 43
f 83 75 76
f 83 76 84
f 84 76 77
f 84 77 85
f 85 77 78
f 85 78 86
f 86 78 79
f 86 79 80
f 86 80 81
f 86 81 87
f 87 81 88
f 88 81 82
f 88 82 74
f 68 67 54
f 89 69 68
f 71 90 91
f 91 90 1
f 91 1 4
f 92 93 94
f 95 96 2
f 94 96 95
f 94 93 97
f 94 97 96
f 98 92 94
f 98 99 92
f 100 99 98
f 100 101 99
f 102 101 100
f 102 103 101
f 58 3 2
f 103 104 101
f 105 104 103
f 2 96 58
f 59 73 61
f 63 106 74
f 74 106 107
f 74 107 88
f 108 107 106
f 109 108 110
f 110 108 105
f 105 111 110
f 106 63 112
f 106 112 105
f 106 105 108
f 107 108 109
f 113 114 88
f 86 88 85
f 113 88 107
f 107 109 113
f 84 85 88
f 86 87 88
f 84 88 83
f 88 114 83
f 54 75 68
f 68 75 115
f 115 89 68
f 116 113 117
f 113 116 114
f 118 116 117
f 118 117 119
f 75 83 115
f 115 83 114
f 115 114 116
f 118 89 116
f 116 89 115
f 69 120 121
f 89 122 120
f 89 120 69
f 118 122 89
f 122 118 119
f 121 71 69
f 91 66 71
f 4 64 91
f 91 64 66
f 3 64 4
f 102 122 119
f 71 121 120
f 2 1 95
f 103 102 111
f 111 102 119
f 111 119 110
f 119 117 123
f 119 123 110
f 103 111 105
f 124 112 63
f 124 105 112
f 124 125 105
f 105 125 104
f 126 101 104
f 99 101 127
f 99 127 92
f 128 92 127
f 129 128 127
f 127 126 129
f 104 125 126
f 93 92 128
f 101 126 127
f 124 63 130
f 130 62 61
f 131 130 61
f 73 132 131
f 133 132 73
f 97 132 133
f 97 129 132
f 130 63 62
f 73 58 133
f 96 97 133
f 93 128 97
f 133 58 96
f 131 61 73
f 128 129 97
f 113 123 117
f 109 123 113
f 109 110 123
f 90 71 120
f 95 1 90
f 94 95 90
f 100 98 90
f 90 98 94
f 102 100 90
f 122 102 90
f 120 122 90
f 129 126 132
f 131 125 130
f 125 124 130
f 132 126 125
f 125 131 132

